<?xml version="1.0" encoding="UTF-8"?>
<svg version="1.1" xmlns="http://www.w3.org/2000/svg" width="200" height="42">
<path d="M0 0 C0.495 0.99 0.495 0.99 1 2 C2.32 2 3.64 2 5 2 C5 2.99 5 3.98 5 5 C8.63 5 12.26 5 16 5 C15.67 6.32 15.34 7.64 15 9 C11.7 9 8.4 9 5 9 C5 10.32 5 11.64 5 13 C5.66 13 6.32 13 7 13 C7 12.34 7 11.68 7 11 C8.65 11 10.3 11 12 11 C11.6875 12.875 11.6875 12.875 11 15 C7.76746204 17.15502531 6.74849077 17.46856135 3 17 C1.1875 15.8125 1.1875 15.8125 0 14 C-0.1875 11.3125 -0.1875 11.3125 0 9 C-1.32 9 -2.64 9 -4 9 C-4 11.31 -4 13.62 -4 16 C-5.9375 16.5625 -5.9375 16.5625 -8 17 C-9 16 -9 16 -9.0625 12.4375 C-9.041875 11.303125 -9.02125 10.16875 -9 9 C-9.144375 9.763125 -9.28875 10.52625 -9.4375 11.3125 C-10 14 -10 14 -11 17 C-12.58294782 17.05437607 -14.16644256 17.09296271 -15.75 17.125 C-17.07257813 17.15980469 -17.07257813 17.15980469 -18.421875 17.1953125 C-21.14854489 16.9887466 -22.72251979 16.49071432 -25 15 C-25.75 12.875 -25.75 12.875 -26 11 C-26.928125 10.7834375 -26.928125 10.7834375 -27.875 10.5625 C-30 10 -30 10 -32 9 C-32 11.31 -32 13.62 -32 16 C-33.65 16.33 -35.3 16.66 -37 17 C-38.03159626 13.90521121 -37.97482862 12.47368607 -37.5625 9.3125 C-37.46066406 8.50425781 -37.35882813 7.69601563 -37.25390625 6.86328125 C-37.17011719 6.24839844 -37.08632812 5.63351563 -37 5 C-32.66666667 5 -28.33333333 5 -24 5 C-22.1746875 4.7215625 -22.1746875 4.7215625 -20.3125 4.4375 C-16.30839048 3.91045085 -12.95813674 4.25784936 -9 5 C-8.87625 4.360625 -8.7525 3.72125 -8.625 3.0625 C-8.315625 2.0415625 -8.315625 2.0415625 -8 1 C-5.29120665 -0.35439668 -2.99066732 -0.06501451 0 0 Z M-1 3 C-1.99 3.66 -2.98 4.32 -4 5 C-2.68 5 -1.36 5 0 5 C-0.33 4.34 -0.66 3.68 -1 3 Z M-20 8 C-16 9 -16 9 -16 9 Z M-20 12 C-16 13 -16 13 -16 13 Z " fill="#78A02D" transform="translate(184,4)"/>
<path d="M0 0 C2.4375 2.5625 2.4375 2.5625 4 5 C4.45375 4.195625 4.9075 3.39125 5.375 2.5625 C7 0 7 0 9 -1 C11.14323306 -1.12271508 13.29079002 -1.17553395 15.4375 -1.1875 C16.59121094 -1.20167969 17.74492188 -1.21585937 18.93359375 -1.23046875 C22 -1 22 -1 25 1 C25.1875 3.625 25.1875 3.625 25 6 C23.33388095 6.042721 21.66617115 6.04063832 20 6 C19.505 5.505 19.505 5.505 19 5 C17.65252916 4.76924918 16.29622435 4.58846937 14.9375 4.4375 C13.638125 4.293125 12.33875 4.14875 11 4 C11.33 5.98 11.66 7.96 12 10 C14.31 10 16.62 10 19 10 C19.33 9.34 19.66 8.68 20 8 C21.65 8 23.3 8 25 8 C25.04254356 9.99954746 25.04080783 12.00041636 25 14 C22.89043868 16.10956132 18.46716878 15.23112319 15.5625 15.25 C14.77294922 15.270625 13.98339844 15.29125 13.16992188 15.3125 C10.87890625 15.328125 10.87890625 15.328125 7 15 C6.34 14.01 5.68 13.02 5 12 C4.4225 12.94875 3.845 13.8975 3.25 14.875 C1.17183449 17.76134098 0.24531925 18.84095741 -3 20 C-2.67 19.01 -2.34 18.02 -2 17 C-1.34 17 -0.68 17 0 17 C1.30765478 13.07703567 1.1971417 10.13997567 1 6 C-0.87947452 3.73686321 -0.87947452 3.73686321 -3.875 3.5 C-7.30231384 3.68720222 -7.30231384 3.68720222 -9.375 7 C-9.91125 7.99 -10.4475 8.98 -11 10 C-11.99 9.67 -12.98 9.34 -14 9 C-13.81375663 4.90264592 -13.43470443 3.40365412 -10.375 0.5625 C-6.23926958 -1.35219001 -4.32828355 -1.36260778 0 0 Z " fill="#005595" transform="translate(20,5)"/>
<path d="M0 0 C2.475 0.495 2.475 0.495 5 1 C5 1.66 5 2.32 5 3 C6.98 3 8.96 3 11 3 C10.67 4.32 10.34 5.64 10 7 C8.35 7 6.7 7 5 7 C5.33 7.66 5.66 8.32 6 9 C7.65 9 9.3 9 11 9 C10.67 10.65 10.34 12.3 10 14 C6.75 14.75 6.75 14.75 3 15 C0.5625 13.0625 0.5625 13.0625 -1 11 C-1.33 11.99 -1.66 12.98 -2 14 C-12.55808656 15.51708428 -12.55808656 15.51708428 -17 13 C-17.125 5.25 -17.125 5.25 -16 3 C-10.64991422 1.98532856 -6.33098784 2.00043978 -1 3 C-0.67 2.01 -0.34 1.02 0 0 Z M-12 6 C-8 7 -8 7 -8 7 Z M-12 10 C-12 10.33 -12 10.66 -12 11 C-10.35 11 -8.7 11 -7 11 C-7 10.67 -7 10.34 -7 10 C-8.65 10 -10.3 10 -12 10 Z " fill="#005695" transform="translate(99,6)"/>
<path d="M0 0 C4.3782512 -0.02469081 8.75646567 -0.04285557 13.13476562 -0.05493164 C14.62468166 -0.05996514 16.11459274 -0.06679242 17.60449219 -0.07543945 C19.74415304 -0.08754805 21.88374868 -0.09323807 24.0234375 -0.09765625 C25.31169434 -0.10289307 26.59995117 -0.10812988 27.92724609 -0.11352539 C31 0 31 0 33 1 C33 1.99 33 2.98 33 4 C32.34 4 31.68 4 31 4 C31 4.66 31 5.32 31 6 C31.66 6 32.32 6 33 6 C33 7.32 33 8.64 33 10 C28.54172074 10.0578304 24.0835372 10.09353855 19.625 10.125 C18.35398437 10.14175781 17.08296875 10.15851562 15.7734375 10.17578125 C14.56171875 10.18222656 13.35 10.18867187 12.1015625 10.1953125 C10.98088379 10.20578613 9.86020508 10.21625977 8.70556641 10.22705078 C6 10 6 10 4 8 C4 8.66 4 9.32 4 10 C2.68 10 1.36 10 0 10 C0 6.7 0 3.4 0 0 Z M9 2 C9 4.31 9 6.62 9 9 C9.33 9 9.66 9 10 9 C10 6.69 10 4.38 10 2 C9.67 2 9.34 2 9 2 Z M15 2 C15 3.98 15 5.96 15 8 C15.33 8 15.66 8 16 8 C16 6.02 16 4.04 16 2 C15.67 2 15.34 2 15 2 Z M24 4 C25 6 25 6 25 6 Z " fill="#B1322C" transform="translate(40,31)"/>
<path d="M0 0 C1.13566406 -0.00773438 2.27132812 -0.01546875 3.44140625 -0.0234375 C6.4375 0.375 6.4375 0.375 8.33984375 1.6484375 C9.4375 3.375 9.4375 3.375 9.4375 7.375 C7.4575 7.375 5.4775 7.375 3.4375 7.375 C3.4375 6.715 3.4375 6.055 3.4375 5.375 C0.7975 5.375 -1.8425 5.375 -4.5625 5.375 C-4.5625 7.685 -4.5625 9.995 -4.5625 12.375 C-1.9225 12.375 0.7175 12.375 3.4375 12.375 C3.7675 11.385 4.0975 10.395 4.4375 9.375 C6.9125 9.87 6.9125 9.87 9.4375 10.375 C8.5625 15.25 8.5625 15.25 7.4375 16.375 C4.77927343 16.50158222 2.15862576 16.56020214 -0.5 16.5625 C-1.24185547 16.57474609 -1.98371094 16.58699219 -2.74804688 16.59960938 C-4.68763629 16.60488478 -6.6267371 16.49688902 -8.5625 16.375 C-11.15650506 13.78099494 -10.88961615 12.54315384 -10.9375 8.9375 C-10.96585937 7.96941406 -10.99421875 7.00132813 -11.0234375 6.00390625 C-10.5625 3.375 -10.5625 3.375 -8.94921875 1.55078125 C-5.83605112 0.01712584 -3.46093885 -0.02362416 0 0 Z " fill="#78A02C" transform="translate(136.5625,3.625)"/>
<path d="M0 0 C7.26 0 14.52 0 22 0 C22.66 3.3 23.32 6.6 24 10 C23.34 10.66 22.68 11.32 22 12 C19.875 11.625 19.875 11.625 18 11 C18 8.69 18 6.38 18 4 C17.01 4.33 16.02 4.66 15 5 C14.67 7.31 14.34 9.62 14 12 C12.35 11.67 10.7 11.34 9 11 C9 8.69 9 6.38 9 4 C7.68 4 6.36 4 5 4 C5 6.64 5 9.28 5 12 C3.35 11.67 1.7 11.34 0 11 C0 7.37 0 3.74 0 0 Z " fill="#005695" transform="translate(58,9)"/>
<path d="M0 0 C2 2 2 2 2.3125 5.4375 C2 9 2 9 1 10.9375 C-2.16754089 12.6202561 -5.4913658 12.54468716 -9 12 C-12 10 -12 10 -12.8125 6.5625 C-13 3 -13 3 -11 0 C-6.88092254 -1.37302582 -4.27865333 -0.74706646 0 0 Z M-7 3 C-3 4 -3 4 -3 4 Z M-8 7 C-8 7.33 -8 7.66 -8 8 C-6.35 8 -4.7 8 -3 8 C-3 7.67 -3 7.34 -3 7 C-4.65 7 -6.3 7 -8 7 Z " fill="#005595" transform="translate(123,9)"/>
<path d="M0 0 C2.73171394 2.51605231 3.81204186 4.41106449 4.9375 7.9375 C5.03047801 12.49342245 3.31076571 15.42708115 0.4375 18.875 C-1 20 -1 20 -3 20 C-2.67 19.01 -2.34 18.02 -2 17 C-1.34 17 -0.68 17 0 17 C1.30765478 13.07703567 1.1971417 10.13997567 1 6 C-0.87947452 3.73686321 -0.87947452 3.73686321 -3.875 3.5 C-7.30231384 3.68720222 -7.30231384 3.68720222 -9.375 7 C-9.91125 7.99 -10.4475 8.98 -11 10 C-11.99 9.67 -12.98 9.34 -14 9 C-13.81375663 4.90264592 -13.43470443 3.40365412 -10.375 0.5625 C-6.23926958 -1.35219001 -4.32828355 -1.36260778 0 0 Z " fill="#7AA12A" transform="translate(20,5)"/>
<path d="M0 0 C0.99 0.33 1.98 0.66 3 1 C3 1.99 3 2.98 3 4 C2.154375 4.78375 1.30875 5.5675 0.4375 6.375 C-2.30478539 8.73120001 -2.30478539 8.73120001 -2 11.6875 C-1.1108717 14.31863969 -1.1108717 14.31863969 2 16 C5.53462587 15.99510849 5.53462587 15.99510849 9 15 C10.82337753 13.0431712 10.82337753 13.0431712 12 11 C12.66 11 13.32 11 14 11 C13.12269491 13.70502403 12.28331029 15.68400006 10.375 17.8125 C6.94043219 19.52978391 3.71688803 19.67982843 0 19 C-3.27981751 16.93228896 -4.84746007 15.22880989 -7 12 C-6.91013955 7.86641926 -6.27736547 6.31203616 -3.5 3.1875 C-2.2625 2.1046875 -2.2625 2.1046875 -1 1 C-0.67 0.67 -0.34 0.34 0 0 Z " fill="#005496" transform="translate(7,1)"/>
<path d="M0 0 C2 0.33333333 4 0.66666667 6 1 C6.33 0.67 6.66 0.34 7 0 C8.66617115 -0.04063832 10.33388095 -0.042721 12 0 C11.814375 0.969375 11.62875 1.93875 11.4375 2.9375 C11.293125 3.948125 11.14875 4.95875 11 6 C11.33 6.33 11.66 6.66 12 7 C12 7.99 12 8.98 12 10 C7.66666667 10 3.33333333 10 -1 10 C-1.02689216 8.52093108 -1.04634621 7.04172517 -1.0625 5.5625 C-1.07410156 4.73878906 -1.08570313 3.91507813 -1.09765625 3.06640625 C-1 1 -1 1 0 0 Z M1 6 C1 6.66 1 7.32 1 8 C1.66 8 2.32 8 3 8 C3 7.34 3 6.68 3 6 C2.34 6 1.68 6 1 6 Z " fill="#807C79" transform="translate(144,31)"/>
<path d="M0 0 C1.65 0 3.3 0 5 0 C5 5.61 5 11.22 5 17 C3.35 16.67 1.7 16.34 0 16 C0 10.72 0 5.44 0 0 Z " fill="#005695" transform="translate(46,4)"/>
<path d="M0 0 C1.65 0 3.3 0 5 0 C6.22329074 3.66987221 5.88021006 6.33967822 5.5625 10.1875 C5.46066406 11.45980469 5.35882813 12.73210938 5.25390625 14.04296875 C5.12822266 15.50669922 5.12822266 15.50669922 5 17 C3.35 16.67 1.7 16.34 0 16 C0 10.72 0 5.44 0 0 Z " fill="#005695" transform="translate(52,4)"/>
<path d="M0 0 C0.99 0 1.98 0 3 0 C3.33 0.66 3.66 1.32 4 2 C4.33 1.34 4.66 0.68 5 0 C5.99 0 6.98 0 8 0 C8 2.97 8 5.94 8 9 C5.36 9 2.72 9 0 9 C0 6.03 0 3.06 0 0 Z " fill="#807C79" transform="translate(134,32)"/>
<path d="M0 0 C0.99 0 1.98 0 3 0 C3 0.99 3 1.98 3 3 C3.66 3 4.32 3 5 3 C5 2.01 5 1.02 5 0 C5.99 0 6.98 0 8 0 C8 2.97 8 5.94 8 9 C5.36 9 2.72 9 0 9 C0 6.03 0 3.06 0 0 Z " fill="#807C79" transform="translate(118,32)"/>
<path d="M0 0 C1.67542976 0.28604898 3.34385343 0.61781233 5 1 C5.33 1.99 5.66 2.98 6 4 C5.67 4.66 5.34 5.32 5 6 C5.39938767 8.09821215 5.39938767 8.09821215 6 10 C5.01 10 4.02 10 3 10 C2.67 9.01 2.34 8.02 2 7 C1.67 7.99 1.34 8.98 1 10 C0.34 10 -0.32 10 -1 10 C-1.02689216 8.52093108 -1.04634621 7.04172517 -1.0625 5.5625 C-1.07410156 4.73878906 -1.08570313 3.91507813 -1.09765625 3.06640625 C-1 1 -1 1 0 0 Z " fill="#807C79" transform="translate(158,31)"/>
<path d="M0 0 C1.2065625 0.0309375 1.2065625 0.0309375 2.4375 0.0625 C2.251875 0.97 2.06625 1.8775 1.875 2.8125 C1.48015379 5.74564324 1.49058428 7.3269657 2.4375 10.0625 C0.4575 10.0625 -1.5225 10.0625 -3.5625 10.0625 C-3.58939216 8.58343108 -3.60884621 7.10422517 -3.625 5.625 C-3.63660156 4.80128906 -3.64820312 3.97757813 -3.66015625 3.12890625 C-3.51340586 0.02366796 -3.12550237 0.07623177 0 0 Z " fill="#807C79" transform="translate(130.5625,30.9375)"/>
<path d="M0 0 C1.67542976 0.28604898 3.34385343 0.61781233 5 1 C5.33 3.97 5.66 6.94 6 10 C5.01 10 4.02 10 3 10 C2.67 9.01 2.34 8.02 2 7 C1.67 7.99 1.34 8.98 1 10 C0.34 10 -0.32 10 -1 10 C-1.02689216 8.52093108 -1.04634621 7.04172517 -1.0625 5.5625 C-1.07410156 4.73878906 -1.08570312 3.91507813 -1.09765625 3.06640625 C-1 1 -1 1 0 0 Z " fill="#807C79" transform="translate(86,31)"/>
<path d="M0 0 C2.125 0.9375 2.125 0.9375 4 2 C4 4.64 4 7.28 4 10 C1.625 10.1875 1.625 10.1875 -1 10 C-3 7 -3 7 -2.75 3.875 C-2.37875 2.451875 -2.37875 2.451875 -2 1 C-1.34 0.67 -0.68 0.34 0 0 Z M0 3 C0 3.99 0 4.98 0 6 C0.66 5.01 1.32 4.02 2 3 C1.34 3 0.68 3 0 3 Z M0 6 C0 6.66 0 7.32 0 8 C0.66 7.67 1.32 7.34 2 7 C1.34 6.67 0.68 6.34 0 6 Z " fill="#807C79" transform="translate(80,31)"/>
<path d="M0 0 C3.53571429 0.53571429 3.53571429 0.53571429 5 2 C5.1875 4.9375 5.1875 4.9375 5 8 C4.34 8.66 3.68 9.32 3 10 C-0.53571429 9.46428571 -0.53571429 9.46428571 -2 8 C-2.1875 5.0625 -2.1875 5.0625 -2 2 C-1.34 1.34 -0.68 0.68 0 0 Z M0 3 C0.33 4.65 0.66 6.3 1 8 C1.66 7.67 2.32 7.34 3 7 C3 5.68 3 4.36 3 3 C2.01 3 1.02 3 0 3 Z " fill="#807C79" transform="translate(94,31)"/>
<path d="M0 0 C0.66 0 1.32 0 2 0 C2.99 3.3 3.98 6.6 5 10 C4.01 10 3.02 10 2 10 C2 9.01 2 8.02 2 7 C1.34 7 0.68 7 0 7 C-0.33 7.99 -0.66 8.98 -1 10 C-1.66 10 -2.32 10 -3 10 C-2.69201674 8.51988629 -2.378482 7.04092675 -2.0625 5.5625 C-1.88847656 4.73878906 -1.71445312 3.91507813 -1.53515625 3.06640625 C-1 1 -1 1 0 0 Z " fill="#7F7C79" transform="translate(33,31)"/>
<path d="M0 0 C0.66 0 1.32 0 2 0 C2.33 1.98 2.66 3.96 3 6 C3.33 4.02 3.66 2.04 4 0 C4.99 0 5.98 0 7 0 C7.25 5.625 7.25 5.625 5 9 C1.125 8.125 1.125 8.125 0 7 C-0.04092937 4.66702567 -0.04241723 2.33294775 0 0 Z " fill="#807C79" transform="translate(100,32)"/>
<path d="M0 0 C2.0625 0.4375 2.0625 0.4375 4 1 C4.33 2.32 4.66 3.64 5 5 C3.68 5.33 2.36 5.66 1 6 C1 7.32 1 8.64 1 10 C0.34 10 -0.32 10 -1 10 C-1.02689216 8.52093108 -1.04634621 7.04172517 -1.0625 5.5625 C-1.07410156 4.73878906 -1.08570312 3.91507813 -1.09765625 3.06640625 C-1 1 -1 1 0 0 Z " fill="#807C79" transform="translate(109,31)"/>
</svg>
