<?xml version="1.0" encoding="UTF-8"?>
<svg version="1.1" xmlns="http://www.w3.org/2000/svg" width="972" height="181">
<path d="M0 0 C0.66 0 1.32 0 2 0 C2.4640625 0.84175781 2.928125 1.68351563 3.40625 2.55078125 C8.94171191 12.52096577 14.72283617 22.33812623 20.55273438 32.13842773 C24.23180727 38.32445148 27.89760367 44.51762593 31.53125 50.73046875 C31.90616577 51.37136948 32.28108154 52.0122702 32.6673584 52.67259216 C34.4685176 55.75274112 36.26760713 58.83408121 38.06445312 61.91674805 C42.08298028 68.80007758 42.08298028 68.80007758 46.2421875 75.59863281 C46.60948975 76.18601227 46.97679199 76.77339172 47.35522461 77.37857056 C48.37613818 79.00387394 49.40462833 80.62441109 50.43359375 82.24462891 C52.83771316 86.47357087 52.83771316 86.47357087 53 89 C52.02905273 90.9375 52.02905273 90.9375 50.49609375 93 C46.62951999 98.4597402 43.36682865 104.18745538 40.0625 110 C34.13973683 120.34866228 28.08833375 130.60736054 21.92407227 140.81445312 C21.33682373 141.78705078 20.7495752 142.75964844 20.14453125 143.76171875 C19.63253174 144.60694092 19.12053223 145.45216309 18.59301758 146.32299805 C16.68777749 149.52467737 14.84845484 152.76520403 13 156 C227.83 156.495 227.83 156.495 447 157 C447 158.65 447 160.3 447 162 C446.07586333 161.99755933 445.15172666 161.99511865 444.19958586 161.99260402 C389.4535955 161.84907755 334.70781057 161.76884945 279.96162292 161.76939832 C273.39132602 161.76941012 266.82102926 161.76889965 260.25073242 161.76806641 C258.94267932 161.7679093 257.63462623 161.76775219 256.28693516 161.76759031 C235.09426018 161.76379875 213.90187729 161.71767792 192.70930087 161.65597185 C170.97114156 161.59361726 149.23328967 161.57661642 127.49505383 161.60190511 C114.07618289 161.6160805 100.65832938 161.59468677 87.23961217 161.52809784 C78.04357239 161.48584898 68.84820269 161.48757003 59.65214109 161.52415326 C54.34236581 161.54396878 49.03446789 161.54412474 43.72486877 161.49215889 C38.86476762 161.44501959 34.00800998 161.45301103 29.14798868 161.50514546 C27.38877422 161.51423471 25.62931423 161.50296341 23.87039559 161.46944699 C18.67186252 161.3768251 13.97924966 161.40476258 9 163 C6.2324018 165.99911356 4.70776313 168.68269219 3.11238438 172.42706704 C2.74529753 173.27613492 2.37821069 174.12520279 2 175 C1.34 175 0.68 175 0 175 C-0.34990968 174.15093212 -0.69981936 173.30186425 -1.06033236 172.42706704 C-2.64218096 168.60555133 -4.13363238 166.00037767 -7 163 C-13.26566115 161.12866265 -19.45845142 161.40550434 -25.95054626 161.51898193 C-27.92414834 161.50961743 -29.89773127 161.4949849 -31.87125975 161.47553754 C-37.29494676 161.43734908 -42.71595741 161.47395687 -48.13946545 161.52266955 C-53.98747618 161.5621321 -59.83517997 161.53239608 -65.68322754 161.5110321 C-75.81531039 161.48350387 -85.94656084 161.49989125 -96.0785656 161.5460434 C-110.72756861 161.61270747 -125.37612344 161.61327957 -140.02521724 161.59759203 C-163.79178285 161.57293721 -187.55798343 161.60385075 -211.32446289 161.66748047 C-234.41238651 161.72916624 -257.50012552 161.76565861 -280.58813477 161.76806641 C-281.29987875 161.76815066 -282.01162274 161.76823492 -282.74493473 161.76832173 C-289.89259915 161.76914008 -297.04026353 161.7694465 -304.187928 161.76937785 C-318.7483788 161.76924965 -333.30882817 161.77253822 -347.86927795 161.77789307 C-348.87346373 161.77825605 -348.87346373 161.77825605 -349.8979361 161.77862637 C-394.59870583 161.79517613 -439.29937004 161.89162206 -484 162 C-484 160.35 -484 158.7 -484 157 C-327.91 156.67 -171.82 156.34 -11 156 C-16.28 147.09 -21.56 138.18 -27 129 C-33.875 117.375 -33.875 117.375 -37.0078125 112.0625 C-38.99087743 108.70119851 -40.98641715 105.34779863 -42.9921875 102 C-43.45898926 101.21705566 -43.92579102 100.43411133 -44.40673828 99.62744141 C-45.2734202 98.17415035 -46.14391492 96.7231231 -47.01904297 95.27490234 C-50.763305 88.97737396 -50.763305 88.97737396 -51 86 C-49.63549805 83.25561523 -49.63549805 83.25561523 -47.57421875 80.12109375 C-46.82327297 78.95518674 -46.07380696 77.78832554 -45.32568359 76.62060547 C-44.93781677 76.0215741 -44.54994995 75.42254272 -44.15032959 74.80535889 C-42.34257481 71.96821883 -40.65228757 69.06553924 -38.95703125 66.16015625 C-38.62196564 65.58712265 -38.28690002 65.01408905 -37.94168091 64.4236908 C-37.25210513 63.24418989 -36.56317772 62.06430969 -35.87487793 60.88406372 C-34.0251779 57.71254972 -32.17038005 54.54401689 -30.31640625 51.375 C-29.94707977 50.74340469 -29.5777533 50.11180939 -29.19723511 49.46107483 C-25.38488469 42.94334761 -21.54974436 36.43916026 -17.69726562 29.94506836 C-14.90022831 25.22838297 -12.12620363 20.49976934 -9.37890625 15.75390625 C-8.78239258 14.729021 -8.18587891 13.70413574 -7.57128906 12.64819336 C-6.42010401 10.66941428 -5.27468389 8.68726734 -4.13574219 6.70141602 C-3.62301758 5.82283936 -3.11029297 4.9442627 -2.58203125 4.0390625 C-2.13061768 3.25740723 -1.6792041 2.47575195 -1.21411133 1.67041016 C-0.81345459 1.1191748 -0.41279785 0.56793945 0 0 Z " fill="#1F1919" transform="translate(495,3)"/>
<path d="M0 0 C0.47257487 1.41772461 0.94514974 2.83544922 1.41772461 4.25317383 C1.72932526 5.18795563 2.0409259 6.12273743 2.36196899 7.08584595 C3.06569196 9.19705613 3.7693649 11.30828299 4.47299194 13.41952515 C6.41272311 19.23946118 8.35334638 25.05909719 10.2956543 30.87817383 C16.97832886 50.90428797 16.97832886 50.90428797 19.9921875 60.1171875 C20.39703369 61.34977295 20.80187988 62.5823584 21.21899414 63.85229492 C21.92119699 65.99402145 22.618709 68.13729484 23.31030273 70.2824707 C26.3275609 79.88606436 26.3275609 79.88606436 32 88 C33.93991404 88.42137285 33.93991404 88.42137285 36.0625 88.5625 C40 89 40 89 41 90 C41.125 92.5 41.125 92.5 41 95 C39.07742825 96.92257175 36.21914892 96.12908424 33.66125488 96.13894653 C32.77272827 96.1369223 31.88420166 96.13489807 30.96875 96.1328125 C30.06249878 96.13376923 29.15624756 96.13472595 28.22253418 96.13571167 C26.30248953 96.13639353 24.38244259 96.13453882 22.46240234 96.13037109 C19.51264296 96.12502292 16.56303586 96.13031588 13.61328125 96.13671875 C11.75260383 96.13605797 9.8919265 96.13477681 8.03125 96.1328125 C6.69846008 96.13584885 6.69846008 96.13584885 5.33874512 96.13894653 C-0.88505012 96.11494988 -0.88505012 96.11494988 -2 95 C-2.04080783 93.00041636 -2.04254356 90.99954746 -2 89 C0.64 89 3.28 89 6 89 C5.74605469 87.98421875 5.49210938 86.9684375 5.23046875 85.921875 C3.15364583 77.61458333 1.07682292 69.30729167 -1 61 C-10.24 61 -19.48 61 -29 61 C-29.33 62.98 -29.66 64.96 -30 67 C-30.65485214 68.94877684 -31.34318269 70.8865859 -32.0625 72.8125 C-33.91387254 78.16610796 -34.37531977 82.3702035 -34 88 C-31.03 88.33 -28.06 88.66 -25 89 C-25 91.31 -25 93.62 -25 96 C-49.42 96 -73.84 96 -99 96 C-99 93.69 -99 91.38 -99 89 C-95.37 89 -91.74 89 -88 89 C-88 65.24 -88 41.48 -88 17 C-90.8875 23.826875 -93.775 30.65375 -96.75 37.6875 C-97.69069336 39.91056885 -98.63138672 42.1336377 -99.60058594 44.42407227 C-103.38572973 53.37876151 -107.1606594 62.33620421 -110.828125 71.33984375 C-111.10670349 72.02203476 -111.38528198 72.70422577 -111.67230225 73.40708923 C-112.93563387 76.50288067 -114.19058655 79.60136893 -115.43261719 82.70581055 C-115.86735352 83.77484619 -116.30208984 84.84388184 -116.75 85.9453125 C-117.11609375 86.85812988 -117.4821875 87.77094727 -117.859375 88.71142578 C-118.98675271 90.97342036 -120.10688774 92.35100674 -122 94 C-123.77392578 93.484375 -123.77392578 93.484375 -126 92 C-127.37930829 89.41497112 -128.52159195 86.95246063 -129.6171875 84.25 C-129.95135178 83.45613892 -130.28551605 82.66227783 -130.62980652 81.84436035 C-131.72445074 79.23475808 -132.79979458 76.61766427 -133.875 74 C-134.62575872 72.19940531 -135.37764073 70.39927859 -136.13061523 68.59960938 C-138.05864468 63.98140852 -139.97004085 59.35653646 -141.87554932 54.72900391 C-142.96814926 52.07730067 -144.06416387 49.42703996 -145.16162109 46.77734375 C-149.13054269 37.19417185 -153.07841696 27.60264527 -157 18 C-157.69477842 33.9862056 -158.21503788 49.93790809 -157.75 65.9375 C-157.72365479 67.11916748 -157.69730957 68.30083496 -157.67016602 69.51831055 C-157.42486516 76.25121174 -156.475462 81.72483693 -154 88 C-152.700625 88.144375 -151.40125 88.28875 -150.0625 88.4375 C-146.125 88.875 -146.125 88.875 -145 90 C-144.875 92.5 -144.875 92.5 -145 95 C-146 96 -146 96 -149.14282227 96.11352539 C-150.53402697 96.11336633 -151.92523761 96.10767506 -153.31640625 96.09765625 C-154.04746078 96.0962413 -154.77851532 96.09482635 -155.53172302 96.09336853 C-157.87535632 96.08775408 -160.21889539 96.07519922 -162.5625 96.0625 C-164.14778508 96.05748686 -165.73307166 96.05292363 -167.31835938 96.04882812 C-171.2122761 96.03777997 -175.10612205 96.02050572 -179 96 C-179 93.69 -179 91.38 -179 89 C-177.72125 88.87625 -176.4425 88.7525 -175.125 88.625 C-171.65209064 88.30957601 -171.65209064 88.30957601 -169 86 C-165.30879146 69.78763308 -165.81316128 52.25502161 -165.81469727 35.71704102 C-165.81245852 33.01238393 -165.79405633 30.30810383 -165.77539062 27.60351562 C-165.7724647 25.8723972 -165.77047456 24.14127689 -165.76953125 22.41015625 C-165.76234573 21.60715591 -165.75516022 20.80415558 -165.74775696 19.9768219 C-165.76373585 16.12052185 -165.81004896 14.28492656 -168 11 C-170.19454681 10.42006301 -170.19454681 10.42006301 -172.625 10.3125 C-173.44226563 10.24675781 -174.25953125 10.18101563 -175.1015625 10.11328125 C-175.72804687 10.07589844 -176.35453125 10.03851563 -177 10 C-177 8.02 -177 6.04 -177 4 C-171.78428448 2.26142816 -166.20971675 2.65598332 -160.7487793 2.5949707 C-159.2928095 2.57334658 -157.83697123 2.53919016 -156.3815918 2.49243164 C-154.27594394 2.42546084 -152.17296819 2.39799098 -150.06640625 2.37890625 C-148.80771729 2.3538501 -147.54902832 2.32879395 -146.25219727 2.30297852 C-143 3 -143 3 -140.74072266 5.6015625 C-138.98827114 9.02289841 -137.46997032 12.41104402 -136.08203125 15.99609375 C-135.82316132 16.65868195 -135.56429138 17.32127014 -135.2975769 18.00393677 C-134.46248356 20.14591015 -133.63743377 22.291596 -132.8125 24.4375 C-132.23807043 25.91620028 -131.66295138 27.3946329 -131.0871582 28.87280273 C-129.93372352 31.83666723 -128.78403412 34.80193866 -127.63769531 37.76855469 C-125.73261149 42.69632313 -123.80508652 47.61513025 -121.87573242 52.53344727 C-120.24625957 56.68731405 -118.62283034 60.84353458 -117 65 C-112.10124263 55.90087074 -108.38929956 46.33080547 -104.5625 36.75 C-103.27434274 33.53556906 -101.98369314 30.32214781 -100.69140625 27.109375 C-100.38063141 26.33605835 -100.06985657 25.5627417 -99.74966431 24.76599121 C-96.9391743 17.79743125 -94.00009641 10.88895477 -91 4 C-86.46122739 3.83274014 -81.92228756 3.67214547 -77.38305664 3.51782227 C-75.8377441 3.4643338 -74.29249433 3.40899932 -72.74731445 3.35180664 C-70.53089949 3.27008567 -68.31434616 3.1949283 -66.09765625 3.12109375 C-65.4028566 3.09405869 -64.70805695 3.06702362 -63.99220276 3.03916931 C-62.32890224 2.98698892 -60.66407661 2.98814893 -59 3 C-58 4 -58 4 -57.9375 7.0625 C-57.958125 8.031875 -57.97875 9.00125 -58 10 C-62.455 10.495 -62.455 10.495 -67 11 C-67 36.74 -67 62.48 -67 89 C-51.7130811 89.81578383 -51.7130811 89.81578383 -46 83 C-44.39569047 80.18803232 -44.39569047 80.18803232 -43.16015625 77.06640625 C-42.66088623 75.87789063 -42.16161621 74.689375 -41.6472168 73.46484375 C-41.1179794 72.16446842 -40.58976862 70.86367486 -40.0625 69.5625 C-39.50504867 68.20829855 -38.94751093 66.85413268 -38.38989258 65.5 C-34.12915204 55.07823 -30.07971895 44.57156849 -26.1335144 34.02706909 C-25.50595327 32.35067775 -24.87522517 30.67546835 -24.24124146 29.00149536 C-23.35027366 26.64079762 -22.47550567 24.27472975 -21.60546875 21.90625 C-21.34049591 21.20950668 -21.07552307 20.51276337 -20.80252075 19.79490662 C-19.21159805 15.38949385 -18.74706223 11.66892025 -19 7 C-17.64455078 6.49339844 -17.64455078 6.49339844 -16.26171875 5.9765625 C-15.08222656 5.53054687 -13.90273438 5.08453125 -12.6875 4.625 C-10.92986328 3.96371094 -10.92986328 3.96371094 -9.13671875 3.2890625 C-1.13333333 0 -1.13333333 0 0 0 Z M-14 19 C-15.71307421 23.66159688 -17.42196281 28.32469814 -19.12695312 32.98925781 C-19.70782894 34.57659518 -20.28985589 36.16351177 -20.87304688 37.75 C-21.71004806 40.02755426 -22.54292756 42.30657874 -23.375 44.5859375 C-23.76872803 45.65320572 -23.76872803 45.65320572 -24.17041016 46.74203491 C-25.53239051 50.27901015 -25.53239051 50.27901015 -26 54 C-18.41 54 -10.82 54 -3 54 C-5.12754552 45.33222197 -7.30255504 36.68029015 -9.625 28.0625 C-9.83084717 27.27568848 -10.03669434 26.48887695 -10.2487793 25.67822266 C-10.77095913 23.76758168 -11.37808779 21.88054405 -12 20 C-12.66 19.67 -13.32 19.34 -14 19 Z " fill="#1F1919" transform="translate(411,40)"/>
<path d="M0 0 C0.66 0 1.32 0 2 0 C2.4640625 0.84175781 2.928125 1.68351563 3.40625 2.55078125 C8.94171191 12.52096577 14.72283617 22.33812623 20.55273438 32.13842773 C24.23180727 38.32445148 27.89760367 44.51762593 31.53125 50.73046875 C31.90616577 51.37136948 32.28108154 52.0122702 32.6673584 52.67259216 C34.4685176 55.75274112 36.26760713 58.83408121 38.06445312 61.91674805 C42.08298028 68.80007758 42.08298028 68.80007758 46.2421875 75.59863281 C46.60948975 76.18601227 46.97679199 76.77339172 47.35522461 77.37857056 C48.37613818 79.00387394 49.40462833 80.62441109 50.43359375 82.24462891 C52.83771316 86.47357087 52.83771316 86.47357087 53 89 C52.02905273 90.9375 52.02905273 90.9375 50.49609375 93 C46.62951999 98.4597402 43.36682865 104.18745538 40.0625 110 C34.13973683 120.34866228 28.08833375 130.60736054 21.92407227 140.81445312 C21.33682373 141.78705078 20.7495752 142.75964844 20.14453125 143.76171875 C19.63253174 144.60694092 19.12053223 145.45216309 18.59301758 146.32299805 C16.68777749 149.52467737 14.84845484 152.76520403 13 156 C227.83 156.495 227.83 156.495 447 157 C447 158.65 447 160.3 447 162 C446.07586333 161.99755933 445.15172666 161.99511865 444.19958586 161.99260402 C389.4535955 161.84907755 334.70781057 161.76884945 279.96162292 161.76939832 C273.39132602 161.76941012 266.82102926 161.76889965 260.25073242 161.76806641 C258.94267932 161.7679093 257.63462623 161.76775219 256.28693516 161.76759031 C235.09426018 161.76379875 213.90187729 161.71767792 192.70930087 161.65597185 C170.97114156 161.59361726 149.23328967 161.57661642 127.49505383 161.60190511 C114.07618289 161.6160805 100.65832938 161.59468677 87.23961217 161.52809784 C78.04357239 161.48584898 68.84820269 161.48757003 59.65214109 161.52415326 C54.34236581 161.54396878 49.03446789 161.54412474 43.72486877 161.49215889 C38.86476762 161.44501959 34.00800998 161.45301103 29.14798868 161.50514546 C27.38877422 161.51423471 25.62931423 161.50296341 23.87039559 161.46944699 C18.67186252 161.3768251 13.97924966 161.40476258 9 163 C6.2324018 165.99911356 4.70776313 168.68269219 3.11238438 172.42706704 C2.74529753 173.27613492 2.37821069 174.12520279 2 175 C1.34 175 0.68 175 0 175 C-0.34990968 174.15093212 -0.69981936 173.30186425 -1.06033236 172.42706704 C-2.64218096 168.60555133 -4.13363238 166.00037767 -7 163 C-13.26566115 161.12866265 -19.45845142 161.40550434 -25.95054626 161.51898193 C-27.92414834 161.50961743 -29.89773127 161.4949849 -31.87125975 161.47553754 C-37.29494676 161.43734908 -42.71595741 161.47395687 -48.13946545 161.52266955 C-53.98747618 161.5621321 -59.83517997 161.53239608 -65.68322754 161.5110321 C-75.81531039 161.48350387 -85.94656084 161.49989125 -96.0785656 161.5460434 C-110.72756861 161.61270747 -125.37612344 161.61327957 -140.02521724 161.59759203 C-163.79178285 161.57293721 -187.55798343 161.60385075 -211.32446289 161.66748047 C-234.41238651 161.72916624 -257.50012552 161.76565861 -280.58813477 161.76806641 C-281.29987875 161.76815066 -282.01162274 161.76823492 -282.74493473 161.76832173 C-289.89259915 161.76914008 -297.04026353 161.7694465 -304.187928 161.76937785 C-318.7483788 161.76924965 -333.30882817 161.77253822 -347.86927795 161.77789307 C-348.87346373 161.77825605 -348.87346373 161.77825605 -349.8979361 161.77862637 C-394.59870583 161.79517613 -439.29937004 161.89162206 -484 162 C-484 160.35 -484 158.7 -484 157 C-327.91 156.67 -171.82 156.34 -11 156 C-16.28 147.09 -21.56 138.18 -27 129 C-33.875 117.375 -33.875 117.375 -37.0078125 112.0625 C-38.99087743 108.70119851 -40.98641715 105.34779863 -42.9921875 102 C-43.45898926 101.21705566 -43.92579102 100.43411133 -44.40673828 99.62744141 C-45.2734202 98.17415035 -46.14391492 96.7231231 -47.01904297 95.27490234 C-50.763305 88.97737396 -50.763305 88.97737396 -51 86 C-49.63549805 83.25561523 -49.63549805 83.25561523 -47.57421875 80.12109375 C-46.82327297 78.95518674 -46.07380696 77.78832554 -45.32568359 76.62060547 C-44.93781677 76.0215741 -44.54994995 75.42254272 -44.15032959 74.80535889 C-42.34257481 71.96821883 -40.65228757 69.06553924 -38.95703125 66.16015625 C-38.62196564 65.58712265 -38.28690002 65.01408905 -37.94168091 64.4236908 C-37.25210513 63.24418989 -36.56317772 62.06430969 -35.87487793 60.88406372 C-34.0251779 57.71254972 -32.17038005 54.54401689 -30.31640625 51.375 C-29.94707977 50.74340469 -29.5777533 50.11180939 -29.19723511 49.46107483 C-25.38488469 42.94334761 -21.54974436 36.43916026 -17.69726562 29.94506836 C-14.90022831 25.22838297 -12.12620363 20.49976934 -9.37890625 15.75390625 C-8.78239258 14.729021 -8.18587891 13.70413574 -7.57128906 12.64819336 C-6.42010401 10.66941428 -5.27468389 8.68726734 -4.13574219 6.70141602 C-3.62301758 5.82283936 -3.11029297 4.9442627 -2.58203125 4.0390625 C-2.13061768 3.25740723 -1.6792041 2.47575195 -1.21411133 1.67041016 C-0.81345459 1.1191748 -0.41279785 0.56793945 0 0 Z M0 7 C-1.35918362 8.85463259 -1.35918362 8.85463259 -2.6953125 11.30078125 C-3.23784668 12.2441333 -3.78038086 13.18748535 -4.33935547 14.15942383 C-5.22324951 15.72019653 -5.22324951 15.72019653 -6.125 17.3125 C-7.40005691 19.53181606 -8.67613629 21.75054493 -9.953125 23.96875 C-10.28444427 24.54627518 -10.61576355 25.12380035 -10.9571228 25.71882629 C-14.53586742 31.95261733 -18.20262268 38.13349322 -21.875 44.3125 C-22.53072998 45.41899902 -23.18645996 46.52549805 -23.86206055 47.66552734 C-27.02779409 53.00599557 -30.20152707 58.34134728 -33.3939209 63.66590881 C-34.88561702 66.15513384 -36.37356669 68.64658767 -37.86114502 71.13827515 C-38.57291792 72.32806802 -39.28655245 73.51674937 -40.00213623 74.70425415 C-40.99427942 76.35086999 -41.97971428 78.00152221 -42.96484375 79.65234375 C-43.5280835 80.59070068 -44.09132324 81.52905762 -44.67163086 82.49584961 C-46.33958316 85.60422583 -46.33958316 85.60422583 -47 89 C-46.05056315 91.03475889 -46.05056315 91.03475889 -44.4921875 93.0078125 C-40.65436542 98.42760385 -37.40737961 104.10638122 -34.125 109.875 C-32.80211585 112.18437444 -31.47830148 114.49317415 -30.15234375 116.80078125 C-29.81332535 117.39102585 -29.47430695 117.98127045 -29.12501526 118.58940125 C-24.71205167 126.25820389 -20.18907449 133.86174853 -15.66210938 141.46362305 C-12.69215377 146.45169144 -9.73222256 151.44302381 -6.83984375 156.4765625 C-6.37425049 157.28343506 -5.90865723 158.09030762 -5.42895508 158.92163086 C-4.58531189 160.38762084 -3.74750153 161.85698961 -2.91674805 163.33032227 C-1.99950825 164.91991864 -1.00800864 166.46635595 0 168 C0.66 168 1.32 168 2 168 C2.71349609 166.70255859 2.71349609 166.70255859 3.44140625 165.37890625 C8.16573549 156.85563185 13.08838981 148.46743546 18.125 140.125 C25.33480953 128.17909302 32.35788671 116.1351191 39.25390625 104.00537109 C40.47742362 101.89945683 41.73871322 99.81524775 43.02734375 97.74853516 C43.67832031 96.69327637 44.32929687 95.63801758 45 94.55078125 C45.598125 93.60501221 46.19625 92.65924316 46.8125 91.68481445 C48.2343371 88.47018811 48.14452597 87.28413753 47 84 C45.75435659 81.37750762 45.75435659 81.37750762 44.1484375 78.703125 C43.55224609 77.67509766 42.95605469 76.64707031 42.34179688 75.58789062 C41.69275391 74.48638672 41.04371094 73.38488281 40.375 72.25 C39.69550665 71.08555295 39.01647786 69.9208347 38.33789062 68.75585938 C33.19138166 59.9415465 27.93634541 51.19225985 22.66137695 42.4543457 C15.60164505 30.73587913 8.79530822 18.873217 2 7 C1.34 7 0.68 7 0 7 Z " fill="#707272" transform="translate(495,3)"/>
<path d="M0 0 C11.22736652 8.61674786 17.65200245 19.05619001 20 33 C21.13474844 47.73312732 17.69168712 60.73350625 8.1875 72.18359375 C-0.5529521 81.50556786 -10.99354453 86.68175405 -23.7578125 87.28125 C-32.81143688 87.52700342 -41.51137608 87.49842199 -50 84 C-51.00417969 83.58621094 -52.00835938 83.17242187 -53.04296875 82.74609375 C-65.72129171 76.96603844 -71.7734781 68.5523393 -77 56 C-81.41446048 43.54141155 -79.20881839 29.85716476 -74 18 C-67.66674759 6.20835887 -57.33894572 -3.00742213 -44.5 -6.875 C-29.33819926 -10.16168713 -12.97688697 -9.00299598 0 0 Z M-50.53125 10.45703125 C-57.97210199 23.33999573 -59.09648551 39.26452099 -55.8125 53.625 C-52.84315722 63.57368586 -47.47875575 72.78152848 -38.25 77.9375 C-32.08025095 80.71758153 -26.8287251 81.23470721 -20.359375 79.1484375 C-12.23214585 75.57148335 -8.22453842 70.17640221 -4.75 62.1875 C0.48851103 47.95621169 0.15604067 33.88856762 -5.25390625 19.71484375 C-9.50236195 10.55809047 -15.14248896 3.30465806 -24.78515625 -0.37109375 C-35.42660979 -3.39274105 -44.38829963 1.80764123 -50.53125 10.45703125 Z " fill="#2D3E6C" transform="translate(726,50)"/>
<path d="M0 0 C11.58563335 8.89170948 17.9380538 19.58446386 20 34 C21.14714687 48.31112738 17.39126006 61.09544316 8.1875 72.18359375 C-0.5529521 81.50556786 -10.99354453 86.68175405 -23.7578125 87.28125 C-32.81143688 87.52700342 -41.51137608 87.49842199 -50 84 C-51.00417969 83.58621094 -52.00835938 83.17242187 -53.04296875 82.74609375 C-65.72129171 76.96603844 -71.7734781 68.5523393 -77 56 C-81.41446048 43.54141155 -79.20881839 29.85716476 -74 18 C-67.66674759 6.20835887 -57.33894572 -3.00742213 -44.5 -6.875 C-29.33819926 -10.16168713 -12.97688697 -9.00299598 0 0 Z M-49.7578125 9.05078125 C-55.30199224 17.75061046 -57.38409336 27.05053988 -57.3125 37.25 C-57.30758545 38.08192871 -57.3026709 38.91385742 -57.29760742 39.77099609 C-57.05661892 52.51743383 -53.48700092 63.87823301 -44.78515625 73.42578125 C-39.26920445 78.28995757 -32.88881371 80.91709893 -25.515625 80.4765625 C-19.07623451 79.25667797 -13.75999037 76.43448556 -9.625 71.3125 C-1.44319745 58.97045887 0.53107619 44.52088158 -2.125 30.1875 C-4.62901532 19.39111769 -9.01552344 9.83280118 -18 3 C-29.39116272 -4.0222229 -41.54011433 -1.65079744 -49.7578125 9.05078125 Z " fill="#2D3E6C" transform="translate(834,50)"/>
<path d="M0 0 C0.66 -1.32 1.32 -2.64 2 -4 C3.65 -3.67 5.3 -3.34 7 -3 C7.50567374 1.20767175 8.0035354 5.41623253 8.5 9.625 C8.64308594 10.81480469 8.78617187 12.00460938 8.93359375 13.23046875 C9.06894531 14.38417969 9.20429687 15.53789063 9.34375 16.7265625 C9.53227539 18.31331787 9.53227539 18.31331787 9.72460938 19.93212891 C9.99759627 22.97322227 10.04799174 25.94852512 10 29 C8.35 29.33 6.7 29.66 5 30 C4.25556641 28.49759766 4.25556641 28.49759766 3.49609375 26.96484375 C-2.4818037 15.1587928 -8.01522438 7.32825854 -21 3 C-29.52342781 2.16319783 -37.1297017 2.4466124 -44 8 C-53.25174492 19.2136534 -53.03243868 33.20334498 -52 47 C-50.66797169 57.02740092 -46.60607877 66.43864805 -38.65234375 72.91015625 C-30.88253864 78.25426611 -24.35078545 78.69551297 -15 78 C-4.98194991 75.84658736 2.04156215 71.38016136 9 64 C10.485 64.99 10.485 64.99 12 66 C11.36735581 72.61292229 6.47256849 76.53083157 1.70898438 80.67382812 C-10.40550442 90.07467143 -23.27927066 90.83359835 -38 90 C-48.24381361 88.51866421 -59.01582992 82.06115155 -65.5546875 74.109375 C-73.96072477 62.4831145 -76.70753772 47.89059488 -74.50390625 33.8359375 C-71.45024692 20.48264753 -64.91520091 9.79365802 -53.75 1.625 C-36.54320858 -8.79976864 -18.07392128 -6.02464043 0 0 Z " fill="#1E1919" transform="translate(90,47)"/>
<path d="M0 0 C0.33 -1.65 0.66 -3.3 1 -5 C2.66611905 -5.042721 4.33382885 -5.04063832 6 -5 C7.91683875 -3.08316125 7.51530552 0.31654192 7.75390625 2.87890625 C7.81907944 3.5655687 7.88425262 4.25223114 7.95140076 4.95970154 C8.15928893 7.16026435 8.36095738 9.36134782 8.5625 11.5625 C8.70206573 13.05147061 8.84203442 14.54040351 8.98242188 16.02929688 C9.32629738 19.6857713 9.66459582 23.34273768 10 27 C7 29 7 29 4 29 C3.55269531 28.05898437 3.10539063 27.11796875 2.64453125 26.1484375 C2.03429463 24.89041125 1.42359253 23.63261071 0.8125 22.375 C0.52052734 21.75753906 0.22855469 21.14007813 -0.07226562 20.50390625 C-3.18406201 14.14647277 -6.79075827 9.28381558 -13.0625 5.6875 C-13.89910156 5.19636719 -14.73570312 4.70523438 -15.59765625 4.19921875 C-21.75639918 1.12485439 -29.51844861 0.89983576 -36.1640625 2.53125 C-43.32066376 5.43172276 -46.77144529 9.54207346 -49.9296875 16.375 C-55.4580458 29.93360138 -53.9028578 45.2250514 -49.00390625 58.75 C-45.54086401 66.61074641 -39.97957233 71.55103241 -32.75 76 C-22.9463 78.61432 -12.86173474 77.51819854 -3.8515625 72.8984375 C0.85219786 70.1050166 4.96073044 66.67321075 9 63 C9.99 63.99 10.98 64.98 12 66 C7.57530097 75.59393876 -1.3180386 82.59318407 -10.8125 86.875 C-23.22755305 91.25678343 -39.12570221 90.49166023 -51 85 C-63.27027471 78.16395133 -69.65510204 68.82343716 -74.11328125 55.73046875 C-77.10825558 43.13046662 -75.84911012 28.78153915 -69.57421875 17.41796875 C-68.14246067 15.18708988 -66.62498864 13.09291731 -65 11 C-64.236875 9.948125 -63.47375 8.89625 -62.6875 7.8125 C-47.4313155 -8.15327448 -18.95384382 -11.37230629 0 0 Z " fill="#2D3E6C" transform="translate(633,48)"/>
<path d="M0 0 C1.29997925 0.00303635 1.29997925 0.00303635 2.6262207 0.00613403 C3.51027588 0.00517731 4.39433105 0.00422058 5.30517578 0.00323486 C7.178142 0.00255302 9.05111056 0.0044076 10.92407227 0.00857544 C13.80140458 0.01392364 16.67858078 0.0086306 19.5559082 0.00222778 C21.37101272 0.00288856 23.18611713 0.00416972 25.0012207 0.00613403 C25.86787354 0.0041098 26.73452637 0.00208557 27.62744141 0 C33.69877061 0.02399644 33.69877061 0.02399644 34.8137207 1.13894653 C34.9387207 3.63894653 34.9387207 3.63894653 34.8137207 6.13894653 C32.17848932 8.77417792 27.52200537 7.76811807 23.8137207 8.13894653 C23.4837207 33.87894653 23.1537207 59.61894653 22.8137207 86.13894653 C40.03218737 87.12960505 40.03218737 87.12960505 55.59887695 80.44754028 C56.23116211 79.52134888 56.23116211 79.52134888 56.8762207 78.57644653 C57.59358398 77.53810669 57.59358398 77.53810669 58.32543945 76.47879028 C60.90964726 72.41595439 63.40459058 68.30793767 65.8137207 64.13894653 C67.4637207 64.46894653 69.1137207 64.79894653 70.8137207 65.13894653 C69.74841993 71.75502504 68.36345783 78.26252015 66.7512207 84.76394653 C66.48970215 85.83032349 66.48970215 85.83032349 66.22290039 86.91824341 C64.93753284 92.0151344 64.93753284 92.0151344 63.8137207 93.13894653 C61.57442184 93.23331183 59.3321032 93.25636981 57.09082031 93.25247192 C56.38841721 93.25261795 55.6860141 93.25276398 54.96232605 93.25291443 C52.63020792 93.25221526 50.29816871 93.2444227 47.96606445 93.23660278 C46.35323632 93.23473862 44.74040763 93.23331471 43.12757874 93.23231506 C38.87456713 93.22848976 34.62158947 93.21865938 30.36859131 93.20761108 C26.0319464 93.19739722 21.69529603 93.1928175 17.35864258 93.18777466 C8.84365301 93.17703712 0.32869108 93.15996056 -8.1862793 93.13894653 C-8.1862793 90.82894653 -8.1862793 88.51894653 -8.1862793 86.13894653 C-3.7312793 85.64394653 -3.7312793 85.64394653 0.8137207 85.13894653 C0.8137207 59.72894653 0.8137207 34.31894653 0.8137207 8.13894653 C-1.8262793 7.80894653 -4.4662793 7.47894653 -7.1862793 7.13894653 C-7.22882286 5.13939907 -7.22708713 3.13853017 -7.1862793 1.13894653 C-5.29004728 -0.75728549 -2.5225757 0.00997028 0 0 Z " fill="#1E1919" transform="translate(115.186279296875,42.861053466796875)"/>
<path d="M0 0 C1.29997925 0.00303635 1.29997925 0.00303635 2.6262207 0.00613403 C3.51027588 0.00517731 4.39433105 0.00422058 5.30517578 0.00323486 C7.178142 0.00255302 9.05111056 0.0044076 10.92407227 0.00857544 C13.80140458 0.01392364 16.67858078 0.0086306 19.5559082 0.00222778 C21.37101272 0.00288856 23.18611713 0.00416972 25.0012207 0.00613403 C25.86787354 0.0041098 26.73452637 0.00208557 27.62744141 0 C33.69877061 0.02399644 33.69877061 0.02399644 34.8137207 1.13894653 C34.85452853 3.13853017 34.85626427 5.13939907 34.8137207 7.13894653 C31.5137207 7.46894653 28.2137207 7.79894653 24.8137207 8.13894653 C23.6959772 24.02300166 23.69150946 39.87637449 23.74505615 55.79373169 C23.75546859 59.22715625 23.7598913 62.66058871 23.76489258 66.09402466 C23.77579385 72.77568511 23.79243223 79.45731152 23.8137207 86.13894653 C27.52263461 86.0284606 31.23058881 85.8979754 34.9387207 85.76394653 C35.98543945 85.73300903 37.0321582 85.70207153 38.1105957 85.67019653 C46.98120123 85.48503934 46.98120123 85.48503934 54.7199707 81.58035278 C59.29337688 76.1886656 62.64626939 70.45064438 65.8137207 64.13894653 C67.4637207 64.46894653 69.1137207 64.79894653 70.8137207 65.13894653 C70.36739636 71.27590619 69.22367484 77.1004778 67.8137207 83.07644653 C67.63550781 83.83433472 67.45729492 84.5922229 67.27368164 85.37307739 C65.94998524 90.86641746 65.94998524 90.86641746 64.8137207 93.13894653 C55.44336132 93.16207157 46.07301169 93.17986244 36.70263004 93.19075871 C32.35203611 93.19598718 28.00146164 93.20308418 23.65087891 93.21438599 C19.45581813 93.22521613 15.26077611 93.23122363 11.06570244 93.23382378 C9.46165102 93.2356778 7.85760068 93.23929797 6.25355721 93.24467659 C4.01455555 93.25188872 1.77563241 93.2529374 -0.46337891 93.25247192 C-1.74023056 93.25469254 -3.01708221 93.25691315 -4.33262634 93.25920105 C-7.1862793 93.13894653 -7.1862793 93.13894653 -8.1862793 92.13894653 C-8.3112793 89.63894653 -8.3112793 89.63894653 -8.1862793 87.13894653 C-5.78257845 84.73524568 -1.56483434 85.51434154 1.8137207 85.13894653 C1.8137207 59.39894653 1.8137207 33.65894653 1.8137207 7.13894653 C-0.8262793 7.13894653 -3.4662793 7.13894653 -6.1862793 7.13894653 C-7.1862793 6.13894653 -7.1862793 6.13894653 -7.3112793 3.63894653 C-7.06800076 -1.22662413 -4.1993995 0.01659779 0 0 Z " fill="#2D3E6C" transform="translate(864.186279296875,42.861053466796875)"/>
<path d="M0 0 C0.86351578 0.00202423 1.72703156 0.00404846 2.61671448 0.00613403 C3.49839798 0.00517731 4.38008148 0.00422058 5.28848267 0.00323486 C7.15725272 0.00255295 9.02602512 0.00440802 10.89479065 0.00857544 C13.761137 0.01391721 16.6273262 0.00863412 19.4936676 0.00222778 C21.30551691 0.00288869 23.11736612 0.0041701 24.92921448 0.00613403 C26.2214518 0.00309769 26.2214518 0.00309769 27.53979492 0 C33.60946195 0.02399214 33.60946195 0.02399214 35.83937073 1.13894653 C35.88209173 2.80506558 35.88000905 4.47277538 35.83937073 6.13894653 C33.79238659 8.18593067 29.53525832 7.83940347 26.83937073 8.13894653 C25.73704127 33.90003426 25.82422888 59.3851219 26.83937073 85.13894653 C29.80937073 85.46894653 32.77937073 85.79894653 35.83937073 86.13894653 C35.83937073 88.44894653 35.83937073 90.75894653 35.83937073 93.13894653 C30.0186545 93.16359291 24.19796839 93.18178083 18.37721252 93.19387817 C16.39543631 93.19891921 14.41366384 93.20575191 12.43190002 93.21438599 C9.58984964 93.22646168 6.74784825 93.23217698 3.90577698 93.23660278 C2.56828148 93.24434471 2.56828148 93.24434471 1.20376587 93.25224304 C-0.91803529 93.2524383 -3.03973707 93.20104683 -5.16062927 93.13894653 C-6.16062927 92.13894653 -6.16062927 92.13894653 -6.22312927 89.07644653 C-6.20250427 88.10707153 -6.18187927 87.13769653 -6.16062927 86.13894653 C-1.70562927 85.64394653 -1.70562927 85.64394653 2.83937073 85.13894653 C3.81284217 81.24506076 3.96621494 78.19439094 3.96876526 74.19900513 C3.97051758 73.5091301 3.9722699 72.81925507 3.97407532 72.10847473 C3.97846642 69.83475203 3.97556615 67.56110748 3.97218323 65.28738403 C3.9728569 63.70605454 3.97382746 62.12472514 3.9750824 60.543396 C3.97655552 57.23311373 3.9744166 53.92285847 3.96974182 50.61257935 C3.96403542 46.36426846 3.96733172 42.11602062 3.97331429 37.86771202 C3.97692233 34.60442629 3.97578035 31.34115559 3.97318649 28.07786942 C3.97251838 26.51093158 3.97334162 24.94399238 3.97566605 23.37705612 C3.97819755 21.19136672 3.97434535 19.00578056 3.96876526 16.82009888 C3.96796967 15.57529755 3.96717407 14.33049622 3.96635437 13.04797363 C4.04015078 10.20068821 4.04015078 10.20068821 2.83937073 8.13894653 C0.48337838 7.67142866 0.48337838 7.67142866 -2.22312927 7.51394653 C-3.14223083 7.43918091 -4.0613324 7.36441528 -5.00828552 7.28738403 C-5.71855896 7.23839966 -6.4288324 7.18941528 -7.16062927 7.13894653 C-7.20317284 5.13939907 -7.2014371 3.13853017 -7.16062927 1.13894653 C-5.26889234 -0.7527904 -2.51659162 0.00998704 0 0 Z " fill="#1E1919" transform="translate(192.16062927246094,42.861053466796875)"/>
<path d="M0 0 C2.76539239 3.19017053 4.2725919 6.67861423 5.95629883 10.49829102 C9.70373234 18.97323059 13.637955 25.45363864 19.82421875 32.37109375 C24.71650128 38.28223584 26.75136017 44.8430623 26.37890625 52.484375 C25.28567311 59.74254144 22.6835812 65.1915831 16.9765625 69.84375 C9.45909794 74.2413182 0.10431429 74.05390725 -8.28515625 72.60546875 C-14.30766558 70.47907024 -18.63056132 64.67933655 -21.4375 59.1875 C-22.94732583 50.63182029 -22.70139807 44.74396795 -17.77734375 37.3984375 C-16.05192782 35.07007403 -14.2932277 32.7764806 -12.5 30.5 C-4.70853406 20.58829 -1.74474737 12.33567 0 0 Z " fill="#346399" transform="translate(494,46)"/>
<path d="M0 0 C2.76539239 3.19017053 4.2725919 6.67861423 5.95629883 10.49829102 C9.70373234 18.97323059 13.637955 25.45363864 19.82421875 32.37109375 C24.71650128 38.28223584 26.75136017 44.8430623 26.37890625 52.484375 C25.28567311 59.74254144 22.6835812 65.1915831 16.9765625 69.84375 C9.45909794 74.2413182 0.10431429 74.05390725 -8.28515625 72.60546875 C-14.30766558 70.47907024 -18.63056132 64.67933655 -21.4375 59.1875 C-22.71022339 51.97540081 -23.11943475 45.35079523 -19 39 C-16.96150249 41.42678275 -15.81539953 43.46150117 -14.625 46.4375 C-12.27241437 51.59509158 -9.94303989 54.19345514 -4.6875 56.375 C-0.17575825 55.91617881 0.4151158 54.89554161 3.3125 51.5625 C3.96863281 50.71816406 4.62476563 49.87382813 5.30078125 49.00390625 C5.86152344 48.34261719 6.42226563 47.68132812 7 47 C7.66 47 8.32 47 9 47 C9.33 40.73 9.66 34.46 10 28 C14 32 14 32 14.49609375 34.4453125 C14.26896466 44.83268311 12.29195901 53.28015098 5 61 C1.65764597 64.11362782 -1.27009762 64.60511269 -5.75 65.1875 C-6.92046875 65.34605469 -8.0909375 65.50460938 -9.296875 65.66796875 C-10.63492187 65.83232422 -10.63492187 65.83232422 -12 66 C-6.11954361 70.18165788 -1.1629174 71.06420487 6 70 C8.95074064 68.9236292 11.29221784 67.63488734 14 66 C13.46890625 66.16371094 12.9378125 66.32742187 12.390625 66.49609375 C9.46123236 67.11356377 6.74177064 67.09501925 3.75 67.0625 C2.67234375 67.05347656 1.5946875 67.04445313 0.484375 67.03515625 C-0.74539063 67.01775391 -0.74539063 67.01775391 -2 67 C-2 66.67 -2 66.34 -2 66 C-1.33613281 65.93683594 -0.67226563 65.87367187 0.01171875 65.80859375 C6.29244459 64.9705942 6.29244459 64.9705942 10.9375 61 C15.09510898 53.91884266 16.34956318 46.06541661 17 38 C19.44710376 39.86977097 19.96931493 40.82502483 20.51171875 43.91796875 C20.56972656 44.99691406 20.62773438 46.07585937 20.6875 47.1875 C20.78611328 48.81751953 20.78611328 48.81751953 20.88671875 50.48046875 C20.94279297 51.72763672 20.94279297 51.72763672 21 53 C21.70166783 40.3180037 17.68510008 34.0829962 9.59375 24.953125 C4 18.58433735 4 18.58433735 4 16 C3.360625 15.814375 2.72125 15.62875 2.0625 15.4375 C0 14 0 14 -0.8125 10.8125 C-0.99829697 7.03462831 -0.68188776 3.71250005 0 0 Z " fill="#1F4C88" transform="translate(494,46)"/>
<path d="M0 0 C4 4 4 4 4.49609375 6.4453125 C4.26896466 16.83268311 2.29195901 25.28015098 -5 33 C-8.59679202 36.04234582 -11.24861588 36.74992715 -16 37 C-21.96405592 35.43798535 -25.6866251 31.86500547 -28.8125 26.6875 C-30.92582704 22.63417874 -31.72457528 19.61916741 -31 15 C-29.46875 12.80078125 -29.46875 12.80078125 -28 11 C-27.75765625 11.66386719 -27.5153125 12.32773438 -27.265625 13.01171875 C-24.70470387 20.19463857 -24.70470387 20.19463857 -20 26 C-17.03514161 26.97115812 -14.08510367 27.55832918 -11 28 C-10.44570313 27.3503125 -9.89140625 26.700625 -9.3203125 26.03125 C-8.59585937 25.1959375 -7.87140625 24.360625 -7.125 23.5 C-6.04605469 22.24703125 -6.04605469 22.24703125 -4.9453125 20.96875 C-4.30335938 20.3190625 -3.66140625 19.669375 -3 19 C-2.34 19 -1.68 19 -1 19 C-0.67 12.73 -0.34 6.46 0 0 Z " fill="#4F73A5" transform="translate(504,74)"/>
<path d="M0 0 C3.63675531 0.0790599 5.50781228 0.61143074 8.375 2.875 C10.80959281 7.55690926 10.74069186 11.83027313 10 17 C9.02315329 19.87566112 8.2591728 20.80027911 6 23 C2.9375 23.5625 2.9375 23.5625 0 23 C-2.56755954 21.1660289 -3.96040156 18.95885711 -5 16 C-5.45817887 10.318582 -5.07319124 6.96438584 -2 2 C-1.34 1.34 -0.68 0.68 0 0 Z " fill="#B0BBDA" transform="translate(487,70)"/>
<path d="M0 0 C3.83424653 0.5477495 5.53869759 2.06231647 8 5 C11.86142282 10.51631831 11.90521199 16.51403155 11 23 C9.19827862 27.78388092 7.27817422 31.14788386 3 34 C-0.3125 34.5625 -0.3125 34.5625 -4 34 C-9.1830196 30.12451489 -11.08192482 25.22250958 -12 19 C-11.33958953 14.99914122 -9.31760894 12.28950947 -7 9 C-6.67 9.66 -6.34 10.32 -6 11 C-6.33 11.66 -6.66 12.32 -7 13 C-7.26186347 18.2372694 -6.97513861 22.06215348 -5 27 C-2.14647085 27.23389583 0.20284991 27.40826254 3 27 C6.24547494 24.05878833 6.27431565 20.68080255 6.5 16.5 C6.39117456 12.45713496 6.21876559 11.29776428 3.75 7.9375 C1.52968401 6.37318646 -0.48991505 5.0226272 -3 4 C-2.01 2.68 -1.02 1.36 0 0 Z " fill="#7E93BD" transform="translate(490,65)"/>
<path d="M0 0 C3.6578218 2.03993908 5.66946174 3.50419262 8 7 C8.67048591 10.1150894 8.69975948 12.8881908 8 16 C5.44421647 19.46753776 2.36742705 21.47907541 -1.625 23 C-6.29652401 23 -8.45323752 21.52246193 -11.8125 18.3125 C-14.39352911 14.40408449 -14.66828435 12.59445492 -14 8 C-11.30432723 1.75738939 -6.76568273 -0.9665261 0 0 Z M-9 6 C-10.43155899 7.21589984 -10.43155899 7.21589984 -10.3125 10.8125 C-10.26301716 13.87493788 -10.09927904 14.84726301 -8.375 17.5 C-5.27859404 19.45562482 -3.60146865 19.60024477 0 19 C2.54002013 17.62716577 2.54002013 17.62716577 4 15 C4.63268453 11.46691896 4.74586577 8.21693889 2.8125 5.0625 C-1.94848694 2.27157662 -4.59693019 2.82000514 -9 6 Z " fill="#1C1A1A" transform="translate(952,42)"/>
<path d="M0 0 C0.33 0.66 0.66 1.32 1 2 C1.62519531 2.30292969 2.25039063 2.60585938 2.89453125 2.91796875 C6.72196368 4.88494237 8.38910275 8.10749735 10 12 C11.57431049 19.57577289 11.87380115 27.10748424 8 34 C5.84053165 36.85375418 3.52247904 39.46369916 1 42 C-3.09437391 41.63605565 -6.67270329 41.13808041 -9.86328125 38.40234375 C-13.45266625 33.9222925 -15.90315296 28.83503401 -16 23 C-15.34 22.34 -14.68 21.68 -14 21 C-13.84144531 21.65226562 -13.68289063 22.30453125 -13.51953125 22.9765625 C-11.97051341 28.77896082 -10.61016487 33.01849397 -6 37 C-2.45704496 37.83345815 -2.45704496 37.83345815 1 37 C4.62288473 34.38347214 6.50936278 31.17378421 8 27 C8.77050927 20.40889656 8.66533507 14.40027399 5.2890625 8.55859375 C3.2722833 6.12012436 0.92563217 5.06386624 -2 4 C-1.34 2.68 -0.68 1.36 0 0 Z " fill="#6B85B3" transform="translate(492,61)"/>
<path d="M0 0 C3.79390529 3.56397164 6.95165845 7.39488159 10.09765625 11.5390625 C11.40352948 13.22838516 12.74721048 14.88894654 14.12109375 16.5234375 C21.23293658 25.00545188 23.6134399 30.91264184 23 42 C22.01 42.495 22.01 42.495 21 43 C20.99742187 42.17757812 20.99484375 41.35515625 20.9921875 40.5078125 C20.67463994 31.34127292 18.58500125 24.58500125 12 18 C11.93941406 19.04800781 11.87882812 20.09601563 11.81640625 21.17578125 C11.73198262 22.55470048 11.64733553 23.93360605 11.5625 25.3125 C11.50352539 26.34793945 11.50352539 26.34793945 11.44335938 27.40429688 C11.25072585 30.47161535 10.97677283 33.06968152 10 36 C9.34 36 8.68 36 8 36 C8.09539062 35.0821875 8.19078125 34.164375 8.2890625 33.21875 C9.19415424 23.19959496 9.38830302 16.26721567 3 8 C2.236875 7.29875 1.47375 6.5975 0.6875 5.875 C-0.1478125 4.946875 -0.1478125 4.946875 -1 4 C-0.75 1.75 -0.75 1.75 0 0 Z " fill="#5C7CAD" transform="translate(493,57)"/>
<path d="M0 0 C3.63675531 0.0790599 5.50781228 0.61143074 8.375 2.875 C10.80959281 7.55690926 10.74069186 11.83027313 10 17 C9.02315329 19.87566112 8.2591728 20.80027911 6 23 C2.9375 23.5625 2.9375 23.5625 0 23 C-2.56755954 21.1660289 -3.96040156 18.95885711 -5 16 C-5.45817887 10.318582 -5.07319124 6.96438584 -2 2 C-1.34 1.34 -0.68 0.68 0 0 Z M-0.6328125 4.2265625 C-3.08734726 7.41044473 -3.11690608 11.08020804 -3 15 C-2.00804027 18.01981101 -2.00804027 18.01981101 0 20 C2.08533633 20.87822312 2.08533633 20.87822312 4 21 C6.85807336 18.14192664 8.31732129 16.01893158 8.5 12 C8.29405834 7.97269633 7.01566012 5.75717496 4 3 C1.05940567 2.69969404 1.05940567 2.69969404 -0.6328125 4.2265625 Z " fill="#A0AFD3" transform="translate(487,70)"/>
<path d="M0 0 C4.42326378 1.35155282 6.40412982 3.19890438 9 7 C10.75037195 12.25111584 10.78794959 17.70635442 8.6875 22.875 C6.05313496 27.75345377 6.05313496 27.75345377 4 29 C0.5625 29.5 0.5625 29.5 -3 29 C-5.7066794 26.2933206 -7.92103847 23.74978759 -8.09765625 19.8359375 C-8.08605469 19.02382812 -8.07445312 18.21171875 -8.0625 17.375 C-8.05347656 16.55773437 -8.04445313 15.74046875 -8.03515625 14.8984375 C-8.02355469 14.27195312 -8.01195312 13.64546875 -8 13 C-7.67 13 -7.34 13 -7 13 C-6 17 -5 21 -4 25 C-1.14647085 25.23389583 1.20284991 25.40826254 4 25 C7.24547494 22.05878833 7.27431565 18.68080255 7.5 14.5 C7.39117456 10.45713496 7.21876559 9.29776428 4.75 5.9375 C2.52968401 4.37318646 0.51008495 3.0226272 -2 2 C-1.34 1.34 -0.68 0.68 0 0 Z " fill="#8E9FC5" transform="translate(489,67)"/>
<path d="M0 0 C2.10310673 2.65831191 3.6933862 5.21367546 5.0859375 8.30078125 C5.45976562 9.11353516 5.83359375 9.92628906 6.21875 10.76367188 C6.98384176 12.45023395 7.74689509 14.13772237 8.5078125 15.82617188 C10.89479198 21.00477291 13.53642092 25.46552633 17 30 C12.54566366 29.16349113 11.06543845 27.10019962 8.25 23.5625 C7.45078125 22.57378906 6.6515625 21.58507812 5.828125 20.56640625 C4 18 4 18 4 16 C3.360625 15.814375 2.72125 15.62875 2.0625 15.4375 C0 14 0 14 -0.8125 10.8125 C-0.99829697 7.03462831 -0.68188776 3.71250005 0 0 Z " fill="#496EA1" transform="translate(494,46)"/>
<path d="M0 0 C0.33 0 0.66 0 1 0 C1.17015625 0.58007812 1.3403125 1.16015625 1.515625 1.7578125 C3.92915034 9.53758034 6.8440473 15.27880274 14.25 19.1875 C14.8275 19.455625 15.405 19.72375 16 20 C14.02 20.33 12.04 20.66 10 21 C10.99 21.99 11.98 22.98 13 24 C11.68 24.33 10.36 24.66 9 25 C1.87443235 17.49338595 -0.26455783 12.60131236 -0.0703125 2.1953125 C-0.04710937 1.47085938 -0.02390625 0.74640625 0 0 Z " fill="#39659B" transform="translate(472,91)"/>
<path d="M0 0 C0.80786855 3.83737562 1 7.06408544 1 11 C-0.32 10.67 -1.64 10.34 -3 10 C-3 9.01 -3 8.02 -3 7 C-3.66 7 -4.32 7 -5 7 C-5 8.32 -5 9.64 -5 11 C-6.32 10.67 -7.64 10.34 -9 10 C-9 6.7 -9 3.4 -9 0 C-5.93109813 -1.53445094 -3.29905734 -0.54984289 0 0 Z M-5 2 C-5 2.66 -5 3.32 -5 4 C-4.34 4 -3.68 4 -3 4 C-3 3.34 -3 2.68 -3 2 C-3.66 2 -4.32 2 -5 2 Z " fill="#1B1A19" transform="translate(953,48)"/>
<path d="M0 0 C2.24606427 1.77444972 2.95081002 2.58352485 3.29296875 5.48046875 C3.25816406 6.37378906 3.22335937 7.26710938 3.1875 8.1875 C3.16042969 9.08855469 3.13335938 9.98960938 3.10546875 10.91796875 C3.07066406 11.60503906 3.03585937 12.29210937 3 13 C2.34 13 1.68 13 1 13 C0.73445313 13.68707031 0.46890625 14.37414062 0.1953125 15.08203125 C-0.15789062 15.98308594 -0.51109375 16.88414063 -0.875 17.8125 C-1.22304688 18.70582031 -1.57109375 19.59914063 -1.9296875 20.51953125 C-3 23 -3 23 -5 26 C-4.67 26.66 -4.34 27.32 -4 28 C-7.28519475 29.09506492 -9.73663415 29.09960608 -13.1875 29.0625 C-14.81751953 29.04896484 -14.81751953 29.04896484 -16.48046875 29.03515625 C-17.31191406 29.02355469 -18.14335937 29.01195313 -19 29 C-19 28.67 -19 28.34 -19 28 C-18.33613281 27.93683594 -17.67226563 27.87367187 -16.98828125 27.80859375 C-10.70755541 26.9705942 -10.70755541 26.9705942 -6.0625 23 C-1.90489102 15.91884266 -0.65043682 8.06541661 0 0 Z " fill="#265B95" transform="translate(511,84)"/>
<path d="M0 0 C0.81339844 0.16242188 1.62679688 0.32484375 2.46484375 0.4921875 C6.53643948 1.07705761 10.45709912 1.14651302 14.5625 1.125 C15.30435547 1.12886719 16.04621094 1.13273437 16.81054688 1.13671875 C20.66500306 1.12985418 24.25431062 0.93456804 28 0 C24.53149748 3.85389169 21.53592295 5.67833426 16.3515625 6.3359375 C9.97853271 6.42724165 6.16689287 5.81900778 1 2 C0.67 1.34 0.34 0.68 0 0 Z " fill="#DEE5EE" transform="translate(481,111)"/>
<path d="M0 0 C3.875 0.875 3.875 0.875 5 2 C5.27314815 7.73611111 5.27314815 7.73611111 5 10 C4.34 10.66 3.68 11.32 3 12 C0.9375 11.75 0.9375 11.75 -1 11 C-2.38550197 8.22899606 -2.1877467 6.0665294 -2 3 C-1.34 2.01 -0.68 1.02 0 0 Z " fill="#CAD2E7" transform="translate(488,76)"/>
<path d="M0 0 C6.29755199 5.92710775 12.72760395 12.54032217 13.109375 21.59375 C13.12326888 24.06686093 13.08791457 26.52862366 13 29 C12.34 29.33 11.68 29.66 11 30 C10.99613281 28.76636719 10.99613281 28.76636719 10.9921875 27.5078125 C10.61028795 16.48364548 6.80478231 10.37511669 0 2 C0 1.34 0 0.68 0 0 Z " fill="#EAEDF4" transform="translate(503,70)"/>
<path d="M0 0 C0.99 0.495 0.99 0.495 2 1 C2.226875 1.680625 2.45375 2.36125 2.6875 3.0625 C4.97025198 8.17151634 9.07233463 12.07233463 13 16 C11.68 16.33 10.36 16.66 9 17 C3.63082495 11.73131753 0.85545229 7.5419467 0 0 Z " fill="#2B5F99" transform="translate(472,99)"/>
<path d="M0 0 C2.475 0.495 2.475 0.495 5 1 C4.125 5.75 4.125 5.75 3 8 C2.34 8 1.68 8 1 8 C-0.35439668 5.29120665 -0.06501451 2.99066732 0 0 Z " fill="#D6DDED" transform="translate(486,79)"/>
<path d="M0 0 C2.71843438 3.62457917 3.41789544 4.80884715 4 9 C2.35 9.33 0.7 9.66 -1 10 C-0.67 6.7 -0.34 3.4 0 0 Z " fill="#315D92" transform="translate(494,46)"/>
<path d="M0 0 C0.33 0.66 0.66 1.32 1 2 C1.66 2 2.32 2 3 2 C2.34 3.98 1.68 5.96 1 8 C0.01 6.68 -0.98 5.36 -2 4 C-1.34 2.68 -0.68 1.36 0 0 Z " fill="#6B6D6E" transform="translate(542,92)"/>
<path d="M0 0 C2.93200474 2.85276137 5.64315404 5.65079784 8 9 C7.01 9 6.02 9 5 9 C3.61328125 7.5390625 3.61328125 7.5390625 2.3125 5.625 C1.65701172 4.68527344 1.65701172 4.68527344 0.98828125 3.7265625 C0 2 0 2 0 0 Z " fill="#C5D0E2" transform="translate(503,70)"/>
<path d="M0 0 C3.82946843 1.45255699 5.12050295 3.42895561 7 7 C4.20171644 6.61402985 3.1794116 6.19863427 1.25 4.0625 C0 2 0 2 0 0 Z " fill="#38659D" transform="translate(504,69)"/>
</svg>
