<?xml version="1.0" encoding="UTF-8"?>
<svg version="1.1" xmlns="http://www.w3.org/2000/svg" width="225" height="225">
<path d="M0 0 C74.25 0 148.5 0 225 0 C225 74.25 225 148.5 225 225 C150.75 225 76.5 225 0 225 C0 150.75 0 76.5 0 0 Z " fill="#FEFEFE" transform="translate(0,0)"/>
<path d="M0 0 C6.86276462 4.02299995 10.85448596 9.02604882 13.03125 16.68359375 C14.62921254 24.3671303 13.37818925 31.53051647 9.05859375 38.14453125 C4.10729703 44.33652414 -0.99105819 47.38890337 -8.87109375 48.34765625 C-17.9766686 48.72991397 -23.8278937 47.23224387 -30.53125 41.0703125 C-36.80612436 34.46112107 -38.06126411 27.89397367 -37.87109375 18.93359375 C-36.91281654 11.19676619 -32.30488448 6.2448914 -26.5625 1.34765625 C-18.91248806 -3.88274964 -8.28076252 -3.81995722 0 0 Z " fill="#066FC1" transform="translate(196.5,90.0625)"/>
<path d="M0 0 C3.3737101 2.05056357 6.22043124 4.44086248 8 8 C8.32144525 12.81222441 7.99971191 17.28707244 7 22 C7.33 22.66 7.66 23.32 8 24 C8.56645111 28.64304187 8.42123314 32.12513117 6.375 36.375 C3.19429161 39.8905198 0.64260016 41.75803841 -4.17578125 42.19921875 C-8.5682015 42.05895659 -11.42051946 41.20448054 -14.5625 38.0625 C-17.8511858 33.66547257 -17.69796028 29.2744593 -17 24 C-16.80664062 23.27941406 -16.61328125 22.55882813 -16.4140625 21.81640625 C-15.78348712 19.93707311 -15.78348712 19.93707311 -16.9375 18.125 C-18.41743424 15.16513151 -18.38666042 13.28661357 -18 10 C-16.56249946 6.34797161 -14.75078737 3.6649831 -11.8125 1.0625 C-7.76813037 -0.46537297 -4.25460054 -0.92207213 0 0 Z " fill="#B0CCF0" transform="translate(189,92)"/>
<path d="M0 0 C3.25280684 1.51797652 5.59890215 3.34615501 8 6 C8.268125 5.38125 8.53625 4.7625 8.8125 4.125 C10 2 10 2 13 0 C16.77688904 -0.68343706 20.47186889 -0.85107095 23.88671875 1.05078125 C26.04241292 2.82022513 27.7458328 4.4916656 29 7 C29 8.98 29 10.96 29 13 C23.06 13 17.12 13 11 13 C13.44296171 17.03806306 13.44296171 17.03806306 16.1875 17.75 C16.785625 17.8325 17.38375 17.915 18 18 C18 19.65 18 21.3 18 23 C12.93982644 22.5535141 10.56694486 20.404811 7 17 C6.67 16.01 6.34 15.02 6 14 C0.39 13.67 -5.22 13.34 -11 13 C-8.55703829 17.03806306 -8.55703829 17.03806306 -5.8125 17.75 C-5.214375 17.8325 -4.61625 17.915 -4 18 C-4 19.65 -4 21.3 -4 23 C-8.40147657 22.49697411 -10.75395419 20.97554199 -14 18 C-15.85726616 14.28546768 -15.58501089 10.04420575 -15 6 C-10.68364092 0.43416856 -6.89753181 -0.7560756 0 0 Z " fill="#525252" transform="translate(89,102)"/>
<path d="M0 0 C1.32 0 2.64 0 4 0 C4.08736736 3.72901814 4.14051482 7.45777165 4.1875 11.1875 C4.21263672 12.24259766 4.23777344 13.29769531 4.26367188 14.38476562 C4.27333984 15.40634766 4.28300781 16.42792969 4.29296875 17.48046875 C4.3086792 18.41785889 4.32438965 19.35524902 4.34057617 20.32104492 C3.8073502 24.51537364 2.0330794 27.14401993 -1.1875 29.8125 C-4.90999853 31.3842216 -8.01811642 31.72544438 -12 31 C-15.97234329 28.6684072 -17.833968 26.45212218 -19 22 C-19.56524891 18.74981875 -19.58637305 16.87596219 -17.7265625 14.09765625 C-13.7790493 9.38952465 -13.7790493 9.38952465 -11 8 C-9.12620395 7.92966231 -7.24998898 7.9156978 -5.375 7.9375 C-3.87066406 7.95103516 -3.87066406 7.95103516 -2.3359375 7.96484375 C-1.56507812 7.97644531 -0.79421875 7.98804687 0 8 C0 5.36 0 2.72 0 0 Z " fill="#515151" transform="translate(19,94)"/>
<path d="M0 0 C2.23046875 0.89453125 2.23046875 0.89453125 4 2 C4.75 4.125 4.75 4.125 5 6 C4.34 5.835 3.68 5.67 3 5.5 C-0.73099794 4.87816701 -4.21873378 4.93591074 -8 5 C-8.33 6.65 -8.66 8.3 -9 10 C-8.15695313 10.26554687 -7.31390625 10.53109375 -6.4453125 10.8046875 C-4.80175781 11.33449219 -4.80175781 11.33449219 -3.125 11.875 C-1.48917969 12.39707031 -1.48917969 12.39707031 0.1796875 12.9296875 C3 14 3 14 5 16 C5.33 12.7 5.66 9.4 6 6 C7.65 6 9.3 6 11 6 C11 6.99 11 7.98 11 9 C13.97 9 16.94 9 20 9 C19.67 9.66 19.34 10.32 19 11 C18.34 11 17.68 11 17 11 C17 11.66 17 12.32 17 13 C14.69 13 12.38 13 10 13 C10.03305502 14.93822596 10.10249905 16.87585668 10.1875 18.8125 C10.23970703 20.43091797 10.23970703 20.43091797 10.29296875 22.08203125 C10.70383602 25.21903157 10.70383602 25.21903157 13.55078125 26.69921875 C14.35902344 27.12847656 15.16726562 27.55773437 16 28 C16 28.99 16 29.98 16 31 C10.58461538 31.36923077 10.58461538 31.36923077 7.625 29.5 C7.08875 29.005 6.5525 28.51 6 28 C5.566875 28.474375 5.13375 28.94875 4.6875 29.4375 C1.37426104 32.50531385 -2.49115272 32.33093896 -6.76953125 32.2890625 C-10.10745302 31.85647719 -11.80523532 30.47796012 -14 28 C-14 27.01 -14 26.02 -14 25 C-9.125 25.875 -9.125 25.875 -8 27 C-3.98342857 27.22918242 -3.98342857 27.22918242 0 27 C2.2491908 25.17296773 2.2491908 25.17296773 2.25 22.5 C2.2491908 19.82703227 2.2491908 19.82703227 0 18 C-1.60943458 17.48969148 -3.23787231 17.03792538 -4.875 16.625 C-11.71268562 14.63890923 -11.71268562 14.63890923 -14 11 C-14.7652998 7.00343438 -14.34404561 5.51051929 -12.0625 2.125 C-8.02344461 -0.67760986 -4.78997586 -0.81403883 0 0 Z " fill="#585858" transform="translate(58,93)"/>
<path d="M0 0 C1.2694043 -0.03577148 1.2694043 -0.03577148 2.56445312 -0.07226562 C6.78779396 -0.06234392 9.02621519 0.21677324 12.640625 2.546875 C15.24229895 6.6291764 15.13253078 9.64831974 14.875 14.375 C14.85244141 15.16326172 14.82988281 15.95152344 14.80664062 16.76367188 C14.74804161 18.69743929 14.65836827 20.63022167 14.5625 22.5625 C12.9125 22.5625 11.2625 22.5625 9.5625 22.5625 C9.2325 16.9525 8.9025 11.3425 8.5625 5.5625 C6.9125 5.5625 5.2625 5.5625 3.5625 5.5625 C3.2325 11.1725 2.9025 16.7825 2.5625 22.5625 C1.2425 22.5625 -0.0775 22.5625 -1.4375 22.5625 C-1.7675 17.2825 -2.0975 12.0025 -2.4375 6.5625 C-4.0875 6.2325 -5.7375 5.9025 -7.4375 5.5625 C-9.49672402 7.62172402 -8.85177579 11.77958124 -9 14.625 C-9.04318359 15.38361328 -9.08636719 16.14222656 -9.13085938 16.92382812 C-9.23723633 18.80315438 -9.33789934 20.68280244 -9.4375 22.5625 C-10.7575 22.5625 -12.0775 22.5625 -13.4375 22.5625 C-13.54556144 19.64484109 -13.62482877 16.73118875 -13.6875 13.8125 C-13.72101563 12.9875 -13.75453125 12.1625 -13.7890625 11.3125 C-13.84807626 7.65364663 -13.82331985 5.25063348 -12.01171875 2.01953125 C-8.07796032 -0.20701184 -4.44620831 -0.05730519 0 0 Z " fill="#565656" transform="translate(132.4375,101.4375)"/>
<path d="M0 0 C0.268125 0.598125 0.53625 1.19625 0.8125 1.8125 C2.52077508 4.95932251 3.9487271 6.62652147 7.375 7.84375 C8.24125 8.0603125 9.1075 8.276875 10 8.5 C13.52634091 9.38158523 15.73289058 10.07469753 18 13 C18.41826612 15.78844081 18.36703913 17.33474158 17 19.8125 C13.67642865 21.78587049 10.81941755 21.30312838 7 21 C6.34 20.34 5.68 19.68 5 19 C2.93125966 18.3574765 2.93125966 18.3574765 1 18 C0.67 19.98 0.34 21.96 0 24 C-1.65 24 -3.3 24 -5 24 C-5 16.74 -5 9.48 -5 2 C-3.35 2 -1.7 2 0 2 C0 1.34 0 0.68 0 0 Z " fill="#F8F8F8" transform="translate(43,100)"/>
<path d="M0 0 C2.875 2.4375 2.875 2.4375 5 5 C5.33 5.33 5.66 5.66 6 6 C6.23728814 12.52542373 6.23728814 12.52542373 5 15 C1.56404834 13.47291037 -1.11912454 11.40072955 -4 9 C-5.98 10.98 -7.96 12.96 -10 15 C-10.99 14.67 -11.98 14.34 -13 14 C-13.49029622 6.76813075 -13.49029622 6.76813075 -11.125 3.0625 C-7.53138797 -0.42541756 -4.95990361 -0.50439698 0 0 Z " fill="#086FC1" transform="translate(188,95)"/>
<path d="M0 0 C0.47050781 0.433125 0.94101563 0.86625 1.42578125 1.3125 C2.35970703 2.1478125 2.35970703 2.1478125 3.3125 3 C3.92738281 3.556875 4.54226562 4.11375 5.17578125 4.6875 C7.03131335 6.29201498 7.03131335 6.29201498 10 6 C12.68767578 3.56249975 12.68767578 3.56249975 15 1 C15.99 1.33 16.98 1.66 18 2 C18.29254918 6.97333608 18.16504232 10.0436971 15 14 C11.79062591 16.32402951 8.88493979 16.47570691 5 16 C2.30009338 14.20006226 0.4581135 12.916227 -1 10 C-1.1328125 8.125 -1.1328125 8.125 -1.125 6 C-1.12886719 4.948125 -1.12886719 4.948125 -1.1328125 3.875 C-1 2 -1 2 0 0 Z " fill="#066EC0" transform="translate(176,115)"/>
<path d="M0 0 C0.48210937 0.42152344 0.96421875 0.84304687 1.4609375 1.27734375 C2.09257812 1.82519531 2.72421875 2.37304688 3.375 2.9375 C4.00148437 3.48277344 4.62796875 4.02804688 5.2734375 4.58984375 C6.95632334 6.06958624 6.95632334 6.06958624 9 7 C8.773125 6.401875 8.54625 5.80375 8.3125 5.1875 C8.209375 4.465625 8.10625 3.74375 8 3 C9.4375 1.25 9.4375 1.25 11 0 C11.66 0.66 12.32 1.32 13 2 C12.70700977 3.67422986 12.37309899 5.34178227 12 7 C12.33 7.66 12.66 8.32 13 9 C13.57717357 13.73093088 13.43416625 17.14717343 11.25 21.4375 C9.19316666 23.78000464 7.89738492 24.96521967 5 26 C6.05875074 22.59687262 7.00902154 19.98646769 9 17 C9.07905064 14.66800612 9.08798769 12.33167378 9 10 C5.56404834 11.52708963 2.88087546 13.59927045 0 16 C-0.268125 15.071875 -0.53625 14.14375 -0.8125 13.1875 C-1.91148371 10.23759634 -2.62418561 8.94384814 -5 7 C-3.6975667 4.09457188 -2.29113732 2.1907039 0 0 Z " fill="#ABCAEE" transform="translate(184,107)"/>
<path d="M0 0 C0.47397116 4.83450586 0.67972486 7.97011384 -2.0625 12.125 C-5 14 -5 14 -8.625 14.0625 C-12 13 -12 13 -13.9375 11.25 C-15.23370853 8.50508782 -15.52487013 6.99925788 -15 4 C-11.76382572 -1.70183088 -5.74321172 -0.35647521 0 0 Z " fill="#F8F8F8" transform="translate(19,107)"/>
<path d="M0 0 C3.16319172 0.07476635 6.10416335 0.44002445 9.1875 1.1875 C9.5175 1.1875 9.8475 1.1875 10.1875 1.1875 C10.1875 5.1475 10.1875 9.1075 10.1875 13.1875 C8.5375 12.1975 6.8875 11.2075 5.1875 10.1875 C3.43639371 9.56630463 1.66421123 9.00097915 -0.125 8.5 C-1.00800781 8.24863281 -1.89101563 7.99726562 -2.80078125 7.73828125 C-3.46464844 7.55652344 -4.12851562 7.37476562 -4.8125 7.1875 C-5.4375 4.8125 -5.4375 4.8125 -5.8125 2.1875 C-3.8125 0.1875 -3.8125 0.1875 0 0 Z " fill="#F6F6F6" transform="translate(53.8125,96.8125)"/>
<path d="M0 0 C0 0.99 0 1.98 0 3 C-0.969375 3.28875 -1.93875 3.5775 -2.9375 3.875 C-6.10664203 4.64214682 -6.10664203 4.64214682 -7 7 C-7.23029956 9.37123246 -7.41119942 11.74741943 -7.5625 14.125 C-7.64628906 15.40632813 -7.73007812 16.68765625 -7.81640625 18.0078125 C-7.90728516 19.48894531 -7.90728516 19.48894531 -8 21 C-9.32 21 -10.64 21 -12 21 C-12.08139142 18.60347472 -12.14067009 16.20974564 -12.1875 13.8125 C-12.22520508 12.80219727 -12.22520508 12.80219727 -12.26367188 11.77148438 C-12.32907182 7.30248803 -11.75630065 4.54381512 -9 1 C-6.04335481 -0.4783226 -3.25770263 -0.06032783 0 0 Z " fill="#4B4B4B" transform="translate(36,103)"/>
<path d="M0 0 C0.66 0.33 1.32 0.66 2 1 C1.01 2.485 1.01 2.485 0 4 C-0.27356843 5.93137682 -0.27356843 5.93137682 -0.1953125 8.01171875 C-0.18886719 8.76904297 -0.18242188 9.52636719 -0.17578125 10.30664062 C-0.15902344 11.09232422 -0.14226562 11.87800781 -0.125 12.6875 C-0.11146484 13.88342773 -0.11146484 13.88342773 -0.09765625 15.10351562 C-0.07411585 17.069139 -0.03824547 19.03460775 0 21 C-1.32 20.67 -2.64 20.34 -4 20 C-3.01 20 -2.02 20 -1 20 C-1 19.01 -1 18.02 -1 17 C-1.804375 16.690625 -2.60875 16.38125 -3.4375 16.0625 C-6 15 -6 15 -7 14 C-7.07244053 11.98035801 -7.08377188 9.95832876 -7.0625 7.9375 C-7.05347656 6.83277344 -7.04445313 5.72804688 -7.03515625 4.58984375 C-7.02355469 3.73519531 -7.01195313 2.88054687 -7 2 C-4.69 2 -2.38 2 0 2 C0 1.34 0 0.68 0 0 Z " fill="#E0E0E0" transform="translate(75,104)"/>
<path d="M0 0 C1.1055189 0.93590504 2.20935453 1.87379858 3.3125 2.8125 C3.92738281 3.33457031 4.54226562 3.85664062 5.17578125 4.39453125 C6.85424679 5.87172469 8.43882034 7.40039131 10 9 C9.67 9.99 9.34 10.98 9 12 C8.29423828 11.3503125 8.29423828 11.3503125 7.57421875 10.6875 C6.64029297 9.8521875 6.64029297 9.8521875 5.6875 9 C5.07261719 8.443125 4.45773438 7.88625 3.82421875 7.3125 C1.96868665 5.70798502 1.96868665 5.70798502 -1 6 C-2.68798827 7.43750191 -2.68798827 7.43750191 -4 9 C-3.71125 9.5775 -3.4225 10.155 -3.125 10.75 C-2.08333333 12.83333333 -1.04166667 14.91666667 0 17 C-3 17 -3 17 -4.60546875 15.6875 C-5.12753906 15.130625 -5.64960938 14.57375 -6.1875 14 C-6.71730469 13.443125 -7.24710938 12.88625 -7.79296875 12.3125 C-8.39044922 11.6628125 -8.39044922 11.6628125 -9 11 C-7.59155282 7.78475695 -5.89655214 5.67816132 -3.375 3.25 C-2.74335938 2.63640625 -2.11171875 2.0228125 -1.4609375 1.390625 C-0.73777344 0.70226562 -0.73777344 0.70226562 0 0 Z " fill="#BCD4F3" transform="translate(184,103)"/>
<path d="M0 0 C1.32 0 2.64 0 4 0 C4 7.26 4 14.52 4 22 C2.68 22 1.36 22 0 22 C0 14.74 0 7.48 0 0 Z " fill="#4B4B4B" transform="translate(38,102)"/>
<path d="M0 0 C0.226875 0.515625 0.45375 1.03125 0.6875 1.5625 C3.89422402 7.6930725 3.89422402 7.6930725 9 12 C12.37822416 12.14375422 14.77390955 12.07536348 18 11 C17.625 12.9375 17.625 12.9375 17 15 C13.42668635 16.78665682 9.74411661 16.11006472 6 15 C3.24689884 13.07338763 1.49297365 11.00882812 0 8 C-0.46486992 5.13080287 -0.30837077 2.92952236 0 0 Z " fill="#B2CEF1" transform="translate(172,118)"/>
<path d="M0 0 C1.98 1.65 3.96 3.3 6 5 C4.35 6.98 2.7 8.96 1 11 C-1.62187494 9.95125002 -2.79371361 9.35068687 -4.25 6.875 C-4.4975 6.25625 -4.745 5.6375 -5 5 C-3.35 3.35 -1.7 1.7 0 0 Z " fill="#0B6FC0" transform="translate(184,107)"/>
<path d="M0 0 C0.99 0 1.98 0 3 0 C3 0.99 3 1.98 3 3 C5.64 3 8.28 3 11 3 C10.67 3.99 10.34 4.98 10 6 C7.69 6 5.38 6 3 6 C3 9.96 3 13.92 3 18 C2.67 18 2.34 18 2 18 C1.67 15.69 1.34 13.38 1 11 C0.67 11 0.34 11 0 11 C0 7.37 0 3.74 0 0 Z " fill="#4B4B4B" transform="translate(65,100)"/>
<path d="M0 0 C1.216875 0.12375 2.43375 0.2475 3.6875 0.375 C5.0075 2.025 6.3275 3.675 7.6875 5.375 C3.0675 5.375 -1.5525 5.375 -6.3125 5.375 C-3.8425 0.435 -3.8425 0.435 0 0 Z " fill="#F7F7F7" transform="translate(106.3125,105.625)"/>
<path d="M0 0 C2.375 1.9375 2.375 1.9375 4 4 C4 4.33 4 4.66 4 5 C-0.62 5 -5.24 5 -10 5 C-7.34033911 -0.31932178 -5.76830333 -0.57683033 0 0 Z " fill="#F7F7F7" transform="translate(88,106)"/>
<path d="M0 0 C0.7425 0.2475 1.485 0.495 2.25 0.75 C2.25 1.08 2.25 1.41 2.25 1.75 C4.89 2.08 7.53 2.41 10.25 2.75 C10.25 3.08 10.25 3.41 10.25 3.75 C9.49074219 3.78738281 8.73148438 3.82476562 7.94921875 3.86328125 C6.45841797 3.96189453 6.45841797 3.96189453 4.9375 4.0625 C3.45830078 4.14951172 3.45830078 4.14951172 1.94921875 4.23828125 C-1.06657782 4.81001692 -1.78710072 5.50668654 -3.75 7.75 C-6.4375 8.4375 -6.4375 8.4375 -8.75 8.75 C-7.21419612 4.14258836 -5.47554607 -0.49777692 0 0 Z " fill="#636363" transform="translate(8.75,103.25)"/>
<path d="M0 0 C-0.61277612 2.96175123 -1.25372522 4.38058783 -3 7 C-3.39013716 8.9896995 -3.73202649 10.99019869 -4 13 C-4.66 12.67 -5.32 12.34 -6 12 C-6.66 12.66 -7.32 13.32 -8 14 C-8.55027688 8.35966195 -7.04948489 5.57422734 -4 1 C-2 0 -2 0 0 0 Z " fill="#A2C2E9" transform="translate(179,94)"/>
<path d="M0 0 C8 -0.30769231 8 -0.30769231 11 2 C11.75 4.125 11.75 4.125 12 6 C7.61667943 5.17812739 3.32059823 4.09845718 -1 3 C-0.67 2.01 -0.34 1.02 0 0 Z " fill="#4E4E4E" transform="translate(51,93)"/>
<path d="M0 0 C1.32 0.66 2.64 1.32 4 2 C1.14723863 4.93200474 -1.65079784 7.64315404 -5 10 C-5.33 9.01 -5.66 8.02 -6 7 C-4.78515625 5.17578125 -4.78515625 5.17578125 -3.0625 3.3125 C-2.49660156 2.68988281 -1.93070313 2.06726563 -1.34765625 1.42578125 C-0.90292969 0.95527344 -0.45820313 0.48476562 0 0 Z " fill="#9FC0E7" transform="translate(189,113)"/>
<path d="M0 0 C1.485 0.99 1.485 0.99 3 2 C3.29296875 4.8203125 3.29296875 4.8203125 3.1875 8.125 C3.16042969 9.22070312 3.13335938 10.31640625 3.10546875 11.4453125 C3.07066406 12.28835937 3.03585938 13.13140625 3 14 C2.01 14.33 1.02 14.66 0 15 C0 10.05 0 5.1 0 0 Z " fill="#646464" transform="translate(24,109)"/>
<path d="M0 0 C0.94875 0.165 1.8975 0.33 2.875 0.5 C6.60743698 1.1911204 6.60743698 1.1911204 10 0 C10 1.98 10 3.96 10 6 C8.02 6 6.04 6 4 6 C4 4.68 4 3.36 4 2 C3.34 2 2.68 2 2 2 C1.67 3.32 1.34 4.64 1 6 C0.67 4.02 0.34 2.04 0 0 Z " fill="#9F9F9F" transform="translate(201,87)"/>
<path d="M0 0 C3.63 0 7.26 0 11 0 C10.01 0.33 9.02 0.66 8 1 C8 1.66 8 2.32 8 3 C5.03 3 2.06 3 -1 3 C-0.67 2.01 -0.34 1.02 0 0 Z " fill="#0069BF" transform="translate(179,88)"/>
<path d="M0 0 C3.79588866 0.54226981 5.47211993 2.20127563 8 5 C7.67 5.99 7.34 6.98 7 8 C5.8274869 7.04882866 4.66212985 6.08882991 3.5 5.125 C2.8503125 4.59132813 2.200625 4.05765625 1.53125 3.5078125 C1.0259375 3.01023437 0.520625 2.51265625 0 2 C0 1.34 0 0.68 0 0 Z " fill="#C6DAF4" transform="translate(186,107)"/>
<path d="M0 0 C3.3 0 6.6 0 10 0 C10.33 0.99 10.66 1.98 11 3 C9.54257537 3.08096803 8.08387193 3.13917774 6.625 3.1875 C5.81289062 3.22230469 5.00078125 3.25710937 4.1640625 3.29296875 C3.44992187 3.19628906 2.73578125 3.09960938 2 3 C1.34 2.01 0.68 1.02 0 0 Z " fill="#4A4A4A" transform="translate(8,103)"/>
<path d="M0 0 C0.66 0 1.32 0 2 0 C2.1875 3.3125 2.1875 3.3125 2 7 C1.01 7.99 0.02 8.98 -1 10 C-0.67 6.7 -0.34 3.4 0 0 Z " fill="#B8D1F4" transform="translate(195,118)"/>
<path d="M0 0 C-1.36983503 3.16115776 -1.9890638 3.9927092 -5 6 C-5.33 5.01 -5.66 4.02 -6 3 C-4.60722783 0.21445565 -3.01148006 0 0 0 Z " fill="#ABCAEE" transform="translate(189,117)"/>
<path d="M0 0 C1.5625 1.125 1.5625 1.125 3 3 C2.6875 6.1875 2.6875 6.1875 2 9 C1.34 8.67 0.68 8.34 0 8 C-1.27536232 2.55072464 -1.27536232 2.55072464 0 0 Z " fill="#A9C8ED" transform="translate(173,114)"/>
</svg>
