<?xml version="1.0" encoding="UTF-8"?>
<svg version="1.1" xmlns="http://www.w3.org/2000/svg" width="285" height="84">
<path d="M0 0 C94.05 0 188.1 0 285 0 C285 27.72 285 55.44 285 84 C190.95 84 96.9 84 0 84 C0 56.28 0 28.56 0 0 Z " fill="#F8FCFA" transform="translate(0,0)"/>
<path d="M0 0 C0.85464844 0.01804687 1.70929688 0.03609375 2.58984375 0.0546875 C3.81380859 0.08949219 3.81380859 0.08949219 5.0625 0.125 C6.3825 0.125 7.7025 0.125 9.0625 0.125 C13.39583333 0.125 17.72916667 0.125 22.0625 0.125 C22.1863948 5.01789165 22.27697509 9.90986427 22.3371582 14.80395508 C22.36225347 16.46752839 22.39633796 18.13099196 22.43969727 19.79418945 C22.5005746 22.18989153 22.52875769 24.58413251 22.55078125 26.98046875 C22.57658768 27.7202446 22.6023941 28.46002045 22.62898254 29.22221375 C22.63113562 33.21502096 22.23375277 34.91426791 19.68286133 38.05322266 C13.36900775 43.04524366 6.8352449 42.77432021 -0.9375 42.125 C-3.90549572 41.32178004 -6.7106607 40.3518393 -8.9375 38.125 C-8.97813832 36.45882885 -8.980221 34.79111905 -8.9375 33.125 C-6.85445462 33.07081674 -4.77100232 33.03212449 -2.6875 33 C-1.52734375 32.97679687 -0.3671875 32.95359375 0.828125 32.9296875 C3.89036046 33.1146051 5.50452751 33.51676977 8.0625 35.125 C7.7325 33.805 7.4025 32.485 7.0625 31.125 C6.4025 31.455 5.7425 31.785 5.0625 32.125 C0.46373316 32.67612923 -2.91537887 32.74253151 -6.9375 30.3125 C-10.85798437 26.02447022 -10.12090905 21.16528255 -10.125 15.6875 C-10.13724609 14.82833984 -10.14949219 13.96917969 -10.16210938 13.08398438 C-10.16404297 12.25318359 -10.16597656 11.42238281 -10.16796875 10.56640625 C-10.17207764 9.81045166 -10.17618652 9.05449707 -10.18041992 8.27563477 C-9.89906559 5.78472992 -9.27925505 4.23801986 -7.9375 2.125 C-4.6677081 -0.05486127 -3.77002546 -0.1020458 0 0 Z " fill="#10823D" transform="translate(113.9375,16.875)"/>
<path d="M0 0 C1.20527344 -0.01675781 2.41054687 -0.03351562 3.65234375 -0.05078125 C8.49883649 0.46551179 10.81960995 2.17159067 14.34765625 5.41015625 C16.78860122 9.54141391 16.61240274 13.03996245 16.5 17.75 C16.50708984 18.58337891 16.51417969 19.41675781 16.52148438 20.27539062 C16.45586976 26.66019747 15.35876751 30.9207205 10.80859375 35.66015625 C7.36270147 37.73357365 5.12574974 37.81515879 1.125 37.75 C-0.65197266 37.74806641 -0.65197266 37.74806641 -2.46484375 37.74609375 C-7.03044393 37.17603568 -10.41661137 35.95847359 -13.58203125 32.53271484 C-16.1156814 28.38267622 -15.40725054 23.60996548 -15.375 18.875 C-15.39498047 17.83794922 -15.41496094 16.80089844 -15.43554688 15.73242188 C-15.43069115 8.17206172 -15.43069115 8.17206172 -13.16015625 4.21484375 C-8.76872542 0.4562729 -5.81356279 0.01861333 0 0 Z " fill="#0D823B" transform="translate(83.9375,16.6875)"/>
<path d="M0 0 C5.66666667 0 11.33333333 0 17 0 C17.73992187 -0.04640625 18.47984375 -0.0928125 19.2421875 -0.140625 C20.11101562 -0.17671875 20.97984375 -0.2128125 21.875 -0.25 C22.73867188 -0.29640625 23.60234375 -0.3428125 24.4921875 -0.390625 C27.9373313 0.14600176 28.88932319 1.24535984 31 4 C31.45410156 7.39160156 31.45410156 7.39160156 31.390625 11.390625 C31.38496521 12.09523865 31.37930542 12.79985229 31.37347412 13.52581787 C31.35115078 15.76791428 31.30096754 18.00838988 31.25 20.25 C31.22992952 21.77341435 31.2116797 23.29685386 31.1953125 24.8203125 C31.15130118 28.5473983 31.08230372 32.27354087 31 36 C26.71 36 22.42 36 18 36 C18 26.43 18 16.86 18 7 C16.68 7 15.36 7 14 7 C14 16.57 14 26.14 14 36 C9.38 36 4.76 36 0 36 C0 24.12 0 12.24 0 0 Z " fill="#0A8038" transform="translate(238,17)"/>
<path d="M0 0 C3.41435763 1.83350283 5.25010709 3.66551495 6.59765625 7.2421875 C6.85513548 10.92929003 6.68579509 14.54035622 6.59765625 18.2421875 C0.98765625 18.2421875 -4.62234375 18.2421875 -10.40234375 18.2421875 C-10.07234375 21.5421875 -9.74234375 24.8421875 -9.40234375 28.2421875 C-8.74234375 28.2421875 -8.08234375 28.2421875 -7.40234375 28.2421875 C-7.07234375 25.6021875 -6.74234375 22.9621875 -6.40234375 20.2421875 C-2.11234375 20.2421875 2.17765625 20.2421875 6.59765625 20.2421875 C7.26729911 28.01004464 7.26729911 28.01004464 4.34765625 31.6171875 C-0.74716528 36.48042623 -4.59942925 36.62627708 -11.48828125 36.4921875 C-16.28875386 36.08035071 -19.02017338 34.4947794 -22.52734375 31.31640625 C-25.32728823 26.72566395 -24.9851701 22.51546485 -24.90234375 17.2421875 C-24.9178125 16.25734375 -24.93328125 15.2725 -24.94921875 14.2578125 C-24.92545973 9.86239464 -24.86028411 7.02952356 -22.62109375 3.1796875 C-16.4853551 -2.17828146 -7.67961412 -2.42251242 0 0 Z " fill="#0B873B" transform="translate(226.40234375,17.7578125)"/>
<path d="M0 0 C3.04397558 1.67965671 4.66397444 3.30650853 6.59765625 6.20703125 C6.86639784 10.22203056 6.68429337 14.17840532 6.59765625 18.20703125 C0.98765625 18.20703125 -4.62234375 18.20703125 -10.40234375 18.20703125 C-10.07234375 21.50703125 -9.74234375 24.80703125 -9.40234375 28.20703125 C-8.74234375 28.20703125 -8.08234375 28.20703125 -7.40234375 28.20703125 C-7.07234375 25.56703125 -6.74234375 22.92703125 -6.40234375 20.20703125 C-2.11234375 20.20703125 2.17765625 20.20703125 6.59765625 20.20703125 C7.21001373 28.41262154 7.21001373 28.41262154 4.28515625 32.20703125 C-0.07941853 35.4550869 -4.03082914 35.4486324 -9.27734375 35.51953125 C-9.98503906 35.54853516 -10.69273437 35.57753906 -11.421875 35.60742188 C-14.99936148 35.65072478 -17.18730585 35.33436399 -20.28515625 33.5 C-24.93635648 28.46263001 -24.76727693 23.30793202 -24.77734375 16.76953125 C-24.80183594 15.93615234 -24.82632813 15.10277344 -24.8515625 14.24414062 C-24.87758318 8.75811338 -24.16840546 5.48184165 -20.40234375 1.20703125 C-15.22826127 -2.62644314 -5.84325878 -1.92875046 0 0 Z " fill="#098339" transform="translate(190.40234375,17.79296875)"/>
<path d="M0 0 C7.59 0 15.18 0 23 0 C23 2.97 23 5.94 23 9 C20.03 9 17.06 9 14 9 C14 11.31 14 13.62 14 16 C16.64 16 19.28 16 22 16 C22 18.97 22 21.94 22 25 C19.36 25 16.72 25 14 25 C14 27.97 14 30.94 14 34 C17.3 34 20.6 34 24 34 C24 36.97 24 39.94 24 43 C16.08 43 8.16 43 0 43 C0 28.81 0 14.62 0 0 Z " fill="#078637" transform="translate(6,10)"/>
<path d="M0 0 C2.63726647 1.71225509 4.07595575 3.59049613 5.8203125 6.20703125 C5.89936314 8.53902513 5.90830019 10.87535747 5.8203125 13.20703125 C1.5303125 13.20703125 -2.7596875 13.20703125 -7.1796875 13.20703125 C-7.1796875 10.89703125 -7.1796875 8.58703125 -7.1796875 6.20703125 C-8.1696875 6.20703125 -9.1596875 6.20703125 -10.1796875 6.20703125 C-9.8496875 13.46703125 -9.5196875 20.72703125 -9.1796875 28.20703125 C-8.5196875 28.20703125 -7.8596875 28.20703125 -7.1796875 28.20703125 C-6.8496875 25.56703125 -6.5196875 22.92703125 -6.1796875 20.20703125 C-2.2196875 20.20703125 1.7403125 20.20703125 5.8203125 20.20703125 C6.48995536 27.97488839 6.48995536 27.97488839 3.6328125 31.58203125 C-1.34065661 36.22393576 -5.92438492 36.65658312 -12.51953125 36.5234375 C-17.23635326 35.96240581 -19.87412247 33.80063461 -22.80859375 30.21875 C-24.84349002 25.74893513 -24.65390872 21.56090824 -24.6171875 16.70703125 C-24.63716797 15.76988281 -24.65714844 14.83273438 -24.67773438 13.8671875 C-24.67469339 9.57940025 -24.60282376 6.92868782 -22.40234375 3.17578125 C-16.47083576 -2.07813796 -7.44131168 -2.70714385 0 0 Z " fill="#0A843A" transform="translate(58.1796875,17.79296875)"/>
<path d="M0 0 C4.62 0 9.24 0 14 0 C14.33 0.66 14.66 1.32 15 2 C15.66 1.34 16.32 0.68 17 0 C18.65 0 20.3 0 22 0 C22 4.29 22 8.58 22 13 C19.69 13.66 17.38 14.32 15 15 C14.67 21.93 14.34 28.86 14 36 C9.38 36 4.76 36 0 36 C0 24.12 0 12.24 0 0 Z " fill="#0F833C" transform="translate(141,17)"/>
<path d="M0 0 C0.99 0 1.98 0 3 0 C3 1.98 3 3.96 3 6 C4.65 6 6.3 6 8 6 C8 4.02 8 2.04 8 0 C9.32 0 10.64 0 12 0 C12.33 2.64 12.66 5.28 13 8 C13.99 6.68 14.98 5.36 16 4 C18.97 4.495 18.97 4.495 22 5 C22.33 5.99 22.66 6.98 23 8 C25.31 8 27.62 8 30 8 C30 7.34 30 6.68 30 6 C28.35 6 26.7 6 25 6 C25 5.34 25 4.68 25 4 C27.31 4 29.62 4 32 4 C33.60725635 7.21451269 33.05748185 10.43612536 33 14 C32.34 13.67 31.68 13.34 31 13 C31 12.01 31 11.02 31 10 C29.68 10 28.36 10 27 10 C27 10.99 27 11.98 27 13 C27.99 13.33 28.98 13.66 30 14 C29.030625 13.979375 28.06125 13.95875 27.0625 13.9375 C24.12534105 13.64381501 24.12534105 13.64381501 23 15 C21.23636143 15.26235946 19.46293154 15.46039045 17.6875 15.625 C16.72199219 15.72039062 15.75648437 15.81578125 14.76171875 15.9140625 C12.23470366 15.99269663 10.39062259 15.76091075 8 15 C8 13.02 8 11.04 8 9 C6.35 9 4.7 9 3 9 C3 10.65 3 12.3 3 14 C2.01 14 1.02 14 0 14 C0 9.38 0 4.76 0 0 Z " fill="#CCE3D8" transform="translate(6,60)"/>
<path d="M0 0 C0.66 0 1.32 0 2 0 C2 0.99 2 1.98 2 3 C2.99 3 3.98 3 5 3 C5 3.99 5 4.98 5 6 C4.01 6 3.02 6 2 6 C2 7.65 2 9.3 2 11 C2.66 11 3.32 11 4 11 C4 12.32 4 13.64 4 15 C-1.4611792 15.93547977 -5.7065745 16.0894132 -11.015625 14.46484375 C-13.21635496 13.94931843 -15.06182594 13.99768085 -17.3125 14.125 C-21 14 -21 14 -23.0625 12.3125 C-24.24408113 9.3979332 -24.00932746 7.95034182 -23 5 C-22.34 4.34 -21.68 3.68 -21 3 C-17.875 3.375 -17.875 3.375 -15 4 C-14.67 4.99 -14.34 5.98 -14 7 C-11.69 7 -9.38 7 -7 7 C-7 6.34 -7 5.68 -7 5 C-8.65 5 -10.3 5 -12 5 C-12 4.34 -12 3.68 -12 3 C-8.37 3 -4.74 3 -1 3 C-0.67 2.01 -0.34 1.02 0 0 Z " fill="#B5D0C2" transform="translate(176,61)"/>
<path d="M0 0 C0.33 0 0.66 0 1 0 C1.33 7.26 1.66 14.52 2 22 C2.99 22 3.98 22 5 22 C5 22.66 5 23.32 5 24 C7.31 24 9.62 24 12 24 C12 24.33 12 24.66 12 25 C14.97 25.33 17.94 25.66 21 26 C21 25.34 21 24.68 21 24 C19.02 24 17.04 24 15 24 C15 23.34 15 22.68 15 22 C14.34 21.67 13.68 21.34 13 21 C13.99 20.67 14.98 20.34 16 20 C16.33 17.36 16.66 14.72 17 12 C21.29 12 25.58 12 30 12 C30.66964286 19.76785714 30.66964286 19.76785714 27.75 23.375 C22.65409631 28.23927171 18.80595108 28.37526896 11.91796875 28.2578125 C7.55396468 27.87223784 4.74884053 26.37675792 1.3659668 23.71362305 C-0.50202016 21.3702092 -0.34447183 19.8645424 -0.29296875 16.89453125 C-0.28330078 15.91162109 -0.27363281 14.92871094 -0.26367188 13.91601562 C-0.23853516 12.89185547 -0.21339844 11.86769531 -0.1875 10.8125 C-0.17396484 9.77673828 -0.16042969 8.74097656 -0.14648438 7.67382812 C-0.11111389 5.11536301 -0.06175544 2.5579422 0 0 Z " fill="#117235" transform="translate(203,26)"/>
<path d="M0 0 C0 0.66 0 1.32 0 2 C0.99 1.34 1.98 0.68 3 0 C8.44444444 0.44444444 8.44444444 0.44444444 11 3 C10.86188812 6.2456291 10.68762191 8.26448403 8.4296875 10.6796875 C5.06737225 12.50679772 1.96824475 12.32456195 -1.75 12.1875 C-2.44738281 12.17396484 -3.14476562 12.16042969 -3.86328125 12.14648438 C-5.57585541 12.1112945 -7.28802941 12.05749155 -9 12 C-9.08090971 10.37581255 -9.13914995 8.75048255 -9.1875 7.125 C-9.22230469 6.22007813 -9.25710937 5.31515625 -9.29296875 4.3828125 C-9.19628906 3.59648438 -9.09960938 2.81015625 -9 2 C-5.5647952 -0.29013653 -4.014669 -0.17842973 0 0 Z " fill="#D6E3DE" transform="translate(218,64)"/>
<path d="M0 0 C1.32 0 2.64 0 4 0 C4 9.57 4 19.14 4 29 C8.29 29 12.58 29 17 29 C17 29.33 17 29.66 17 30 C14.54159395 30.02691685 12.08348118 30.04679802 9.625 30.0625 C8.92632812 30.07087891 8.22765625 30.07925781 7.5078125 30.08789062 C2.2265625 30.11328125 2.2265625 30.11328125 0 29 C0 19.43 0 9.86 0 0 Z " fill="#CEDFD4" transform="translate(252,24)"/>
<path d="M0 0 C1.875 1.125 1.875 1.125 3 3 C3.39365568 6.14924548 3.52854531 8.11909116 1.875 10.875 C-0.92446741 12.55468045 -2.79804064 12.45742277 -6 12 C-8.375 10.375 -8.375 10.375 -10 8 C-10.25 4.75 -10.25 4.75 -10 2 C-6.60268371 -0.09065618 -3.95730595 -0.42098999 0 0 Z " fill="#9BB891" transform="translate(278,8)"/>
<path d="M0 0 C1.67542976 0.28604898 3.34385343 0.61781233 5 1 C5.125 5.75 5.125 5.75 4 8 C4.66 8.33 5.32 8.66 6 9 C6 8.34 6 7.68 6 7 C6.99 7.33 7.98 7.66 9 8 C8.67 9.98 8.34 11.96 8 14 C4.37 14 0.74 14 -3 14 C-4.12763321 8.36183395 -4.12763321 8.36183395 -2.625 4.75 C-2.34914063 4.06421875 -2.07328125 3.3784375 -1.7890625 2.671875 C-1 1 -1 1 0 0 Z " fill="#528967" transform="translate(124,60)"/>
<path d="M0 0 C0.66 0 1.32 0 2 0 C2 0.99 2 1.98 2 3 C2.99 3 3.98 3 5 3 C5 3.99 5 4.98 5 6 C4.01 6 3.02 6 2 6 C2 7.65 2 9.3 2 11 C2.66 11 3.32 11 4 11 C4 12.32 4 13.64 4 15 C-1.96345767 16.0006709 -6.28728907 16.0662997 -12 14 C-12 13.67 -12 13.34 -12 13 C-9.36 13 -6.72 13 -4 13 C-4.12375 11.72125 -4.2475 10.4425 -4.375 9.125 C-4.44460937 8.40570313 -4.51421875 7.68640625 -4.5859375 6.9453125 C-4.86374749 4.77331755 -4.86374749 4.77331755 -7 3 C-5.02 3 -3.04 3 -1 3 C-0.67 2.01 -0.34 1.02 0 0 Z " fill="#D0E4DB" transform="translate(176,61)"/>
<path d="M0 0 C8.875 0.875 8.875 0.875 10 2 C10.04063832 3.66617115 10.042721 5.33388095 10 7 C9.34 7 8.68 7 8 7 C8.99 8.485 8.99 8.485 10 10 C10 11.32 10 12.64 10 14 C9.01 14 8.02 14 7 14 C6.896875 13.360625 6.79375 12.72125 6.6875 12.0625 C6.460625 11.381875 6.23375 10.70125 6 10 C5.01 9.67 4.02 9.34 3 9 C3 10.65 3 12.3 3 14 C2.01 14 1.02 14 0 14 C0 9.38 0 4.76 0 0 Z " fill="#185A32" transform="translate(186,60)"/>
<path d="M0 0 C7 0 7 0 10 2 C10.1875 5.125 10.1875 5.125 10 8 C7.69 8.33 5.38 8.66 3 9 C3 10.65 3 12.3 3 14 C2.01 14 1.02 14 0 14 C0 9.38 0 4.76 0 0 Z " fill="#68937A" transform="translate(53,60)"/>
<path d="M0 0 C0.99 0 1.98 0 3 0 C3 1.98 3 3.96 3 6 C4.65 6 6.3 6 8 6 C8 4.02 8 2.04 8 0 C8.99 0 9.98 0 11 0 C11 4.62 11 9.24 11 14 C10.01 14 9.02 14 8 14 C8 12.35 8 10.7 8 9 C6.35 9 4.7 9 3 9 C3 10.65 3 12.3 3 14 C2.01 14 1.02 14 0 14 C0 9.38 0 4.76 0 0 Z " fill="#296636" transform="translate(6,60)"/>
<path d="M0 0 C2.31243792 -0.02685412 4.6249627 -0.04632841 6.9375 -0.0625 C8.22527344 -0.07410156 9.51304688 -0.08570313 10.83984375 -0.09765625 C14 0 14 0 15 1 C15.07179964 2.51928038 15.08392007 4.04167482 15.0625 5.5625 C15.05347656 6.38878906 15.04445313 7.21507813 15.03515625 8.06640625 C15.02355469 8.70449219 15.01195313 9.34257813 15 10 C14.34 10 13.68 10 13 10 C13 7.69 13 5.38 13 3 C11.68 3 10.36 3 9 3 C9 5.64 9 8.28 9 11 C8.01 11 7.02 11 6 11 C6 8.36 6 5.72 6 3 C5.01 3 4.02 3 3 3 C3 5.31 3 7.62 3 10 C2.01 10 1.02 10 0 10 C0 6.7 0 3.4 0 0 Z " fill="#2C683D" transform="translate(77,64)"/>
<path d="M0 0 C2.9375 0.8125 2.9375 0.8125 4.9375 2.8125 C4.36931818 8.38068182 4.36931818 8.38068182 2.9375 9.8125 C-0.5 10 -0.5 10 -4.0625 9.8125 C-6.0625 7.8125 -6.0625 7.8125 -6.375 5.375 C-6.0625 2.8125 -6.0625 2.8125 -4.9375 0.9375 C-3.0625 -0.1875 -3.0625 -0.1875 0 0 Z " fill="#145C33" transform="translate(224.0625,64.1875)"/>
<path d="M0 0 C0.99 0 1.98 0 3 0 C3 4.62 3 9.24 3 14 C2.01 14 1.02 14 0 14 C0 12.35 0 10.7 0 9 C-1.98 9 -3.96 9 -6 9 C-6 10.65 -6 12.3 -6 14 C-6.66 14 -7.32 14 -8 14 C-8 9.71 -8 5.42 -8 1 C-7.34 1 -6.68 1 -6 1 C-6 2.65 -6 4.3 -6 6 C-4.02 6 -2.04 6 0 6 C0 4.02 0 2.04 0 0 Z " fill="#245F34" transform="translate(147,60)"/>
<path d="M0 0 C2.4375 0.9375 2.4375 0.9375 3.8125 3.1875 C4.49200569 6.17732504 4.27257667 8.01473164 3.4375 10.9375 C0.0625 11.0625 0.0625 11.0625 -3.5625 10.9375 C-5.5625 8.9375 -5.5625 8.9375 -5.875 5.4375 C-5.771875 4.2825 -5.66875 3.1275 -5.5625 1.9375 C-2.5625 -0.0625 -2.5625 -0.0625 0 0 Z " fill="#537F5F" transform="translate(246.5625,64.0625)"/>
<path d="M0 0 C0.33 0 0.66 0 1 0 C1 5.28 1 10.56 1 16 C0.67 16 0.34 16 0 16 C0 14.02 0 12.04 0 10 C-4.29 10 -8.58 10 -13 10 C-13 12.64 -13 15.28 -13 18 C-14.32 18 -15.64 18 -17 18 C-17 14.7 -17 11.4 -17 8 C-11.39 8 -5.78 8 0 8 C0 5.36 0 2.72 0 0 Z " fill="#C6E4CF" transform="translate(197,28)"/>
<path d="M0 0 C0.99 0 1.98 0 3 0 C3 2.64 3 5.28 3 8 C3.99 8 4.98 8 6 8 C6 5.36 6 2.72 6 0 C7.32 0 8.64 0 10 0 C10 3.63 10 7.26 10 11 C1.125 10.125 1.125 10.125 0 9 C-0.07179964 7.48071962 -0.08392007 5.95832518 -0.0625 4.4375 C-0.05347656 3.61121094 -0.04445313 2.78492187 -0.03515625 1.93359375 C-0.02355469 1.29550781 -0.01195313 0.65742187 0 0 Z " fill="#3F7253" transform="translate(65,64)"/>
<path d="M0 0 C0.99 0 1.98 0 3 0 C3 7.59 3 15.18 3 23 C2.01 23 1.02 23 0 23 C0 15.41 0 7.82 0 0 Z " fill="#E2F2E8" transform="translate(83,24)"/>
<path d="M0 0 C0.763125 0.20625 1.52625 0.4125 2.3125 0.625 C2.6425 2.275 2.9725 3.925 3.3125 5.625 C1.0025 5.625 -1.3075 5.625 -3.6875 5.625 C-3.6875 6.285 -3.6875 6.945 -3.6875 7.625 C-1.7075 7.625 0.2725 7.625 2.3125 7.625 C2.3125 8.285 2.3125 8.945 2.3125 9.625 C-0.02044775 9.66741723 -2.35452567 9.66592937 -4.6875 9.625 C-5.6875 8.625 -5.6875 8.625 -5.9375 5.1875 C-5.855 4.011875 -5.7725 2.83625 -5.6875 1.625 C-2.6875 -0.375 -2.6875 -0.375 0 0 Z " fill="#518265" transform="translate(203.6875,64.375)"/>
<path d="M0 0 C1.32 0.33 2.64 0.66 4 1 C2.35 4.96 0.7 8.92 -1 13 C-2.65 13 -4.3 13 -6 13 C-5.62875 12.443125 -5.2575 11.88625 -4.875 11.3125 C-3.70712766 8.96788542 -3.70712766 8.96788542 -4.875 6.4375 C-5.24625 5.633125 -5.6175 4.82875 -6 4 C-6 3.01 -6 2.02 -6 1 C-5.01 1 -4.02 1 -3 1 C-2.34 1.99 -1.68 2.98 -1 4 C-0.67 2.68 -0.34 1.36 0 0 Z " fill="#246239" transform="translate(266,64)"/>
<path d="M0 0 C4.29 0 8.58 0 13 0 C13 0.33 13 0.66 13 1 C9.7 1.33 6.4 1.66 3 2 C3 2.66 3 3.32 3 4 C3.66 4 4.32 4 5 4 C5 4.66 5 5.32 5 6 C11.95092634 7.79378744 19.0024283 7.19107603 26 6 C22.62127319 9.37872681 19.32347754 9.18618403 14.75 9.25 C9.38677884 9.22007131 4.0396402 9.0396402 0 5 C0 3.35 0 1.7 0 0 Z " fill="#1E6138" transform="translate(105,50)"/>
<path d="M0 0 C0.99 0 1.98 0 3 0 C2.60446947 1.6510403 2.18286103 3.2958515 1.75 4.9375 C1.40195313 6.31228516 1.40195313 6.31228516 1.046875 7.71484375 C0 10 0 10 -2.109375 10.81640625 C-2.73328125 10.87699219 -3.3571875 10.93757813 -4 11 C-4.50403768 9.70990357 -5.00309926 8.41786211 -5.5 7.125 C-5.7784375 6.40570313 -6.056875 5.68640625 -6.34375 4.9453125 C-7 3 -7 3 -7 1 C-6.01 1 -5.02 1 -4 1 C-3.34 1.66 -2.68 2.32 -2 3 C-1.34 2.01 -0.68 1.02 0 0 Z " fill="#38704B" transform="translate(237,64)"/>
<path d="M0 0 C2.31 0 4.62 0 7 0 C8.60725635 3.21451269 8.05748185 6.43612536 8 10 C7.34 9.67 6.68 9.34 6 9 C6 8.01 6 7.02 6 6 C4.68 6 3.36 6 2 6 C2 6.99 2 7.98 2 9 C2.99 9.33 3.98 9.66 5 10 C3.02 10 1.04 10 -1 10 C-0.67 8.35 -0.34 6.7 0 5 C1.65 4.67 3.3 4.34 5 4 C5 3.34 5 2.68 5 2 C3.35 2 1.7 2 0 2 C0 1.34 0 0.68 0 0 Z " fill="#195B36" transform="translate(31,64)"/>
<path d="M0 0 C1.98 0.99 1.98 0.99 4 2 C4 3.65 4 5.3 4 7 C5.32 7.33 6.64 7.66 8 8 C8 5.36 8 2.72 8 0 C8.66 0.33 9.32 0.66 10 1 C10.04241723 3.33294775 10.04092937 5.66702567 10 8 C9 9 9 9 5.9375 9.0625 C4.968125 9.041875 3.99875 9.02125 3 9 C3 9.99 3 10.98 3 12 C2.01 12 1.02 12 0 12 C0 8.04 0 4.08 0 0 Z " fill="#0D4E24" transform="translate(95,65)"/>
<path d="M0 0 C0.33 0.66 0.66 1.32 1 2 C0.34 2.66 -0.32 3.32 -1 4 C-1.16681109 7.08347826 -1.16681109 7.08347826 -1 10 C0.32 10 1.64 10 3 10 C3 11.32 3 12.64 3 14 C2.34 14 1.68 14 1 14 C1 13.34 1 12.68 1 12 C0.34 11.67 -0.32 11.34 -1 11 C-1 11.66 -1 12.32 -1 13 C-1.99 12.67 -2.98 12.34 -4 12 C-3.34 9.69 -2.68 7.38 -2 5 C-5.62885324 4.84850702 -5.62885324 4.84850702 -9 6 C-9 5.34 -9 4.68 -9 4 C-12.63 4 -16.26 4 -20 4 C-20 3.34 -20 2.68 -20 2 C-18.97519531 2.02320313 -17.95039062 2.04640625 -16.89453125 2.0703125 C-15.53386149 2.08908036 -14.1731838 2.10727947 -12.8125 2.125 C-12.13896484 2.14175781 -11.46542969 2.15851562 -10.77148438 2.17578125 C-6.71192193 2.21538674 -3.65001185 1.80020002 0 0 Z " fill="#D6EEE2" transform="translate(131,56)"/>
<path d="M0 0 C0.99 0 1.98 0 3 0 C3 0.99 3 1.98 3 3 C4.32 2.67 5.64 2.34 7 2 C7 2.66 7 3.32 7 4 C8.77174819 3.91276622 10.54247377 3.80458345 12.3125 3.6875 C13.29863281 3.62949219 14.28476562 3.57148437 15.30078125 3.51171875 C18.24384457 2.95377187 19.18182999 2.31459868 21 0 C21.66 0.33 22.32 0.66 23 1 C22 4 22 4 19.77734375 5.1640625 C14.74097779 6.67993074 8.9150745 7.17938129 3.953125 5.171875 C2.3125 4.125 2.3125 4.125 0 2 C0 1.34 0 0.68 0 0 Z " fill="#267243" transform="translate(37,48)"/>
<path d="M0 0 C0.66 0 1.32 0 2 0 C2 0.99 2 1.98 2 3 C2.99 3 3.98 3 5 3 C5 3.99 5 4.98 5 6 C4.01 6 3.02 6 2 6 C2 7.65 2 9.3 2 11 C2.66 11 3.32 11 4 11 C4 11.66 4 12.32 4 13 C2.35 13 0.7 13 -1 13 C-1.22245393 11.39773045 -1.42746669 9.79303233 -1.625 8.1875 C-1.74101562 7.29417969 -1.85703125 6.40085937 -1.9765625 5.48046875 C-2 3 -2 3 0 0 Z " fill="#2D6741" transform="translate(176,61)"/>
<path d="M0 0 C5.61 0.33 11.22 0.66 17 1 C17 1.33 17 1.66 17 2 C12.71 2 8.42 2 4 2 C4 4.64 4 7.28 4 10 C2.68 10 1.36 10 0 10 C0 6.7 0 3.4 0 0 Z " fill="#DCE6E0" transform="translate(216,36)"/>
<path d="M0 0 C0.99 0 1.98 0 3 0 C3 5.61 3 11.22 3 17 C2.01 17.33 1.02 17.66 0 18 C0 12.06 0 6.12 0 0 Z " fill="#E0EFE6" transform="translate(119,24)"/>
<path d="M0 0 C-0.99 0.66 -1.98 1.32 -3 2 C-3 2.66 -3 3.32 -3 4 C-2.34 4 -1.68 4 -1 4 C-1 3.34 -1 2.68 -1 2 C-0.34 2 0.32 2 1 2 C1 3.98 1 5.96 1 8 C0.34 8 -0.32 8 -1 8 C-1.33 7.34 -1.66 6.68 -2 6 C-2.33 6.66 -2.66 7.32 -3 8 C-3.66 8 -4.32 8 -5 8 C-5 6.35 -5 4.7 -5 3 C-5.66 3 -6.32 3 -7 3 C-6.67 4.98 -6.34 6.96 -6 9 C-6.99 8.34 -7.98 7.68 -9 7 C-9.1875 3.875 -9.1875 3.875 -9 1 C-6.04335481 -0.4783226 -3.25770263 -0.06032783 0 0 Z " fill="#8CB084" transform="translate(277,9)"/>
<path d="M0 0 C2.38564077 0.57584432 4.66682784 1.22227595 7 2 C7 2.99 7 3.98 7 5 C6.34 5 5.68 5 5 5 C5.99 6.485 5.99 6.485 7 8 C7 9.32 7 10.64 7 12 C6.01 12 5.02 12 4 12 C3.896875 11.38125 3.79375 10.7625 3.6875 10.125 C3.12474627 7.63473516 3.12474627 7.63473516 0 6 C-0.1875 2.875 -0.1875 2.875 0 0 Z " fill="#206033" transform="translate(189,62)"/>
<path d="M0 0 C2.625 0.375 2.625 0.375 5 1 C4.0409375 1.433125 4.0409375 1.433125 3.0625 1.875 C0.84793921 2.82823451 0.84793921 2.82823451 0 5 C1.65 5 3.3 5 5 5 C5.33 4.34 5.66 3.68 6 3 C6 3.99 6 4.98 6 6 C4.02 6 2.04 6 0 6 C0 6.66 0 7.32 0 8 C1.98 8 3.96 8 6 8 C6 8.66 6 9.32 6 10 C2.625 10.1875 2.625 10.1875 -1 10 C-3 7 -3 7 -2.75 4.4375 C-2 2 -2 2 0 0 Z " fill="#0F552A" transform="translate(22,64)"/>
<path d="M0 0 C0.99 0 1.98 0 3 0 C3 0.66 3 1.32 3 2 C3.66 2 4.32 2 5 2 C5 2.66 5 3.32 5 4 C4.34 4 3.68 4 3 4 C3 5.98 3 7.96 3 10 C3.66 10 4.32 10 5 10 C5 10.99 5 11.98 5 13 C3.68 12.67 2.36 12.34 1 12 C-0.47075246 7.58774263 -1.36884358 4.51718381 0 0 Z " fill="#28643B" transform="translate(42,62)"/>
<path d="M0 0 C0.33 0.66 0.66 1.32 1 2 C2.65 1.67 4.3 1.34 6 1 C6 5.62 6 10.24 6 15 C5.67 15 5.34 15 5 15 C4.67 13.35 4.34 11.7 4 10 C2.68 9.67 1.36 9.34 0 9 C0 6.03 0 3.06 0 0 Z " fill="#E9EEED" transform="translate(28,26)"/>
<path d="M0 0 C2.64 0 5.28 0 8 0 C8 2.97 8 5.94 8 9 C6.35 8.67 4.7 8.34 3 8 C3 6.35 3 4.7 3 3 C2.34 3 1.68 3 1 3 C0.67 2.01 0.34 1.02 0 0 Z " fill="#417F58" transform="translate(95,64)"/>
<path d="M0 0 C0.99 0 1.98 0 3 0 C3 4.62 3 9.24 3 14 C2.01 14 1.02 14 0 14 C0 11.69 0 9.38 0 7 C-1.65 7 -3.3 7 -5 7 C-5 6.67 -5 6.34 -5 6 C-3.35 6 -1.7 6 0 6 C0 4.02 0 2.04 0 0 Z " fill="#13582C" transform="translate(14,60)"/>
<path d="M0 0 C0.33 0 0.66 0 1 0 C1.33 3.3 1.66 6.6 2 10 C2.66 10 3.32 10 4 10 C4.33 7.36 4.66 4.72 5 2 C5.99 2.33 6.98 2.66 8 3 C7.67 5.97 7.34 8.94 7 12 C4.36 12 1.72 12 -1 12 C-1.14285714 3.42857143 -1.14285714 3.42857143 0 0 Z " fill="#0F7335" transform="translate(179,36)"/>
<path d="M0 0 C0 0.66 0 1.32 0 2 C-1.32 2.33 -2.64 2.66 -4 3 C-4.33 4.65 -4.66 6.3 -5 8 C-3.35 8 -1.7 8 0 8 C0 8.66 0 9.32 0 10 C-2.33294775 10.04241723 -4.66702567 10.04092937 -7 10 C-8 9 -8 9 -8.25 5.5625 C-8.1675 4.386875 -8.085 3.21125 -8 2 C-4.77208445 -0.1519437 -3.71599191 -0.20086443 0 0 Z " fill="#23613B" transform="translate(217,64)"/>
<path d="M0 0 C0.33 0 0.66 0 1 0 C1 2.97 1 5.94 1 9 C-6.59 9 -14.18 9 -22 9 C-22 8.67 -22 8.34 -22 8 C-15.73 8 -9.46 8 -3 8 C-2.34 5.69 -1.68 3.38 -1 1 C-0.67 0.67 -0.34 0.34 0 0 Z " fill="#2B6D3F" transform="translate(29,44)"/>
<path d="M0 0 C1.67542976 0.28604898 3.34385343 0.61781233 5 1 C5 2.32 5 3.64 5 5 C4.34 5 3.68 5 3 5 C3 4.01 3 3.02 3 2 C0.76660104 2.83254913 0.76660104 2.83254913 0.1484375 5.28515625 C-0.10679688 6.20167969 -0.36203125 7.11820312 -0.625 8.0625 C-0.88539062 8.98160156 -1.14578125 9.90070313 -1.4140625 10.84765625 C-1.60742188 11.55792969 -1.80078125 12.26820312 -2 13 C-0.02 13 1.96 13 4 13 C4 13.33 4 13.66 4 14 C1.69 14 -0.62 14 -3 14 C-4.69025181 9.08290384 -3.12073841 5.49344574 -1 1 C-0.67 0.67 -0.34 0.34 0 0 Z " fill="#15532D" transform="translate(124,60)"/>
<path d="M0 0 C0.78375 0.04125 1.5675 0.0825 2.375 0.125 C2.375 0.785 2.375 1.445 2.375 2.125 C1.055 2.125 -0.265 2.125 -1.625 2.125 C-1.625 2.785 -1.625 3.445 -1.625 4.125 C-0.305 4.455 1.015 4.785 2.375 5.125 C2.375 6.775 2.375 8.425 2.375 10.125 C0.065 10.125 -2.245 10.125 -4.625 10.125 C-4.625 9.795 -4.625 9.465 -4.625 9.125 C-2.975 9.125 -1.325 9.125 0.375 9.125 C0.375 8.465 0.375 7.805 0.375 7.125 C-0.945 6.795 -2.265 6.465 -3.625 6.125 C-4.25 4.25 -4.25 4.25 -4.625 2.125 C-2.625 0.125 -2.625 0.125 0 0 Z " fill="#236031" transform="translate(111.625,63.875)"/>
<path d="M0 0 C6.875 0.875 6.875 0.875 8 2 C8.14115161 4.67058851 8.04247107 7.32432238 8 10 C5.36 10 2.72 10 0 10 C0.9590625 9.5978125 0.9590625 9.5978125 1.9375 9.1875 C4.33131686 8.11332248 4.33131686 8.11332248 5 5 C4.34 4.67 3.68 4.34 3 4 C3.66 4 4.32 4 5 4 C5 3.34 5 2.68 5 2 C3.35 2 1.7 2 0 2 C0 1.34 0 0.68 0 0 Z " fill="#0B5022" transform="translate(164,64)"/>
<path d="M0 0 C0.99 0.33 1.98 0.66 3 1 C2.01 2.485 2.01 2.485 1 4 C2.65 4 4.3 4 6 4 C6.33 3.34 6.66 2.68 7 2 C7.33 2.99 7.66 3.98 8 5 C5.69 5 3.38 5 1 5 C1 5.66 1 6.32 1 7 C2.98 7 4.96 7 7 7 C7 7.66 7 8.32 7 9 C3.625 9.1875 3.625 9.1875 0 9 C-2 6 -2 6 -1.6875 3.375 C-1 1 -1 1 0 0 Z " fill="#1D5931" transform="translate(154,65)"/>
<path d="M0 0 C1.65 0 3.3 0 5 0 C4.01 0.495 4.01 0.495 3 1 C3 2.98 3 4.96 3 7 C3.99 7.33 4.98 7.66 6 8 C5.01 8 4.02 8 3 8 C3 9.65 3 11.3 3 13 C2.01 13 1.02 13 0 13 C0 8.71 0 4.42 0 0 Z " fill="#13522A" transform="translate(53,61)"/>
<path d="M0 0 C0.33 0 0.66 0 1 0 C1 2.97 1 5.94 1 9 C-1.31 8.67 -3.62 8.34 -6 8 C-6 5.69 -6 3.38 -6 1 C-4.68 1 -3.36 1 -2 1 C-2 3.31 -2 5.62 -2 8 C-1.34 8 -0.68 8 0 8 C0 5.36 0 2.72 0 0 Z " fill="#B9CAC2" transform="translate(92,66)"/>
<path d="M0 0 C1.32 0.33 2.64 0.66 4 1 C4 3.97 4 6.94 4 10 C2.68 10 1.36 10 0 10 C0 6.7 0 3.4 0 0 Z " fill="#E2ECE9" transform="translate(180,36)"/>
<path d="M0 0 C0.66 0 1.32 0 2 0 C2 1.65 2 3.3 2 5 C3.98 5 5.96 5 8 5 C8 5.66 8 6.32 8 7 C6.35 7.33 4.7 7.66 3 8 C2.67 9.65 2.34 11.3 2 13 C1.34 13 0.68 13 0 13 C0 8.71 0 4.42 0 0 Z " fill="#0C4C1D" transform="translate(139,61)"/>
<path d="M0 0 C0.56589844 0.32613281 1.13179688 0.65226562 1.71484375 0.98828125 C4.2149002 2.09514385 5.84776443 2.23802807 8.5625 2.1875 C9.32691406 2.18105469 10.09132813 2.17460938 10.87890625 2.16796875 C13.18897716 2.07053505 13.18897716 2.07053505 16 1 C16 2.65 16 4.3 16 6 C15.21882813 5.76990234 15.21882813 5.76990234 14.421875 5.53515625 C11.36721485 4.86017489 8.36984029 4.65588882 5.25 4.4375 C4.07953125 4.35371094 2.9090625 4.26992188 1.703125 4.18359375 C0.81109375 4.12300781 -0.0809375 4.06242187 -1 4 C-1.33 4.99 -1.66 5.98 -2 7 C-2 5.68 -2 4.36 -2 3 C-1.34 3 -0.68 3 0 3 C0 2.01 0 1.02 0 0 Z " fill="#DDEFE5" transform="translate(106,46)"/>
<path d="M0 0 C1.98 0 3.96 0 6 0 C6 0.99 6 1.98 6 3 C5.01 3.495 5.01 3.495 4 4 C3.34227572 7.02934491 3.34227572 7.02934491 3 10 C2.01 10 1.02 10 0 10 C0 6.7 0 3.4 0 0 Z " fill="#316740" transform="translate(252,64)"/>
<path d="M0 0 C2.0625 0.4375 2.0625 0.4375 4 1 C0.27933528 3.48044315 -2.86540474 3.44381173 -7.1875 3.625 C-7.93708984 3.66367187 -8.68667969 3.70234375 -9.45898438 3.7421875 C-11.30559199 3.83628216 -13.1527619 3.91922319 -15 4 C-15.33 3.01 -15.66 2.02 -16 1 C-14.92878906 1.01160156 -13.85757813 1.02320312 -12.75390625 1.03515625 C-11.35677257 1.04453299 -9.95963701 1.05363331 -8.5625 1.0625 C-7.85544922 1.07087891 -7.14839844 1.07925781 -6.41992188 1.08789062 C-4.61306441 1.09653588 -2.80612397 1.05220011 -1 1 C-0.67 0.67 -0.34 0.34 0 0 Z " fill="#149241" transform="translate(255,17)"/>
<path d="M0 0 C0.33 0 0.66 0 1 0 C1 1.98 1 3.96 1 6 C1.66 6.33 2.32 6.66 3 7 C3.40729228 9.32156597 3.74438677 11.6568787 4 14 C1 16 1 16 -1.1875 15.625 C-1.785625 15.41875 -2.38375 15.2125 -3 15 C-2.01 14.67 -1.02 14.34 0 14 C0 9.38 0 4.76 0 0 Z " fill="#D9E6E2" transform="translate(150,60)"/>
<path d="M0 0 C1.84765625 0.33984375 1.84765625 0.33984375 4.0625 0.9375 C5.16271484 1.22947266 5.16271484 1.22947266 6.28515625 1.52734375 C7.13400391 1.76130859 7.13400391 1.76130859 8 2 C6 4 6 4 2.5234375 4.1953125 C1.14049032 4.18201493 -0.24238654 4.15816232 -1.625 4.125 C-2.33140625 4.11597656 -3.0378125 4.10695313 -3.765625 4.09765625 C-5.51056098 4.07407603 -7.25532295 4.03820461 -9 4 C-8.67 3.34 -8.34 2.68 -8 2 C-5.67284 1.62599214 -3.33882138 1.29235267 -1 1 C-0.67 0.67 -0.34 0.34 0 0 Z " fill="#CDDED7" transform="translate(218,72)"/>
<path d="M0 0 C0.99 0 1.98 0 3 0 C3 2.64 3 5.28 3 8 C3.99 8 4.98 8 6 8 C6 8.66 6 9.32 6 10 C4.33388095 10.042721 2.66617115 10.04063832 1 10 C0 9 0 9 -0.09765625 6.93359375 C-0.08605469 6.10988281 -0.07445313 5.28617187 -0.0625 4.4375 C-0.05347656 3.61121094 -0.04445313 2.78492187 -0.03515625 1.93359375 C-0.02355469 1.29550781 -0.01195313 0.65742187 0 0 Z " fill="#246438" transform="translate(65,64)"/>
<path d="M0 0 C0.33 0.66 0.66 1.32 1 2 C4.465 1.505 4.465 1.505 8 1 C8 1.66 8 2.32 8 3 C5.69 3 3.38 3 1 3 C1 3.66 1 4.32 1 5 C2.98 5 4.96 5 7 5 C7 5.66 7 6.32 7 7 C4.66705225 7.04241723 2.33297433 7.04092937 0 7 C-1 6 -1 6 -1.125 3.5 C-1 1 -1 1 0 0 Z " fill="#195425" transform="translate(199,67)"/>
<path d="M0 0 C0.33 0 0.66 0 1 0 C1 2.64 1 5.28 1 8 C-1.8125 8.625 -1.8125 8.625 -5 9 C-5.99 8.34 -6.98 7.68 -8 7 C-7.34 6.67 -6.68 6.34 -6 6 C-6 5.01 -6 4.02 -6 3 C-4.68 3 -3.36 3 -2 3 C-1.34 4.32 -0.68 5.64 0 7 C0 4.69 0 2.38 0 0 Z " fill="#A0C4AD" transform="translate(39,67)"/>
<path d="M0 0 C3.3 0 6.6 0 10 0 C10.1953125 6.0546875 10.1953125 6.0546875 10 8 C9.34 8.66 8.68 9.32 8 10 C7.67 7.36 7.34 4.72 7 2 C4.69 2 2.38 2 0 2 C0 1.34 0 0.68 0 0 Z " fill="#16783B" transform="translate(54,38)"/>
<path d="M0 0 C0.33 1.32 0.66 2.64 1 4 C0.34 4 -0.32 4 -1 4 C-1 4.99 -1 5.98 -1 7 C-3.31 7 -5.62 7 -8 7 C-8 6.67 -8 6.34 -8 6 C-6.02 6 -4.04 6 -2 6 C-2 5.34 -2 4.68 -2 4 C-3.98 4 -5.96 4 -8 4 C-8 3.34 -8 2.68 -8 2 C-5.36 2 -2.72 2 0 2 C0 1.34 0 0.68 0 0 Z " fill="#B3CABE" transform="translate(208,68)"/>
<path d="M0 0 C0.66 0 1.32 0 2 0 C2 2.31 2 4.62 2 7 C3.32 7.66 4.64 8.32 6 9 C3.125 9.125 3.125 9.125 0 9 C-2 7 -2 7 -2.25 4.5 C-2 2 -2 2 0 0 Z " fill="#16562A" transform="translate(220,65)"/>
<path d="M0 0 C0.33 0 0.66 0 1 0 C1 3.96 1 7.92 1 12 C1.66 12 2.32 12 3 12 C2.67 12.99 2.34 13.98 2 15 C0 14 0 14 -1 11 C-1.09267588 9.29367352 -1.12998202 7.58383413 -1.125 5.875 C-1.12757812 4.98554687 -1.13015625 4.09609375 -1.1328125 3.1796875 C-1 1 -1 1 0 0 Z " fill="#0B7337" transform="translate(35,34)"/>
<path d="M0 0 C0.99 0.33 1.98 0.66 3 1 C3.6875 3.0625 3.6875 3.0625 4 5 C1.69 5.33 -0.62 5.66 -3 6 C-2.625 3.5625 -2.625 3.5625 -2 1 C-1.34 0.67 -0.68 0.34 0 0 Z " fill="#598B69" transform="translate(244,64)"/>
<path d="M0 0 C0 1.65 0 3.3 0 5 C-2.31 5.33 -4.62 5.66 -7 6 C-7 5.34 -7 4.68 -7 4 C-5.02 4 -3.04 4 -1 4 C-2.06645115 2.70366379 -2.06645115 2.70366379 -4.5625 2.9375 C-5.366875 2.958125 -6.17125 2.97875 -7 3 C-6.67 2.01 -6.34 1.02 -6 0 C-3.42525708 -0.99667468 -2.51072708 -1.25536354 0 0 Z " fill="#8BAE98" transform="translate(29,66)"/>
<path d="M0 0 C0.33 0 0.66 0 1 0 C1.33 3.63 1.66 7.26 2 11 C3.32 11.33 4.64 11.66 6 12 C5.67 12.99 5.34 13.98 5 15 C4.01 15 3.02 15 2 15 C2 14.34 2 13.68 2 13 C1.01 13 0.02 13 -1 13 C-0.67 8.71 -0.34 4.42 0 0 Z " fill="#0C6D2F" transform="translate(46,34)"/>
<path d="M0 0 C0.99 0.33 1.98 0.66 3 1 C3 3.64 3 6.28 3 9 C2.01 9 1.02 9 0 9 C0 6.03 0 3.06 0 0 Z " fill="#0E4F27" transform="translate(77,65)"/>
<path d="M0 0 C0.99 0 1.98 0 3 0 C3.33 1.65 3.66 3.3 4 5 C2.35 5.33 0.7 5.66 -1 6 C-1.042721 4.33388095 -1.04063832 2.66617115 -1 1 C-0.67 0.67 -0.34 0.34 0 0 Z " fill="#CDE1D8" transform="translate(222,66)"/>
<path d="M0 0 C2.31 0 4.62 0 7 0 C6.67 0.66 6.34 1.32 6 2 C2.57767028 3.14077657 -0.08673217 3.09815117 -3.6875 3.0625 C-5.45673828 3.04896484 -5.45673828 3.04896484 -7.26171875 3.03515625 C-8.16535156 3.02355469 -9.06898438 3.01195312 -10 3 C-10 2.67 -10 2.34 -10 2 C-6.7 2 -3.4 2 0 2 C0 1.34 0 0.68 0 0 Z " fill="#0C5A29" transform="translate(186,50)"/>
<path d="M0 0 C0.99 0 1.98 0 3 0 C3 2.31 3 4.62 3 7 C1.02 7.33 -0.96 7.66 -3 8 C-2.01 7.67 -1.02 7.34 0 7 C0 4.69 0 2.38 0 0 Z " fill="#E8F0EE" transform="translate(80,67)"/>
<path d="M0 0 C0.66 0 1.32 0 2 0 C2 1.65 2 3.3 2 5 C2.66 5 3.32 5 4 5 C4.33 4.01 4.66 3.02 5 2 C5.33 2.99 5.66 3.98 6 5 C6.66 5.33 7.32 5.66 8 6 C5.6875 6.6875 5.6875 6.6875 3 7 C1.1875 5.8125 1.1875 5.8125 0 4 C0 2.68 0 1.36 0 0 Z " fill="#EAF8E4" transform="translate(270,12)"/>
<path d="M0 0 C0 0.66 0 1.32 0 2 C-3.63 2 -7.26 2 -11 2 C-11.33 1.34 -11.66 0.68 -12 0 C-10.37585622 -0.19477739 -8.75063577 -0.38059458 -7.125 -0.5625 C-6.22007813 -0.66691406 -5.31515625 -0.77132812 -4.3828125 -0.87890625 C-2 -1 -2 -1 0 0 Z " fill="#C7D8CF" transform="translate(134,74)"/>
<path d="M0 0 C1.32 0 2.64 0 4 0 C4.33 2.31 4.66 4.62 5 7 C3.02 7.33 1.04 7.66 -1 8 C-0.01 7.67 0.98 7.34 2 7 C1.34 4.69 0.68 2.38 0 0 Z " fill="#C4D7CE" transform="translate(194,67)"/>
<path d="M0 0 C0.99 0.33 1.98 0.66 3 1 C2.67 2.32 2.34 3.64 2 5 C0.35 5.33 -1.3 5.66 -3 6 C-2.625 3.5625 -2.625 3.5625 -2 1 C-1.34 0.67 -0.68 0.34 0 0 Z " fill="#629275" transform="translate(166,68)"/>
<path d="M0 0 C0.99 0 1.98 0 3 0 C4.1577506 3.47325181 4.06866652 6.36067448 4 10 C1.16625119 6.79663178 0.4794463 4.21912747 0 0 Z " fill="#1F5C2F" transform="translate(260,65)"/>
<path d="M0 0 C1.32 0 2.64 0 4 0 C4 1.98 4 3.96 4 6 C2.68 6 1.36 6 0 6 C0 4.02 0 2.04 0 0 Z " fill="#B8D3C1" transform="translate(180,24)"/>
<path d="M0 0 C2.64 0 5.28 0 8 0 C7.01 0.33 6.02 0.66 5 1 C5.226875 1.763125 5.45375 2.52625 5.6875 3.3125 C5.790625 4.199375 5.89375 5.08625 6 6 C4.5625 7.8125 4.5625 7.8125 3 9 C3.0928125 7.6078125 3.0928125 7.6078125 3.1875 6.1875 C3.30894264 3.01604897 3.30894264 3.01604897 1.5 1.125 C1.005 0.75375 0.51 0.3825 0 0 Z " fill="#C7E1D4" transform="translate(225,64)"/>
<path d="M0 0 C2.97 0.495 2.97 0.495 6 1 C5.67 2.32 5.34 3.64 5 5 C3.35 5 1.7 5 0 5 C0 3.33333333 0 1.66666667 0 0 Z " fill="#6B9C7D" transform="translate(155,64)"/>
<path d="M0 0 C0.33 0.66 0.66 1.32 1 2 C1.66 2 2.32 2 3 2 C3 2.66 3 3.32 3 4 C4.98 4 6.96 4 9 4 C9 4.66 9 5.32 9 6 C5.625 6.1875 5.625 6.1875 2 6 C0 3 0 3 0 0 Z " fill="#286133" transform="translate(19,68)"/>
<path d="M0 0 C1.32 0.66 2.64 1.32 4 2 C3.01 2 2.02 2 1 2 C1 2.99 1 3.98 1 5 C1.99 5.33 2.98 5.66 4 6 C2.02 6 0.04 6 -2 6 C-1.125 1.125 -1.125 1.125 0 0 Z " fill="#276137" transform="translate(32,68)"/>
<path d="M0 0 C1.65 0 3.3 0 5 0 C5 0.66 5 1.32 5 2 C6.65 2 8.3 2 10 2 C10 2.66 10 3.32 10 4 C6.6875 4.25 6.6875 4.25 3 4 C1.0625 2 1.0625 2 0 0 Z " fill="#DAECE1" transform="translate(159,64)"/>
<path d="M0 0 C0.33 0 0.66 0 1 0 C1.33 3.96 1.66 7.92 2 12 C1.01 12 0.02 12 -1 12 C-1.14285714 3.42857143 -1.14285714 3.42857143 0 0 Z " fill="#086E2A" transform="translate(179,36)"/>
<path d="M0 0 C2.38564077 0.57584432 4.66682784 1.22227595 7 2 C7 2.99 7 3.98 7 5 C4.625 4.75 4.625 4.75 2 4 C0.6875 1.9375 0.6875 1.9375 0 0 Z " fill="#247041" transform="translate(169,48)"/>
<path d="M0 0 C1.32 0 2.64 0 4 0 C4 1.65 4 3.3 4 5 C2.68 5 1.36 5 0 5 C0 3.35 0 1.7 0 0 Z " fill="#E5EFEA" transform="translate(98,67)"/>
<path d="M0 0 C0.66 1.32 1.32 2.64 2 4 C3.65 4 5.3 4 7 4 C7 4.66 7 5.32 7 6 C4.69 6 2.38 6 0 6 C0 4.02 0 2.04 0 0 Z " fill="#1D6330" transform="translate(210,68)"/>
<path d="M0 0 C0.33 1.32 0.66 2.64 1 4 C2.32 4 3.64 4 5 4 C5 5.32 5 6.64 5 8 C4.34 8 3.68 8 3 8 C3 7.34 3 6.68 3 6 C2.34 5.67 1.68 5.34 1 5 C1 5.66 1 6.32 1 7 C0.01 6.67 -0.98 6.34 -2 6 C-1.34 4.02 -0.68 2.04 0 0 Z " fill="#CDE8D6" transform="translate(129,62)"/>
<path d="M0 0 C-0.66 1.98 -1.32 3.96 -2 6 C-2.99 6 -3.98 6 -5 6 C-5.33 5.01 -5.66 4.02 -6 3 C-2.25 0 -2.25 0 0 0 Z " fill="#189145" transform="translate(210,18)"/>
<path d="M0 0 C1.32 0 2.64 0 4 0 C4 1.98 4 3.96 4 6 C2.68 5.67 1.36 5.34 0 5 C0 3.35 0 1.7 0 0 Z " fill="#F9F9FD" transform="translate(214,67)"/>
<path d="M0 0 C0.99 0 1.98 0 3 0 C2.40138258 2.35171131 1.73075648 4.6859378 1 7 C0.01 7.495 0.01 7.495 -1 8 C-1.04241723 5.66705225 -1.04092937 3.33297433 -1 1 C-0.67 0.67 -0.34 0.34 0 0 Z " fill="#2E6944" transform="translate(237,64)"/>
<path d="M0 0 C1.32 0.33 2.64 0.66 4 1 C4.33 2.32 4.66 3.64 5 5 C2.36 5 -0.28 5 -3 5 C-3 4.67 -3 4.34 -3 4 C-1.35 4 0.3 4 2 4 C1.34 2.68 0.68 1.36 0 0 Z " fill="#14522A" transform="translate(246,65)"/>
<path d="M0 0 C1.98 0 3.96 0 6 0 C6 0.66 6 1.32 6 2 C6.66 2.33 7.32 2.66 8 3 C5.36 3 2.72 3 0 3 C0 2.01 0 1.02 0 0 Z " fill="#1A7D3E" transform="translate(20,32)"/>
<path d="M0 0 C1.32 0.33 2.64 0.66 4 1 C3.34 1 2.68 1 2 1 C2.33 2.65 2.66 4.3 3 6 C2.01 6 1.02 6 0 6 C0 5.34 0 4.68 0 4 C-0.66 3.67 -1.32 3.34 -2 3 C-1.34 3 -0.68 3 0 3 C0 2.01 0 1.02 0 0 Z " fill="#C1DBCE" transform="translate(258,64)"/>
<path d="M0 0 C2.31 0.33 4.62 0.66 7 1 C7.33 1.99 7.66 2.98 8 4 C7.01 4 6.02 4 5 4 C5 3.34 5 2.68 5 2 C3.35 2 1.7 2 0 2 C0 1.34 0 0.68 0 0 Z " fill="#205E3D" transform="translate(164,64)"/>
<path d="M0 0 C1.32 0.33 2.64 0.66 4 1 C3.67 2.32 3.34 3.64 3 5 C2.01 5 1.02 5 0 5 C0 3.35 0 1.7 0 0 Z " fill="#C9E8D6" transform="translate(189,62)"/>
<path d="M0 0 C0.99 0 1.98 0 3 0 C3 1.98 3 3.96 3 6 C2.01 6 1.02 6 0 6 C0 4.02 0 2.04 0 0 Z " fill="#D7EBDE" transform="translate(216,24)"/>
<path d="M0 0 C0.6875 1.8125 0.6875 1.8125 1 4 C-0.4375 5.75 -0.4375 5.75 -2 7 C-3.32 6.34 -4.64 5.68 -6 5 C-5.01 4.67 -4.02 4.34 -3 4 C-1.31461399 2.00334686 -1.31461399 2.00334686 0 0 Z " fill="#407653" transform="translate(228,67)"/>
</svg>
