<?xml version="1.0" encoding="UTF-8"?>
<svg version="1.1" xmlns="http://www.w3.org/2000/svg" width="234" height="124">
<path d="M0 0 C77.22 0 154.44 0 234 0 C234 40.92 234 81.84 234 124 C156.78 124 79.56 124 0 124 C0 83.08 0 42.16 0 0 Z " fill="#FBFCFC" transform="translate(0,0)"/>
<path d="M0 0 C3.02508145 1.73602105 5.41790069 3.83580137 7 7 C7.0909215 8.8179454 7.11753467 10.63925945 7.11352539 12.45947266 C7.11344986 13.60050446 7.11337433 14.74153625 7.11329651 15.91714478 C7.10813522 17.15362762 7.10297394 18.39011047 7.09765625 19.6640625 C7.0962413 20.92640717 7.09482635 22.18875183 7.09336853 23.48934937 C7.08871078 26.84638299 7.07972408 30.203349 7.06866455 33.56036377 C7.0584377 36.98554906 7.05386818 40.41074134 7.04882812 43.8359375 C7.03778238 50.55731043 7.02103194 57.27865131 7 64 C4.69 64 2.38 64 0 64 C0 60.04 0 56.08 0 52 C-2.64 52 -5.28 52 -8 52 C-8 56.29 -8 60.58 -8 65 C-10.31 65 -12.62 65 -15 65 C-15 60.38 -15 55.76 -15 51 C-17.31 51 -19.62 51 -22 51 C-22.99 49.02 -23.98 47.04 -25 45 C-21.7 45 -18.4 45 -15 45 C-15.02618408 43.88028809 -15.05236816 42.76057617 -15.0793457 41.60693359 C-15.17012872 37.43623996 -15.22735061 33.26563291 -15.2746582 29.09423828 C-15.29973866 27.29200534 -15.33381188 25.48987349 -15.37719727 23.68798828 C-15.4381375 21.09121723 -15.46627346 18.49579535 -15.48828125 15.8984375 C-15.51408768 15.0982016 -15.5398941 14.2979657 -15.56648254 13.47348022 C-15.56853707 9.33708808 -15.24317292 6.77952912 -12.59448242 3.50634766 C-8.71335978 -0.24293296 -5.30549077 -0.90557542 0 0 Z " fill="#0B0A0B" transform="translate(142,17)"/>
<path d="M0 0 C2.31 0 4.62 0 7 0 C7 14.52 7 29.04 7 44 C9.97 44 12.94 44 16 44 C16 29.48 16 14.96 16 0 C18.31 0 20.62 0 23 0 C23 21.12 23 42.24 23 64 C20.69 64 18.38 64 16 64 C16 59.38 16 54.76 16 50 C13.03 50 10.06 50 7 50 C7 54.29 7 58.58 7 63 C4.69 63 2.38 63 0 63 C0 58.71 0 54.42 0 50 C-1.98 50 -3.96 50 -6 50 C-8.375 47 -8.375 47 -10 44 C-6.7 44 -3.4 44 0 44 C0 29.48 0 14.96 0 0 Z " fill="#090909" transform="translate(68,18)"/>
<path d="M0 0 C2.64 0 5.28 0 8 0 C8.14622803 0.84296631 8.29245605 1.68593262 8.44311523 2.55444336 C8.98599882 5.67284766 9.53242848 8.7906033 10.08129883 11.90795898 C10.31840807 13.25894539 10.55408976 14.61018314 10.78833008 15.96166992 C11.12468715 17.90087868 11.46655584 19.83912892 11.80859375 21.77734375 C12.01282959 22.94515381 12.21706543 24.11296387 12.42749023 25.31616211 C12.72576344 27.90710622 12.72576344 27.90710622 14 29 C15.65 19.43 17.3 9.86 19 0 C21.64 0 24.28 0 27 0 C26.88519287 0.5583252 26.77038574 1.11665039 26.65209961 1.69189453 C24.38422128 12.76871307 22.18993295 23.85403362 20.1796875 34.98046875 C19.94775444 36.26002441 19.94775444 36.26002441 19.71113586 37.56542969 C18.93663884 41.84252314 18.16934554 46.12073944 17.41186523 50.40087891 C17.12507046 51.99255506 16.83805254 53.58419103 16.55078125 55.17578125 C16.42383881 55.90709763 16.29689636 56.638414 16.16610718 57.39189148 C15.52900318 60.88820337 14.83391474 63.93157655 13 67 C12.84442627 66.15630859 12.68885254 65.31261719 12.52856445 64.44335938 C9.71568453 49.22387253 6.88514973 34.01558561 3.6496582 18.87890625 C2.31170842 12.6058021 1.11491322 6.31657578 0 0 Z " fill="#0F0F0F" transform="translate(95,18)"/>
<path d="M0 0 C8.78853085 0.15152639 15.5121283 3.66760954 23 8 C23.97610229 8.48859497 23.97610229 8.48859497 24.97192383 8.98706055 C27.04151373 10.16934683 28.47708323 11.15980891 30 13 C30.84287984 16.47837382 30.6659628 19.76002897 30.4375 23.3125 C30.40591797 24.24384766 30.37433594 25.17519531 30.34179688 26.13476562 C30.25953205 28.42642852 30.14471638 30.71157286 30 33 C29.34 33 28.68 33 28 33 C28 32.34 28 31.68 28 31 C27.43410156 30.73960938 26.86820313 30.47921875 26.28515625 30.2109375 C23.79268137 28.89013884 21.6884865 27.32343792 19.4375 25.625 C11.99818592 20.35502935 3.80474297 17.99352671 -5 16 C-4.58846263 11.02906176 -4.20399168 6.55491614 -2 2 C-1.34 2 -0.68 2 0 2 C0 1.34 0 0.68 0 0 Z " fill="#7AB5E5" transform="translate(171,30)"/>
<path d="M0 0 C1.23556641 0.01740234 1.23556641 0.01740234 2.49609375 0.03515625 C3.32238281 0.04417969 4.14867187 0.05320312 5 0.0625 C5.63808594 0.07410156 6.27617187 0.08570312 6.93359375 0.09765625 C5.64660023 2.92172259 4.27373976 4.93935258 2.12109375 7.16015625 C-5.61580152 16.24673104 -7.21295953 25.47576266 -6.6796875 37.12890625 C-5.77924602 47.03186685 -0.82470036 55.44041941 6.6484375 61.9609375 C7.07253906 62.33605469 7.49664062 62.71117187 7.93359375 63.09765625 C7.93359375 63.42765625 7.93359375 63.75765625 7.93359375 64.09765625 C4.39508132 64.81551021 1.45518144 64.97554492 -2.06640625 64.09765625 C-9.82067266 57.27653037 -13.73876082 46.86053639 -14.44140625 36.7578125 C-15.00887002 22.73716068 -11.92455803 12.18778328 -3.06640625 1.09765625 C-2.06640625 0.09765625 -2.06640625 0.09765625 0 0 Z " fill="#111112" transform="translate(171.06640625,17.90234375)"/>
<path d="M0 0 C1.65 0 3.3 0 5 0 C5.33 1.65 5.66 3.3 6 5 C6.66 5 7.32 5 8 5 C8 4.01 8 3.02 8 2 C11.50052891 -0.33368594 12.99614337 -0.24221979 17.125 -0.1875 C18.20007813 -0.18105469 19.27515625 -0.17460938 20.3828125 -0.16796875 C23 0 23 0 24 1 C24.0989294 3.16480797 24.129711 5.33293785 24.125 7.5 C24.12886719 9.27890625 24.12886719 9.27890625 24.1328125 11.09375 C24 14 24 14 23 15 C20.46950598 15.07313567 17.96695163 15.09247527 15.4375 15.0625 C14.72658203 15.05798828 14.01566406 15.05347656 13.28320312 15.04882812 C11.52209987 15.03700864 9.76103964 15.01907263 8 15 C7.67 14.01 7.34 13.02 7 12 C6.67 12.99 6.34 13.98 6 15 C4.02 15 2.04 15 0 15 C0 10.05 0 5.1 0 0 Z " fill="#1973B6" transform="translate(136,89)"/>
<path d="M0 0 C2.5625 0.1875 2.5625 0.1875 4.5625 2.1875 C4.73767747 4.91235728 4.79399133 7.53409362 4.7578125 10.2578125 C4.7549826 11.05404022 4.75215271 11.85026794 4.74923706 12.67062378 C4.7380264 15.21806763 4.71292062 17.76516211 4.6875 20.3125 C4.67747133 22.03775535 4.66834528 23.76301619 4.66015625 25.48828125 C4.63808422 29.72148914 4.60354867 33.9544353 4.5625 38.1875 C1.9225 38.1875 -0.7175 38.1875 -3.4375 38.1875 C-3.46214928 32.93644558 -3.48033568 27.68542455 -3.49243164 22.43432617 C-3.49747218 20.64655979 -3.50430454 18.85879755 -3.51293945 17.07104492 C-3.5250173 14.50698832 -3.53073094 11.94298603 -3.53515625 9.37890625 C-3.54031754 8.5747377 -3.54547882 7.77056915 -3.55079651 6.94203186 C-3.55099215 5.02348285 -3.49951983 3.10504632 -3.4375 1.1875 C-2.4375 0.1875 -2.4375 0.1875 0 0 Z " fill="#EDF4F4" transform="translate(137.4375,23.8125)"/>
<path d="M0 0 C0.33 0 0.66 0 1 0 C1 11.55 1 23.1 1 35 C-3.455 35.495 -3.455 35.495 -8 36 C-8.33 36.99 -8.66 37.98 -9 39 C-10.32 38.34 -11.64 37.68 -13 37 C-12.48462048 29.86606248 -11.55994099 22.98187183 -10 16 C-9.67 16.99 -9.34 17.98 -9 19 C-5.87802522 17.6910428 -5.87802522 17.6910428 -4 15 C-2.68 15 -1.36 15 0 15 C0 10.05 0 5.1 0 0 Z " fill="#E3EBEC" transform="translate(126,27)"/>
<path d="M0 0 C3.03476409 1.13803653 5.84666858 2.45569408 8.6875 4 C19.18180468 9.18906578 30.59316508 8.21080393 42 8 C42 6.68 42 5.36 42 4 C40.35 4 38.7 4 37 4 C37 3.67 37 3.34 37 3 C38.98 3 40.96 3 43 3 C43 4.98 43 6.96 43 9 C42.34 9 41.68 9 41 9 C41 11.31 41 13.62 41 16 C21.48718668 16.77278469 21.48718668 16.77278469 12 12 C10.99710938 11.50628906 9.99421875 11.01257813 8.9609375 10.50390625 C1.38643092 6.57964638 1.38643092 6.57964638 -1 3 C3.32104659 4.65601607 7.32543497 6.70153975 11.40234375 8.87890625 C14.26876474 10.1159932 16.91357188 10.60015706 20 11 C19.14277344 10.69707031 18.28554688 10.39414063 17.40234375 10.08203125 C10.91116225 7.70363893 5.32065536 5.45450217 0 1 C0 0.67 0 0.34 0 0 Z " fill="#82AFCF" transform="translate(25,65)"/>
<path d="M0 0 C0.680625 -0.00515625 1.36125 -0.0103125 2.0625 -0.015625 C4 0.25 4 0.25 7 2.25 C7.328125 5.25390625 7.328125 5.25390625 7.25 8.8125 C7.22679688 10.57787109 7.22679688 10.57787109 7.203125 12.37890625 C7 15.25 7 15.25 6 16.25 C4.00200428 16.34873816 2.00042842 16.37971799 0 16.375 C-1.093125 16.37757812 -2.18625 16.38015625 -3.3125 16.3828125 C-6 16.25 -6 16.25 -7 15.25 C-7.15154969 13.1079034 -7.22177745 10.95976538 -7.25 8.8125 C-7.27578125 7.63816406 -7.3015625 6.46382813 -7.328125 5.25390625 C-7.21984375 4.26261719 -7.1115625 3.27132812 -7 2.25 C-4.00261059 0.25174039 -3.36652492 -0.02550398 0 0 Z " fill="#2772B1" transform="translate(78,87.75)"/>
<path d="M0 0 C2.97 1.65 5.94 3.3 9 5 C9 3.35 9 1.7 9 0 C10.32 0 11.64 0 13 0 C13 4.95 13 9.9 13 15 C11.68 15 10.36 15 9 15 C9 12.69 9 10.38 9 8 C6.525 7.01 6.525 7.01 4 6 C4 8.97 4 11.94 4 15 C2.68 15 1.36 15 0 15 C0 10.05 0 5.1 0 0 Z " fill="#2E7AB6" transform="translate(166,89)"/>
<path d="M0 0 C1.65 0 3.3 0 5 0 C5.33 1.65 5.66 3.3 6 5 C6.66 5 7.32 5 8 5 C8 4.01 8 3.02 8 2 C8.66 2 9.32 2 10 2 C10.33 6.29 10.66 10.58 11 15 C10.01 15 9.02 15 8 15 C7.67 14.01 7.34 13.02 7 12 C6.67 12.99 6.34 13.98 6 15 C4.02 15 2.04 15 0 15 C0 10.05 0 5.1 0 0 Z " fill="#E3F1F5" transform="translate(136,89)"/>
<path d="M0 0 C1.32 0 2.64 0 4 0 C4 4.62 4 9.24 4 14 C5.65 14 7.3 14 9 14 C9 9.38 9 4.76 9 0 C10.32 0 11.64 0 13 0 C13.02685412 2.31243792 13.04632841 4.6249627 13.0625 6.9375 C13.07410156 8.22527344 13.08570312 9.51304688 13.09765625 10.83984375 C13 14 13 14 12 15 C10.16884117 15.09851171 8.33380067 15.12972629 6.5 15.125 C5.4996875 15.12757812 4.499375 15.13015625 3.46875 15.1328125 C1 15 1 15 0 14 C-0.07271741 11.64686445 -0.08370868 9.29166332 -0.0625 6.9375 C-0.05347656 5.64714844 -0.04445313 4.35679688 -0.03515625 3.02734375 C-0.02355469 2.02832031 -0.01195313 1.02929688 0 0 Z " fill="#257ABA" transform="translate(105,89)"/>
<path d="M0 0 C11.16450299 0.19249143 20.76460557 5.75185316 29 13 C28.67 14.32 28.34 15.64 28 17 C27.38253906 16.54109375 26.76507813 16.0821875 26.12890625 15.609375 C17.38754319 9.27621089 9.6743595 5.69363533 -1 4 C-0.67 2.68 -0.34 1.36 0 0 Z " fill="#2582CD" transform="translate(171,30)"/>
<path d="M0 0 C0.33 0.99 0.66 1.98 1 3 C1.94875 2.505 2.8975 2.01 3.875 1.5 C7 0 7 0 9 0 C9 4.29 9 8.58 9 13 C1.125 17 1.125 17 0 17 C0 11.39 0 5.78 0 0 Z " fill="#81B4DA" transform="translate(116,43)"/>
<path d="M0 0 C0.66 0.33 1.32 0.66 2 1 C2.33333333 2.66666667 2.66666667 4.33333333 3 6 C3.66 6.33 4.32 6.66 5 7 C5 7.99 5 8.98 5 10 C3.3767313 10.6708712 1.75132422 11.33657029 0.125 12 C-1.23238281 12.556875 -1.23238281 12.556875 -2.6171875 13.125 C-5 14 -5 14 -7 14 C-7 10.7 -7 7.4 -7 4 C-1.7265625 0.77734375 -1.7265625 0.77734375 0 0 Z " fill="#77B2E6" transform="translate(100,57)"/>
<path d="M0 0 C0.33 0 0.66 0 1 0 C1.33 5.94 1.66 11.88 2 18 C3.98 17.34 5.96 16.68 8 16 C8 19.96 8 23.92 8 28 C5.36 28 2.72 28 0 28 C0 18.76 0 9.52 0 0 Z " fill="#FAFDFD" transform="translate(134,34)"/>
<path d="M0 0 C3.03476409 1.13803653 5.84666858 2.45569408 8.6875 4 C18.06690809 8.68100329 28.73276406 8.51593677 39 9 C39 9.66 39 10.32 39 11 C28.76154662 14.41281779 18.43847476 11.36840679 9 7 C5.83104393 5.20511702 2.7981008 3.33915305 0 1 C0 0.67 0 0.34 0 0 Z " fill="#2D76A6" transform="translate(25,65)"/>
<path d="M0 0 C2.97 0 5.94 0 9 0 C9 4.29 9 8.58 9 13 C7.68 13.33 6.36 13.66 5 14 C5.33 12.68 5.66 11.36 6 10 C4.35 10 2.7 10 1 10 C1.03255208 7.98177083 1.06510417 5.96354167 1.09765625 3.9453125 C1.12649242 1.91814596 1.12649242 1.91814596 0 0 Z " fill="#D0D9DB" transform="translate(75,68)"/>
<path d="M0 0 C2.4375 0.8125 2.4375 0.8125 5 2 C5.33 2.99 5.66 3.98 6 5 C15.21054219 11.86275692 26.52574756 15.70917793 38 16 C38 16.33 38 16.66 38 17 C26.61589593 17.59452768 17.91788924 15.60302153 8.3046875 9.4296875 C5.30958825 7.57171068 2.27665378 6.28216887 -1 5 C-0.67 3.35 -0.34 1.7 0 0 Z " fill="#BDEFFA" transform="translate(20,61)"/>
<path d="M0 0 C-0.30679688 0.52078125 -0.61359375 1.0415625 -0.9296875 1.578125 C-2.27248151 4.61656401 -2.6649441 7.46388645 -3.125 10.75 C-3.37636719 12.50570312 -3.37636719 12.50570312 -3.6328125 14.296875 C-3.75398437 15.18890625 -3.87515625 16.0809375 -4 17 C-5.32 17 -6.64 17 -8 17 C-8 11.72 -8 6.44 -8 1 C-5.29120665 -0.35439668 -2.99066732 -0.06501451 0 0 Z " fill="#71B5E8" transform="translate(159,30)"/>
<path d="M0 0 C1.98 0 3.96 0 6 0 C6 3.96 6 7.92 6 12 C4.35 12.33 2.7 12.66 1 13 C0 12 0 12 -0.09765625 9.27734375 C-0.08605469 8.17519531 -0.07445313 7.07304688 -0.0625 5.9375 C-0.05347656 4.83277344 -0.04445313 3.72804688 -0.03515625 2.58984375 C-0.02355469 1.73519531 -0.01195313 0.88054687 0 0 Z " fill="#B9E8FB" transform="translate(75,90)"/>
<path d="M0 0 C1.65 0 3.3 0 5 0 C5 3.96 5 7.92 5 12 C3.35 12.33 1.7 12.66 0 13 C-1 12 -1 12 -1.1328125 9.53125 C-1.13023437 8.5309375 -1.12765625 7.530625 -1.125 6.5 C-1.12757813 5.4996875 -1.13015625 4.499375 -1.1328125 3.46875 C-1 1 -1 1 0 0 Z " fill="#C9E5EE" transform="translate(151,90)"/>
<path d="M0 0 C1.32 0 2.64 0 4 0 C4 4.29 4 8.58 4 13 C6.31 13 8.62 13 11 13 C11 13.66 11 14.32 11 15 C9.35425434 15.02688151 7.70838587 15.04634123 6.0625 15.0625 C5.14597656 15.07410156 4.22945313 15.08570312 3.28515625 15.09765625 C1 15 1 15 0 14 C-0.07271741 11.64686445 -0.08370868 9.29166332 -0.0625 6.9375 C-0.05347656 5.64714844 -0.04445313 4.35679688 -0.03515625 3.02734375 C-0.02355469 2.02832031 -0.01195313 1.02929688 0 0 Z " fill="#317DBA" transform="translate(91,89)"/>
<path d="M0 0 C4.62 0 9.24 0 14 0 C14 0.33 14 0.66 14 1 C12.35 1 10.7 1 9 1 C9 5.62 9 10.24 9 15 C7.68 15 6.36 15 5 15 C5 10.38 5 5.76 5 1 C3.35 1 1.7 1 0 1 C0 0.67 0 0.34 0 0 Z " fill="#2774AC" transform="translate(120,89)"/>
<path d="M0 0 C1.258125 -0.04125 2.51625 -0.0825 3.8125 -0.125 C4.52019531 -0.14820312 5.22789063 -0.17140625 5.95703125 -0.1953125 C8 0 8 0 11 2 C11.29296875 5.0390625 11.29296875 5.0390625 11.1875 8.625 C11.16042969 9.81351563 11.13335937 11.00203125 11.10546875 12.2265625 C11.07066406 13.14179687 11.03585938 14.05703125 11 15 C10.01 15.33 9.02 15.66 8 16 C7.34 15.34 6.68 14.68 6 14 C6.0234375 10.9609375 6.0234375 10.9609375 6.375 7.375 C6.54128906 5.59222656 6.54128906 5.59222656 6.7109375 3.7734375 C6.85402344 2.40058594 6.85402344 2.40058594 7 1 C4.69 1 2.38 1 0 1 C0 0.67 0 0.34 0 0 Z " fill="#3581B6" transform="translate(74,88)"/>
<path d="M0 0 C0.78375 0.04125 1.5675 0.0825 2.375 0.125 C1.385 1.61 1.385 1.61 0.375 3.125 C0.375 4.445 0.375 5.765 0.375 7.125 C1.1484375 7.8365625 1.1484375 7.8365625 1.9375 8.5625 C2.411875 9.078125 2.88625 9.59375 3.375 10.125 C3.0625 12.8125 3.0625 12.8125 2.375 15.125 C0.725 15.125 -0.925 15.125 -2.625 15.125 C-2.398125 14.361875 -2.17125 13.59875 -1.9375 12.8125 C-1.834375 11.925625 -1.73125 11.03875 -1.625 10.125 C-2.60350195 9.10395449 -3.60480427 8.1043879 -4.625 7.125 C-4.9375 4.5625 -4.9375 4.5625 -4.625 2.125 C-2.625 0.125 -2.625 0.125 0 0 Z " fill="#2779B9" transform="translate(62.625,88.875)"/>
<path d="M0 0 C1.32 0 2.64 0 4 0 C4 4.95 4 9.9 4 15 C2.68 15 1.36 15 0 15 C0 10.05 0 5.1 0 0 Z " fill="#1B77C0" transform="translate(136,89)"/>
<path d="M0 0 C0 4.95 0 9.9 0 15 C-1.32 15.33 -2.64 15.66 -4 16 C-4.08075665 13.70890403 -4.13907731 11.41700733 -4.1875 9.125 C-4.22230469 7.84882812 -4.25710937 6.57265625 -4.29296875 5.2578125 C-4.19628906 4.18273438 -4.09960938 3.10765625 -4 2 C-1 0 -1 0 0 0 Z " fill="#609DCF" transform="translate(140,35)"/>
<path d="M0 0 C4 2 4 2 4.77734375 3.828125 C5.02447639 6.23875212 4.88030683 8.3487928 4.5625 10.75 C4.46066406 11.54921875 4.35882813 12.3484375 4.25390625 13.171875 C4.12822266 14.07679687 4.12822266 14.07679687 4 15 C2.68 15 1.36 15 0 15 C0 10.05 0 5.1 0 0 Z " fill="#2383CB" transform="translate(166,89)"/>
<path d="M0 0 C0.99 0.33 1.98 0.66 3 1 C3 5.29 3 9.58 3 14 C1.68 14.33 0.36 14.66 -1 15 C-1.33 14.34 -1.66 13.68 -2 13 C-1.34 13 -0.68 13 0 13 C0 8.71 0 4.42 0 0 Z " fill="#3087C7" transform="translate(157,89)"/>
<path d="M0 0 C1.65 0 3.3 0 5 0 C5 0.66 5 1.32 5 2 C6.65 1.67 8.3 1.34 10 1 C10 2.65 10 4.3 10 6 C7.0280615 4.87548273 4.66559313 3.77706209 2 2 C1.67 6.62 1.34 11.24 1 16 C0.67 16 0.34 16 0 16 C0 10.72 0 5.44 0 0 Z " fill="#B0D0E1" transform="translate(165,88)"/>
<path d="M0 0 C2.16235504 3.24353256 2.21879428 3.61944481 1.7578125 7.23046875 C1.66113281 8.03291016 1.56445312 8.83535156 1.46484375 9.66210938 C1.35269531 10.49548828 1.24054688 11.32886719 1.125 12.1875 C1.02058594 13.03248047 0.91617188 13.87746094 0.80859375 14.74804688 C0.54940443 16.83334275 0.27605197 18.91686936 0 21 C-0.33 21 -0.66 21 -1 21 C-1 19.02 -1 17.04 -1 15 C-2.65 15 -4.3 15 -6 15 C-4.68 14.67 -3.36 14.34 -2 14 C-1.93941406 13.07316406 -1.87882813 12.14632812 -1.81640625 11.19140625 C-1.73261719 9.99386719 -1.64882812 8.79632813 -1.5625 7.5625 C-1.48128906 6.36753906 -1.40007812 5.17257813 -1.31640625 3.94140625 C-1 1 -1 1 0 0 Z " fill="#C0D1D5" transform="translate(157,33)"/>
<path d="M0 0 C1.32 0 2.64 0 4 0 C4 2.97 4 5.94 4 9 C2.68 9 1.36 9 0 9 C0 6.03 0 3.06 0 0 Z " fill="#F2F9F6" transform="translate(76,94)"/>
<path d="M0 0 C1.65 0 3.3 0 5 0 C5 2.31 5 4.62 5 7 C3.35 7 1.7 7 0 7 C0 4.69 0 2.38 0 0 Z " fill="#76A9CC" transform="translate(77,70)"/>
<path d="M0 0 C1.32 0.99 2.64 1.98 4 3 C3.67 4.32 3.34 5.64 3 7 C3.99 7.66 4.98 8.32 6 9 C4.02 9 2.04 9 0 9 C0 8.34 0 7.68 0 7 C-0.66 7 -1.32 7 -2 7 C-1.34 4.69 -0.68 2.38 0 0 Z " fill="#E3F1F2" transform="translate(58,96)"/>
<path d="M0 0 C2.4375 0.8125 2.4375 0.8125 5 2 C5.33 2.99 5.66 3.98 6 5 C6.66 5.66 7.32 6.32 8 7 C2.375 7.25 2.375 7.25 -1 5 C-0.67 3.35 -0.34 1.7 0 0 Z " fill="#D1DDE2" transform="translate(20,61)"/>
<path d="M0 0 C0.99 0.66 1.98 1.32 3 2 C2.34 2 1.68 2 1 2 C1 2.66 1 3.32 1 4 C0.34 4 -0.32 4 -1 4 C-1.12375 4.639375 -1.2475 5.27875 -1.375 5.9375 C-2.1979822 9.97011276 -3.09885975 13.98423907 -4 18 C-6 15 -6 15 -5.9375 12.375 C-4.67097415 7.81550694 -2.43032506 4.03559512 0 0 Z " fill="#DBE9EC" transform="translate(170,28)"/>
<path d="M0 0 C1.32 0 2.64 0 4 0 C4 0.66 4 1.32 4 2 C4.66 2.33 5.32 2.66 6 3 C4.35 3.66 2.7 4.32 1 5 C1.33 8.63 1.66 12.26 2 16 C1.34 16 0.68 16 0 16 C0 10.72 0 5.44 0 0 Z " fill="#D7EBF9" transform="translate(92,56)"/>
<path d="M0 0 C0.99 0 1.98 0 3 0 C3 3.3 3 6.6 3 10 C2.01 10 1.02 10 0 10 C0 6.7 0 3.4 0 0 Z " fill="#F6FCFD" transform="translate(151,92)"/>
<path d="M0 0 C0.33 1.32 0.66 2.64 1 4 C-0.32 4.33 -1.64 4.66 -3 5 C-3 5.66 -3 6.32 -3 7 C-4.32 7.33 -5.64 7.66 -7 8 C-7 6.68 -7 5.36 -7 4 C-4.69 2.68 -2.38 1.36 0 0 Z " fill="#2F79B5" transform="translate(100,57)"/>
<path d="M0 0 C3.99500618 1.3697164 6.80009492 3.25722422 10 6 C9.67 7.32 9.34 8.64 9 10 C6.95880212 8.38405168 4.95927063 6.7143618 3 5 C3 4.34 3 3.68 3 3 C1.54166642 1.37485532 1.54166642 1.37485532 0 0 Z " fill="#2278BB" transform="translate(190,37)"/>
<path d="M0 0 C0 0.66 0 1.32 0 2 C-3.42232972 3.14077657 -6.08673217 3.09815117 -9.6875 3.0625 C-11.45673828 3.04896484 -11.45673828 3.04896484 -13.26171875 3.03515625 C-14.16535156 3.02355469 -15.06898437 3.01195313 -16 3 C-16 2.67 -16 2.34 -16 2 C-14.08404518 1.66259915 -12.16720278 1.33023588 -10.25 1 C-9.18265625 0.814375 -8.1153125 0.62875 -7.015625 0.4375 C-4 0 -4 0 0 0 Z " fill="#368BC4" transform="translate(64,74)"/>
<path d="M0 0 C2.97 0.33 5.94 0.66 9 1 C7.02 1.99 7.02 1.99 5 3 C5.66 3.66 6.32 4.32 7 5 C4.36 4.67 1.72 4.34 -1 4 C-0.67 2.68 -0.34 1.36 0 0 Z " fill="#3489C4" transform="translate(171,30)"/>
<path d="M0 0 C-0.625 1.9375 -0.625 1.9375 -2 4 C-5.125 4.75 -5.125 4.75 -8 5 C-8 3.68 -8 2.36 -8 1 C-5.29120665 -0.35439668 -2.99066732 -0.06501451 0 0 Z " fill="#357FBC" transform="translate(159,30)"/>
<path d="M0 0 C-0.33 1.65 -0.66 3.3 -1 5 C-2.98 5.66 -4.96 6.32 -7 7 C-7 5.68 -7 4.36 -7 3 C-2.92857143 0 -2.92857143 0 0 0 Z " fill="#327EBE" transform="translate(125,43)"/>
<path d="M0 0 C0.33 0 0.66 0 1 0 C1 2.97 1 5.94 1 9 C1.66 9 2.32 9 3 9 C3.33 7.68 3.66 6.36 4 5 C4 7.31 4 9.62 4 12 C2.68 12 1.36 12 0 12 C0 8.04 0 4.08 0 0 Z " fill="#8FB1C1" transform="translate(151,35)"/>
<path d="M0 0 C0.33 0 0.66 0 1 0 C1 3.3 1 6.6 1 10 C-0.98 10.66 -2.96 11.32 -5 12 C-4.67 11.34 -4.34 10.68 -4 10 C-3.34 10 -2.68 10 -2 10 C-2 8.68 -2 7.36 -2 6 C-1.34 6 -0.68 6 0 6 C0 4.02 0 2.04 0 0 Z " fill="#86B1CA" transform="translate(124,46)"/>
<path d="M0 0 C0.33 0 0.66 0 1 0 C1.25 2.8125 1.25 2.8125 1 6 C-1 7.875 -1 7.875 -3 9 C-2.67 6.69 -2.34 4.38 -2 2 C-1.34 2 -0.68 2 0 2 C0 1.34 0 0.68 0 0 Z " fill="#090408" transform="translate(161,34)"/>
<path d="M0 0 C3.95820859 0.56545837 6.6659053 1.80902348 10 4 C9.67 4.66 9.34 5.32 9 6 C7.68397477 5.38245741 6.37226444 4.75571258 5.0625 4.125 C4.33160156 3.77695313 3.60070312 3.42890625 2.84765625 3.0703125 C1 2 1 2 0 0 Z " fill="#E3F6F9" transform="translate(26,68)"/>
<path d="M0 0 C0.66 0.33 1.32 0.66 2 1 C2 1.99 2 2.98 2 4 C-2.455 5.485 -2.455 5.485 -7 7 C-7 6.34 -7 5.68 -7 5 C-5.5459375 4.5978125 -5.5459375 4.5978125 -4.0625 4.1875 C-3.051875 3.795625 -2.04125 3.40375 -1 3 C-0.67 2.01 -0.34 1.02 0 0 Z " fill="#A3B9CD" transform="translate(103,63)"/>
<path d="M0 0 C3.63 0 7.26 0 11 0 C11.33 1.32 11.66 2.64 12 4 C11.34 4 10.68 4 10 4 C9.67 3.34 9.34 2.68 9 2 C6.87423218 1.53348793 6.87423218 1.53348793 4.4375 1.375 C3.61121094 1.30023438 2.78492188 1.22546875 1.93359375 1.1484375 C1.29550781 1.09945312 0.65742188 1.05046875 0 1 C0 0.67 0 0.34 0 0 Z " fill="#B7DEEC" transform="translate(150,88)"/>
</svg>
