<?xml version="1.0" encoding="UTF-8"?>
<svg version="1.1" xmlns="http://www.w3.org/2000/svg" width="286" height="48">
<path d="M0 0 C94.38 0 188.76 0 286 0 C286 15.84 286 31.68 286 48 C191.62 48 97.24 48 0 48 C0 32.16 0 16.32 0 0 Z " fill="#FAFDFD" transform="translate(0,0)"/>
<path d="M0 0 C5.46362689 2.20231959 9.6211949 5.54857164 12 11 C12.76991822 17.43368447 12.95489259 23.59498012 9 29 C3.22084754 34.64045281 -0.78270482 35.39933588 -8.72265625 35.35546875 C-13.55152366 34.83171793 -15.48559921 33.28520074 -19 30 C-19.39574219 29.46375 -19.79148437 28.9275 -20.19921875 28.375 C-23.0448975 26.20216069 -26.23759715 26.42524192 -29.6875 26.3125 C-30.7403418 26.26125977 -30.7403418 26.26125977 -31.81445312 26.20898438 C-33.54241387 26.12670053 -35.27118072 26.0616676 -37 26 C-37 25.34 -37 24.68 -37 24 C-38.258125 24.061875 -39.51625 24.12375 -40.8125 24.1875 C-44.78111275 24.20137627 -44.78111275 24.20137627 -46.5625 22.5625 C-47.036875 22.046875 -47.51125 21.53125 -48 21 C-51.61023099 20.26958147 -51.61023099 20.26958147 -55 20 C-55.33 19.01 -55.66 18.02 -56 17 C-56.93972656 17.05220703 -56.93972656 17.05220703 -57.8984375 17.10546875 C-58.71570313 17.13253906 -59.53296875 17.15960937 -60.375 17.1875 C-61.18710937 17.22230469 -61.99921875 17.25710937 -62.8359375 17.29296875 C-63.55007812 17.19628906 -64.26421875 17.09960938 -65 17 C-65.66 16.01 -66.32 15.02 -67 14 C-63.37 13.67 -59.74 13.34 -56 13 C-62.27 12.67 -68.54 12.34 -75 12 C-75.33 11.01 -75.66 10.02 -76 9 C-66.76 8.67 -57.52 8.34 -48 8 C-60.54 7.67 -73.08 7.34 -86 7 C-86 5.68 -86 4.36 -86 3 C-77.59413885 2.97682497 -69.18829106 2.95905857 -60.78240585 2.94818783 C-56.87917705 2.94297031 -52.97597012 2.93589316 -49.07275391 2.92456055 C-45.30561356 2.91369153 -41.53849424 2.90771463 -37.77133942 2.90512276 C-36.33444131 2.90327576 -34.89754436 2.89966905 -33.46065521 2.89426994 C-31.44741438 2.88700637 -29.43415237 2.88659149 -27.42089844 2.88647461 C-26.27506287 2.884254 -25.12922729 2.88203339 -23.94866943 2.87974548 C-21 3 -21 3 -18.79400635 3.62818909 C-16.6594587 4.28526788 -16.6594587 4.28526788 -13.875 2.0625 C-9.36698189 -0.6982991 -5.15416414 -0.92758823 0 0 Z " fill="#22A58A" transform="translate(88,5)"/>
<path d="M0 0 C4.67071628 2.16690608 7.35965876 4.97157316 10.0625 9.3125 C11.57416797 15.25839402 11.05006271 19.77386706 8.4375 25.3125 C4.71330721 29.41866128 1.10266122 31.7135258 -4.49609375 32.23046875 C-10.13251806 31.99883487 -13.5244872 30.5023425 -17.625 26.66796875 C-21.08566606 22.46994486 -21.43766539 18.84686266 -21.3125 13.53515625 C-20.66686519 8.29744387 -18.25414889 5.1929709 -14.4375 1.5625 C-9.52250758 -0.67158747 -5.30520646 -0.98439383 0 0 Z " fill="#E7F7F8" transform="translate(88,7)"/>
<path d="M0 0 C11.55 0 23.1 0 35 0 C35 2.64 35 5.28 35 8 C25.76 8 16.52 8 7 8 C7 9.65 7 11.3 7 13 C16.24 13 25.48 13 35 13 C35 15.64 35 18.28 35 21 C31.62566415 21.1753252 28.25250732 21.28118035 24.875 21.375 C23.92367187 21.42527344 22.97234375 21.47554687 21.9921875 21.52734375 C20.6 21.55634766 20.6 21.55634766 19.1796875 21.5859375 C17.90714111 21.63306885 17.90714111 21.63306885 16.60888672 21.68115234 C14 21 14 21 8 15 C7.67 21.6 7.34 28.2 7 35 C4.69 35 2.38 35 0 35 C0 23.45 0 11.9 0 0 Z " fill="#23A68C" transform="translate(177,5)"/>
<path d="M0 0 C9 6.75 9 6.75 13 10.875 C13.763125 11.65617187 14.52625 12.43734375 15.3125 13.2421875 C16.1478125 14.11230469 16.1478125 14.11230469 17 15 C21.35210528 11.35844252 25.42889352 7.6433682 29.32421875 3.515625 C31 2 31 2 35 0 C35 11.22 35 22.44 35 34 C32.69 34 30.38 34 28 34 C28 28.39 28 22.78 28 17 C26.741875 18.11375 25.48375 19.2275 24.1875 20.375 C21.84047635 22.45269307 19.61613591 24.25590939 17 26 C16.44570312 25.43410156 15.89140625 24.86820313 15.3203125 24.28515625 C14.59585938 23.55167969 13.87140625 22.81820313 13.125 22.0625 C12.40570313 21.33160156 11.68640625 20.60070312 10.9453125 19.84765625 C9.12972808 17.94332001 9.12972808 17.94332001 7 17 C7 22.94 7 28.88 7 35 C4.69 35 2.38 35 0 35 C0 23.45 0 11.9 0 0 Z " fill="#1AA386" transform="translate(103,6)"/>
<path d="M0 0 C3.18077631 2.68075755 4.77006349 6.12369602 6.57421875 9.78515625 C6.90291458 10.44204941 7.23161041 11.09894257 7.57026672 11.77574158 C8.26139776 13.16033818 8.94958636 14.54640695 9.63500977 15.93383789 C10.68724004 18.06197423 11.7500929 20.18454941 12.81445312 22.30664062 C13.4850105 23.65332959 14.15495383 25.00032451 14.82421875 26.34765625 C15.14291428 26.98413589 15.4616098 27.62061554 15.78996277 28.27638245 C18 32.76894163 18 32.76894163 18 35 C11.07 35 4.14 35 -3 35 C-3.66 33.02 -4.32 31.04 -5 29 C-5.66 29 -6.32 29 -7 29 C-7.66 30.98 -8.32 32.96 -9 35 C-11.64 35 -14.28 35 -17 35 C-16.42847705 31.55277851 -15.57607513 28.81759033 -13.92578125 25.7421875 C-13.50796387 24.95626221 -13.09014648 24.17033691 -12.65966797 23.3605957 C-11.99281982 22.13022583 -11.99281982 22.13022583 -11.3125 20.875 C-10.86277832 20.03348389 -10.41305664 19.19196777 -9.94970703 18.32495117 C-8.64028567 15.87936581 -7.32195713 13.43882752 -6 11 C-5.6508252 10.35401855 -5.30165039 9.70803711 -4.94189453 9.04248047 C-3.30744876 6.02118066 -1.66190113 3.00628457 0 0 Z " fill="#1FA58A" transform="translate(157,6)"/>
<path d="M0 0 C1.98 0 3.96 0 6 0 C6 11.55 6 23.1 6 35 C0.31949926 31.2129995 -5.08604184 27.50236948 -10.375 23.25 C-15.08350881 19.48625673 -15.08350881 19.48625673 -20 16 C-20 22.27 -20 28.54 -20 35 C-21.98 35 -23.96 35 -26 35 C-26 23.78 -26 12.56 -26 1 C-23.0566458 2.4716771 -20.85179249 3.73955829 -18.28515625 5.6796875 C-17.59873047 6.19660156 -16.91230469 6.71351562 -16.20507812 7.24609375 C-15.14450195 8.05240234 -15.14450195 8.05240234 -14.0625 8.875 C-13.35931641 9.40480469 -12.65613281 9.93460938 -11.93164062 10.48046875 C-8.24024764 13.26890618 -4.6143262 16.10853904 -1 19 C-0.67 12.73 -0.34 6.46 0 0 Z " fill="#17A487" transform="translate(240,5)"/>
<path d="M0 0 C2.3807437 2.16254064 3.72226136 4.14247224 5.05078125 7.0625 C5.41695557 7.85462891 5.78312988 8.64675781 6.16040039 9.46289062 C6.54059326 10.30013672 6.92078613 11.13738281 7.3125 12 C10.30779586 18.4870496 13.39960071 24.79552209 17.00390625 30.96875 C18 33 18 33 18 36 C14.72963272 36.14510162 11.46008993 36.23399373 8.1875 36.3125 C7.25873047 36.35439453 6.32996094 36.39628906 5.37304688 36.43945312 C2.82388965 36.48546679 0.50536051 36.47778787 -2 36 C-4.18588262 33.55037286 -5 32.27508229 -5 29 C-1.04 29 2.92 29 7 29 C5.02 25.37 3.04 21.74 1 18 C-1.71967771 21.62623694 -3.71967437 25.20753565 -5.6875 29.25 C-6.00783203 29.8996875 -6.32816406 30.549375 -6.65820312 31.21875 C-7.44247141 32.81069757 -8.22174255 34.40510529 -9 36 C-11.64 36 -14.28 36 -17 36 C-15.58503846 31.3843831 -13.70520721 27.14423157 -11.5234375 22.8515625 C-11.19332672 22.19417084 -10.86321594 21.53677917 -10.52310181 20.85946655 C-9.47750603 18.77938683 -8.4263553 16.70217356 -7.375 14.625 C-6.6610881 13.20721762 -5.9475427 11.78925062 -5.234375 10.37109375 C-3.49381428 6.91191323 -1.74826918 3.45529063 0 0 Z " fill="#21A58B" transform="translate(265,5)"/>
<path d="M0 0 C0.6159668 1.78759766 0.6159668 1.78759766 0.94921875 3.9140625 C1.07490234 4.67460937 1.20058594 5.43515625 1.33007812 6.21875 C1.44802734 7.0128125 1.56597656 7.806875 1.6875 8.625 C1.81705078 9.42679688 1.94660156 10.22859375 2.08007812 11.0546875 C2.39828386 13.03463427 2.70065637 15.01711385 3 17 C0.47946405 18.26026798 -0.8542098 17.91874445 -3.625 17.5625 C-4.44226562 17.46066406 -5.25953125 17.35882812 -6.1015625 17.25390625 C-6.72804687 17.17011719 -7.35453125 17.08632813 -8 17 C-8 16.34 -8 15.68 -8 15 C-9.258125 15.061875 -10.51625 15.12375 -11.8125 15.1875 C-15.78111275 15.20137627 -15.78111275 15.20137627 -17.5625 13.5625 C-18.036875 13.046875 -18.51125 12.53125 -19 12 C-22.61023099 11.26958147 -22.61023099 11.26958147 -26 11 C-26.33 10.01 -26.66 9.02 -27 8 C-27.62648438 8.03480469 -28.25296875 8.06960937 -28.8984375 8.10546875 C-30.12433594 8.14607422 -30.12433594 8.14607422 -31.375 8.1875 C-32.18710937 8.22230469 -32.99921875 8.25710937 -33.8359375 8.29296875 C-34.55007812 8.19628906 -35.26421875 8.09960938 -36 8 C-36.66 7.01 -37.32 6.02 -38 5 C-32.555 4.505 -32.555 4.505 -27 4 C-33.27 3.67 -39.54 3.34 -46 3 C-46.33 2.01 -46.66 1.02 -47 0 C-40.78928751 -0.33505709 -34.57807176 -0.65618947 -28.3659668 -0.96435547 C-26.25216233 -1.07119035 -24.13854756 -1.18184896 -22.02514648 -1.29638672 C-18.98983669 -1.46022649 -15.95411355 -1.61036745 -12.91796875 -1.7578125 C-11.97100632 -1.81188263 -11.02404388 -1.86595276 -10.04838562 -1.92166138 C-9.16769913 -1.96185394 -8.28701263 -2.00204651 -7.37963867 -2.04345703 C-6.60464523 -2.08342804 -5.82965179 -2.12339905 -5.03117371 -2.1645813 C-3 -2 -3 -2 0 0 Z " fill="#88C0D8" transform="translate(59,14)"/>
<path d="M0 0 C13.2 0 26.4 0 40 0 C40 0.66 40 1.32 40 2 C39.34 2 38.68 2 38 2 C38 13.22 38 24.44 38 36 C39.98 36 41.96 36 44 36 C44 29.73 44 23.46 44 17 C44.66 17.33 45.32 17.66 46 18 C45.67 24.27 45.34 30.54 45 37 C42.36 37 39.72 37 37 37 C36 36 36 36 35.88647461 33.86694336 C35.89171143 32.95050049 35.89694824 32.03405762 35.90234375 31.08984375 C35.90484131 30.199021 35.90733887 29.30819824 35.90991211 28.39038086 C35.91901611 27.25093018 35.92812012 26.11147949 35.9375 24.9375 C35.958125 21.328125 35.97875 17.71875 36 14 C26.76 14 17.52 14 8 14 C8 12.35 8 10.7 8 9 C17.24 9 26.48 9 36 9 C36 6.36 36 3.72 36 1 C24.45 1 12.9 1 1 1 C1 12.55 1 24.1 1 36 C3.31 36 5.62 36 8 36 C8 36.33 8 36.66 8 37 C5.03 37 2.06 37 -1 37 C-1.66 35.35 -2.32 33.7 -3 32 C-2.34 31.67 -1.68 31.34 -1 31 C-0.67 20.77 -0.34 10.54 0 0 Z " fill="#C9ECE8" transform="translate(176,4)"/>
<path d="M0 0 C2.77160662 2.39366027 4.07263207 4.44508961 5 8 C5.11012615 13.95782459 4.09534628 18.48461821 0 23 C-5.08252112 26.87351494 -9.46330403 27.37767326 -15.703125 26.65234375 C-18.38944918 25.88939113 -19.98425716 24.92790084 -22 23 C-22 22.01 -22 21.02 -22 20 C-21.37609375 19.77570312 -20.7521875 19.55140625 -20.109375 19.3203125 C-17.27668841 17.54726052 -17.06744557 16.06303773 -16.25 12.875 C-16.00765625 11.96492188 -15.7653125 11.05484375 -15.515625 10.1171875 C-15.34546875 9.41851562 -15.1753125 8.71984375 -15 8 C-14.67 8 -14.34 8 -14 8 C-14 10.97 -14 13.94 -14 17 C-12.68 16.67 -11.36 16.34 -10 16 C-8.86929556 14.15272433 -8.86929556 14.15272433 -8.25 11.9375 C-8.00765625 11.20402344 -7.7653125 10.47054688 -7.515625 9.71484375 C-7.34546875 9.14894531 -7.1753125 8.58304688 -7 8 C-6.67 8 -6.34 8 -6 8 C-5.67 11.63 -5.34 15.26 -5 19 C-4.01 18.67 -3.02 18.34 -2 18 C-0.96259118 14.74625076 -0.96259118 14.74625076 -0.3125 10.9375 C-0.06113281 9.64714844 0.19023438 8.35679688 0.44921875 7.02734375 C0.63097656 6.02832031 0.81273438 5.02929688 1 4 C0.01 4 -0.98 4 -2 4 C-2 3.34 -2 2.68 -2 2 C-1.34 2 -0.68 2 0 2 C0 1.34 0 0.68 0 0 Z " fill="#EFFAFA" transform="translate(94,12)"/>
<path d="M0 0 C-0.33 0.99 -0.66 1.98 -1 3 C-0.34 3.33 0.32 3.66 1 4 C0.67 4.99 0.34 5.98 0 7 C-1.05058594 6.98839844 -2.10117187 6.97679687 -3.18359375 6.96484375 C-9.84032855 6.91407137 -16.35735229 6.90105761 -22.96875 7.765625 C-25.29573085 8.03412279 -27.59613802 8.17590627 -29.9375 8.25 C-31.03384766 8.28867187 -31.03384766 8.28867187 -32.15234375 8.328125 C-32.76207031 8.21984375 -33.37179688 8.1115625 -34 8 C-34.66 7.01 -35.32 6.02 -36 5 C-30.555 4.505 -30.555 4.505 -25 4 C-31.27 3.67 -37.54 3.34 -44 3 C-44.33 2.01 -44.66 1.02 -45 0 C-3.28384279 -1.6419214 -3.28384279 -1.6419214 0 0 Z " fill="#368CC7" transform="translate(57,14)"/>
<path d="M0 0 C6.40948522 -0.5910386 11.0082689 -0.3353035 16.3046875 3.53515625 C19.89241936 6.63515498 21.764431 9.03150958 22.33984375 13.83984375 C22.51585564 19.53558849 22.46931579 24.25860175 19 29 C13.22084754 34.64045281 9.21729518 35.39933588 1.27734375 35.35546875 C-4.18368689 34.76315196 -6.77107538 32.30228163 -10.54296875 28.40625 C-12.21343918 26.79399972 -13.89213724 25.94490399 -16 25 C-13.375 24.0625 -13.375 24.0625 -10 24 C-8.26838101 25.61617772 -6.93516234 27.39643713 -5.48828125 29.26953125 C-3.23224474 31.89269182 -1.38907204 32.46838086 2 33 C7.19619996 32.97236064 11.99397614 32.54819256 16 29 C18.94662669 24.99898932 20.35438782 21.37018065 20 16.375 C19.10544242 11.18656601 16.96014602 7.6142379 12.875 4.25 C8.72262965 2.44462159 4.45150313 1.73471411 0 1 C0 0.67 0 0.34 0 0 Z " fill="#2B917E" transform="translate(78,5)"/>
<path d="M0 0 C3.3 0 6.6 0 10 0 C10 10.56 10 21.12 10 32 C10.66 32.33 11.32 32.66 12 33 C11.34 34.32 10.68 35.64 10 37 C9.01 36.67 8.02 36.34 7 36 C7.33 24.45 7.66 12.9 8 1 C6.02 1 4.04 1 2 1 C2 7.6 2 14.2 2 21 C-1 18 -1 18 -1.2487793 16.00708008 C-1.16237183 14.89949341 -1.16237183 14.89949341 -1.07421875 13.76953125 C-1.01943359 12.96708984 -0.96464844 12.16464844 -0.90820312 11.33789062 C-0.83537109 10.50451172 -0.76253906 9.67113281 -0.6875 8.8125 C-0.62626953 7.96751953 -0.56503906 7.12253906 -0.50195312 6.25195312 C-0.34881209 4.16687905 -0.17625843 2.08324724 0 0 Z " fill="#C9E7E4" transform="translate(238,4)"/>
<path d="M0 0 C9.24 0 18.48 0 28 0 C28 1.32 28 2.64 28 4 C18.76 4 9.52 4 0 4 C0 2.68 0 1.36 0 0 Z " fill="#F9FDFA" transform="translate(184,14)"/>
<path d="M0 0 C3.25809569 3.25809569 4.86594915 5.95266218 7 10 C7 10.66 7 11.32 7 12 C3.04 12 -0.92 12 -5 12 C-4.67 13.32 -4.34 14.64 -4 16 C-4.99 16 -5.98 16 -7 16 C-7 16.66 -7 17.32 -7 18 C-7.66 17.67 -8.32 17.34 -9 17 C-6.03 11.39 -3.06 5.78 0 0 Z " fill="#DCF6F0" transform="translate(265,22)"/>
<path d="M0 0 C1.19044922 0.00451172 2.38089844 0.00902344 3.60742188 0.01367188 C6.50916936 0.02532548 9.41080626 0.04168441 12.3125 0.0625 C11.9825 1.0525 11.6525 2.0425 11.3125 3.0625 C10.26191406 3.05089844 9.21132813 3.03929687 8.12890625 3.02734375 C1.47217145 2.97657137 -5.04485229 2.96355761 -11.65625 3.828125 C-13.98323085 4.09662279 -16.28363802 4.23840627 -18.625 4.3125 C-19.72134766 4.35117187 -19.72134766 4.35117187 -20.83984375 4.390625 C-21.44957031 4.28234375 -22.05929688 4.1740625 -22.6875 4.0625 C-23.3475 3.0725 -24.0075 2.0825 -24.6875 1.0625 C-16.43723532 0.13441062 -8.2971172 -0.0605629 0 0 Z " fill="#1A70B4" transform="translate(45.6875,17.9375)"/>
<path d="M0 0 C2.77160662 2.39366027 4.07263207 4.44508961 5 8 C5.11254471 14.08866906 3.93947772 18.3442536 0 23 C-0.66 23 -1.32 23 -2 23 C-3.3826954 19.26672242 -2.48389664 17.59259187 -1 14 C-0.24094188 10.68357828 0.3891645 7.34659876 1 4 C0.01 4 -0.98 4 -2 4 C-2 3.34 -2 2.68 -2 2 C-1.34 2 -0.68 2 0 2 C0 1.34 0 0.68 0 0 Z " fill="#DBF4F1" transform="translate(94,12)"/>
<path d="M0 0 C-0.39537806 2.62986315 -0.81501873 5.25165938 -1.25 7.875 C-1.35957031 8.62136719 -1.46914062 9.36773437 -1.58203125 10.13671875 C-2.52789071 15.66252929 -2.52789071 15.66252929 -5.109375 17.5078125 C-6.04523438 17.75144531 -6.04523438 17.75144531 -7 18 C-7.33 17.67 -7.66 17.34 -8 17 C-7.98827033 14.70684868 -7.89042196 12.41387794 -7.75 10.125 C-7.68296875 8.86945312 -7.6159375 7.61390625 -7.546875 6.3203125 C-7 3 -7 3 -5.703125 1.0546875 C-4 0 -4 0 0 0 Z " fill="#16609F" transform="translate(80,14)"/>
<path d="M0 0 C2.97595467 2.55081829 4.44002566 5.43434437 6 9 C6 9.99 6 10.98 6 12 C2.37 12 -1.26 12 -5 12 C-3.97038242 6.85191212 -2.65675751 4.37079462 0 0 Z " fill="#E4FAF4" transform="translate(157,22)"/>
<path d="M0 0 C1.32 0 2.64 0 4 0 C3.22095672 10.55808656 3.22095672 10.55808656 1 15 C-0.32 15 -1.64 15 -3 15 C-2.88623383 12.87436897 -2.75864369 10.7494739 -2.625 8.625 C-2.55539063 7.44164062 -2.48578125 6.25828125 -2.4140625 5.0390625 C-2 2 -2 2 0 0 Z " fill="#225F95" transform="translate(91,16)"/>
<path d="M0 0 C15.18 0 30.36 0 46 0 C46 0.33 46 0.66 46 1 C23.725 1.99 23.725 1.99 1 3 C0.67 2.01 0.34 1.02 0 0 Z " fill="#DBF4F6" transform="translate(10,12)"/>
<path d="M0 0 C0 0.66 0 1.32 0 2 C-0.66 2 -1.32 2 -2 2 C-2.66 5.96 -3.32 9.92 -4 14 C-5.65 14.33 -7.3 14.66 -9 15 C-8.91284983 13.06166004 -8.80467036 11.1242571 -8.6875 9.1875 C-8.62949219 8.10855469 -8.57148437 7.02960937 -8.51171875 5.91796875 C-8 3 -8 3 -6.625 1.125 C-4.37893879 -0.42996545 -2.66521224 -0.21609829 0 0 Z " fill="#185C90" transform="translate(89,14)"/>
<path d="M0 0 C0.66 0 1.32 0 2 0 C2.33 11.88 2.66 23.76 3 36 C1 37 1 37 -7 36 C-7.33 30.06 -7.66 24.12 -8 18 C-7.34 18 -6.68 18 -6 18 C-6 23.61 -6 29.22 -6 35 C-3.69 35 -1.38 35 1 35 C0.505 17.675 0.505 17.675 0 0 Z " fill="#BBE7DF" transform="translate(137,5)"/>
<path d="M0 0 C8.58 0 17.16 0 26 0 C26 0.66 26 1.32 26 2 C13.625 2.495 13.625 2.495 1 3 C0.67 2.01 0.34 1.02 0 0 Z " fill="#0259A5" transform="translate(32,22)"/>
<path d="M0 0 C1.30582031 -0.00257812 2.61164062 -0.00515625 3.95703125 -0.0078125 C7.1875 0.125 7.1875 0.125 9.1875 1.125 C9.1875 1.785 9.1875 2.445 9.1875 3.125 C5.93757554 3.18319424 2.68778565 3.21866116 -0.5625 3.25 C-1.48289062 3.26675781 -2.40328125 3.28351562 -3.3515625 3.30078125 C-4.68574219 3.31044922 -4.68574219 3.31044922 -6.046875 3.3203125 C-7.27229004 3.33602295 -7.27229004 3.33602295 -8.52246094 3.35205078 C-11.03137518 3.10329916 -12.64645625 2.38200129 -14.8125 1.125 C-9.8253318 0.3099764 -5.06998817 -0.01010965 0 0 Z " fill="#0F65A5" transform="translate(47.8125,12.875)"/>
<path d="M0 0 C0.33 0 0.66 0 1 0 C1 11.55 1 23.1 1 35 C3.31 35 5.62 35 8 35 C8 35.33 8 35.66 8 36 C5.03 36 2.06 36 -1 36 C-1.66 34.35 -2.32 32.7 -3 31 C-2.34 30.67 -1.68 30.34 -1 30 C-0.67 20.1 -0.34 10.2 0 0 Z " fill="#8DE0CD" transform="translate(176,5)"/>
<path d="M0 0 C0.66 0.33 1.32 0.66 2 1 C1.67 12.22 1.34 23.44 1 35 C0.67 35 0.34 35 0 35 C-0.33 30.71 -0.66 26.42 -1 22 C-1.33 22 -1.66 22 -2 22 C-2 19.36 -2 16.72 -2 14 C-1.34 14 -0.68 14 0 14 C0 9.38 0 4.76 0 0 Z " fill="#B1F7EB" transform="translate(102,5)"/>
<path d="M0 0 C0.33 0.66 0.66 1.32 1 2 C4.465 1.505 4.465 1.505 8 1 C8.33 1.99 8.66 2.98 9 4 C2.07 4 -4.86 4 -12 4 C-11.67 3.01 -11.34 2.02 -11 1 C-10.28972656 1.01160156 -9.57945312 1.02320313 -8.84765625 1.03515625 C-7.92855469 1.04417969 -7.00945312 1.05320313 -6.0625 1.0625 C-4.68771484 1.07990234 -4.68771484 1.07990234 -3.28515625 1.09765625 C-1.03406673 1.25949049 -1.03406673 1.25949049 0 0 Z " fill="#3AA190" transform="translate(166,37)"/>
<path d="M0 0 C6.42011575 -0.59201887 10.9555 -0.29080061 16.3046875 3.48828125 C18.82472665 5.73541293 20.35761931 8.05740127 22 11 C21.67 11.66 21.34 12.32 21 13 C19.15568929 11.15568929 17.32154215 9.3045807 15.5 7.4375 C12.02090448 4.04538187 9.51392026 2.72980368 4.8125 1.875 C3.91144531 1.70742187 3.01039062 1.53984375 2.08203125 1.3671875 C1.39496094 1.24601563 0.70789063 1.12484375 0 1 C0 0.67 0 0.34 0 0 Z " fill="#3D9789" transform="translate(78,5)"/>
<path d="M0 0 C0.33 0 0.66 0 1 0 C1 2.31 1 4.62 1 7 C1.66 7 2.32 7 3 7 C3.33 5.68 3.66 4.36 4 3 C4 4.98 4 6.96 4 9 C2.02 9.99 2.02 9.99 0 11 C-0.33 10.67 -0.66 10.34 -1 10 C-0.91036938 8.30858344 -0.75422324 6.62040398 -0.5625 4.9375 C-0.46066406 4.01839844 -0.35882813 3.09929688 -0.25390625 2.15234375 C-0.17011719 1.44207031 -0.08632812 0.73179688 0 0 Z " fill="#125189" transform="translate(73,21)"/>
<path d="M0 0 C1.2065625 0.0309375 1.2065625 0.0309375 2.4375 0.0625 C2.4375 0.7225 2.4375 1.3825 2.4375 2.0625 C1.7775 2.0625 1.1175 2.0625 0.4375 2.0625 C0.1075 4.0425 -0.2225 6.0225 -0.5625 8.0625 C-1.8825 7.4025 -3.2025 6.7425 -4.5625 6.0625 C-3.48963568 0.08511307 -3.48963568 0.08511307 0 0 Z " fill="#0C5690" transform="translate(86.5625,13.9375)"/>
<path d="M0 0 C0.33 0 0.66 0 1 0 C1 1.98 1 3.96 1 6 C1.66 6 2.32 6 3 6 C3.33 4.68 3.66 3.36 4 2 C4 3.98 4 5.96 4 8 C2.02 8.99 2.02 8.99 0 10 C-0.33 9.67 -0.66 9.34 -1 9 C-0.91062197 7.47480724 -0.75462854 5.95318071 -0.5625 4.4375 C-0.46066406 3.61121094 -0.35882813 2.78492188 -0.25390625 1.93359375 C-0.17011719 1.29550781 -0.08632812 0.65742188 0 0 Z " fill="#12538A" transform="translate(89,22)"/>
<path d="M0 0 C2.45898655 -0.08076963 4.91533742 -0.14037143 7.375 -0.1875 C8.07367188 -0.21263672 8.77234375 -0.23777344 9.4921875 -0.26367188 C11.5234375 -0.29296875 11.5234375 -0.29296875 15 0 C15.66 0.99 16.32 1.98 17 3 C14.03 3 11.06 3 8 3 C8 2.34 8 1.68 8 1 C5.36 1 2.72 1 0 1 C0 0.67 0 0.34 0 0 Z " fill="#86A6BB" transform="translate(43,28)"/>
<path d="M0 0 C1.45922693 0.11409593 2.91740598 0.24165544 4.375 0.375 C5.59316406 0.47941406 5.59316406 0.47941406 6.8359375 0.5859375 C9 1 9 1 11 3 C7.7 3 4.4 3 1 3 C0.67 2.01 0.34 1.02 0 0 Z " fill="#2D7BB5" transform="translate(32,22)"/>
<path d="M0 0 C0.66 0.66 1.32 1.32 2 2 C1.67 2.33 1.34 2.66 1 3 C0.63239269 5.32817964 0.29758419 7.6618385 0 10 C-1.5625 8.875 -1.5625 8.875 -3 7 C-2.8125 3.875 -2.8125 3.875 -2 1 C-1.34 0.67 -0.68 0.34 0 0 Z " fill="#C0DEEB" transform="translate(89,15)"/>
<path d="M0 0 C1.32 0 2.64 0 4 0 C3.34 2.31 2.68 4.62 2 7 C1.855625 6.360625 1.71125 5.72125 1.5625 5.0625 C1.18992819 3.02454854 1.18992819 3.02454854 0 2 C0 2.99 0 3.98 0 5 C-0.66 5 -1.32 5 -2 5 C-1.125 1.125 -1.125 1.125 0 0 Z " fill="#095189" transform="translate(76,14)"/>
<path d="M0 0 C3.875 1.75 3.875 1.75 5 4 C4.01 4.33 3.02 4.66 2 5 C1.34 5.99 0.68 6.98 0 8 C0 5.36 0 2.72 0 0 Z " fill="#DBF8F4" transform="translate(111,24)"/>
<path d="M0 0 C0.66 0.99 1.32 1.98 2 3 C1 6 1 6 0 8 C-0.66 8 -1.32 8 -2 8 C-1.125 1.125 -1.125 1.125 0 0 Z " fill="#0D64A3" transform="translate(92,20)"/>
<path d="M0 0 C0.66 0 1.32 0 2 0 C2.66 1.65 3.32 3.3 4 5 C2.02 5 0.04 5 -2 5 C-1.34 3.35 -0.68 1.7 0 0 Z " fill="#DAFDF4" transform="translate(150,35)"/>
</svg>
