<?xml version="1.0" encoding="UTF-8"?>
<svg version="1.1" xmlns="http://www.w3.org/2000/svg" width="161" height="118">
<path d="M0 0 C25.76255892 -0.69464864 52.09898394 2.11315606 71.765625 20.62109375 C78.90495856 28.22223735 81.3483075 34.35134769 81.19921875 44.71875 C80.62764199 54.13295547 75.68922551 59.61435436 69 66 C48.11462026 84.34377268 18.26676225 85.2061956 -8 84 C-26.37748604 82.3381453 -46.84455522 75.21363265 -59.51171875 61.2265625 C-65.30985144 53.62757352 -68.02919209 46.57812638 -67 37 C-64.79471588 26.5549725 -57.12853854 19.63928843 -48.74609375 13.7265625 C-41.22850679 9 -41.22850679 9 -38 9 C-37.67 23.85 -37.34 38.7 -37 54 C-31.72 54.33 -26.44 54.66 -21 55 C-21 48.07 -21 41.14 -21 34 C-20.01 34 -19.02 34 -18 34 C-18 46.87 -18 59.74 -18 73 C-9.8015625 72.8453125 -9.8015625 72.8453125 -1.4375 72.6875 C0.27381104 72.66260498 1.98512207 72.63770996 3.74829102 72.61206055 C5.12518954 72.57973453 6.50206392 72.54635577 7.87890625 72.51171875 C8.57721558 72.50547485 9.2755249 72.49923096 9.99499512 72.49279785 C15.07665676 72.34582604 18.54616009 71.28164445 23 69 C27.45065142 64.25263848 27.33410444 59.16891219 27.2890625 52.953125 C26.77488687 47.70019561 23.79695315 44.41725783 20 41 C20.639375 40.236875 21.27875 39.47375 21.9375 38.6875 C25.18043413 34.46185856 25.34836659 31.22549884 25 26 C23.75317979 21.91320041 22.60205361 19.57195093 19.5 16.625 C14.72808736 14.40946913 10.209942 14.18540719 5 14 C4.80664062 13.32453125 4.61328125 12.6490625 4.4140625 11.953125 C4.02347656 10.61507813 4.02347656 10.61507813 3.625 9.25 C3.36976562 8.36828125 3.11453125 7.4865625 2.8515625 6.578125 C2.07732539 4.23410438 1.12668178 2.18828447 0 0 Z " fill="#272229" transform="translate(80,13)"/>
<path d="M0 0 C0 1.98 0 3.96 0 6 C-0.9178125 6.49628906 -1.835625 6.99257813 -2.78125 7.50390625 C-13.97587825 13.65362706 -24.54884068 20.08178689 -28.64453125 33.0390625 C-30.27494295 42.03320175 -28.33931051 50.00645744 -23.1875 57.5 C-10.98408564 72.19024459 10.59466886 79.18809104 29 81 C34.27285603 81.30240353 39.53288039 81.41349559 44.8125 81.4375 C46.08665771 81.44765137 47.36081543 81.45780273 48.67358398 81.46826172 C69.94928564 81.27331111 93.28049452 75.34288623 108.94140625 60.2734375 C112.8858239 55.91736336 115.38779921 51.22440159 118 46 C118 64.81 118 83.62 118 103 C92.59 103 67.18 103 41 103 C41 101.35 41 99.7 41 98 C39.02 97.505 39.02 97.505 37 97 C36.505 98.485 36.505 98.485 36 100 C35.34 99.34 34.68 98.68 34 98 C34 97.01 34 96.02 34 95 C33.01 95 32.02 95 31 95 C30.67 97.64 30.34 100.28 30 103 C27.48916886 101.74458443 27.12874554 100.49936512 26 98 C25.67 98.66 25.34 99.32 25 100 C23 99.33333333 21 98.66666667 19 98 C17.66893378 97.65772583 16.33599921 97.32248257 15 97 C14.505 98.485 14.505 98.485 14 100 C13.01 99.34 12.02 98.68 11 98 C10.01 97.67 9.02 97.34 8 97 C8 98.98 8 100.96 8 103 C-8.83 103 -25.66 103 -43 103 C-43 84.19 -43 65.38 -43 46 C-41.09311764 48.86032353 -39.75457249 51.63670378 -38.3125 54.75 C-35.63537038 60.196802 -32.63147294 64.10846653 -28 68 C-28.49371094 67.04738281 -28.98742188 66.09476562 -29.49609375 65.11328125 C-30.14355037 63.84651829 -30.79066794 62.57958199 -31.4375 61.3125 C-31.76298828 60.68666016 -32.08847656 60.06082031 -32.42382812 59.41601562 C-36.64150425 51.11110696 -37.59548189 41.85963978 -35.12890625 32.80078125 C-30.2587338 20.32994623 -15.20072105 0 0 0 Z " fill="#F3F2F3" transform="translate(43,15)"/>
<path d="M0 0 C5.84392769 -0.17981316 10.49926772 -0.02067717 16 2 C19.3860669 5.3860669 19.09946292 9.40177661 19.25 14 C19.20680515 18.14670576 18.75425837 20.73569378 16 24 C15.01 24.66 14.02 25.32 13 26 C13.94875 26.7425 14.8975 27.485 15.875 28.25 C19.45012621 31.04792486 20.79092192 33.46206989 21.40625 37.98828125 C21.69085525 48.0799089 21.69085525 48.0799089 18.5625 52.1875 C11.39680535 58.56070512 0.91949141 57.24818284 -8.0625 57.125 C-12.331875 57.08375 -16.60125 57.0425 -21 57 C-21 44.46 -21 31.92 -21 19 C-16.71 18.34 -12.42 17.68 -8 17 C-8 18.65 -8 20.3 -8 22 C-7.34 21.67 -6.68 21.34 -6 21 C-4.52517395 20.79850574 -3.0447732 20.63630098 -1.5625 20.5 C1.21487706 20.24376752 3.32662467 19.89112511 6 19 C5.46022435 15.52451159 5.46022435 15.52451159 4 12 C0.99405579 10.46853622 0.99405579 10.46853622 -2 10 C-1.34 6.7 -0.68 3.4 0 0 Z M-6 34 C-6 37.3 -6 40.6 -6 44 C-4.411875 44.061875 -2.82375 44.12375 -1.1875 44.1875 C-0.29417969 44.22230469 0.59914063 44.25710937 1.51953125 44.29296875 C4.035613 44.19840941 4.035613 44.19840941 5.8359375 42.68359375 C7.31716933 40.91135223 7.31716933 40.91135223 6.8125 37.875 C6.4103125 36.451875 6.4103125 36.451875 6 35 C3.47524538 33.73762269 1.68799534 33.90143596 -1.125 33.9375 C-2.73375 33.958125 -4.3425 33.97875 -6 34 Z " fill="#B4B0B3" transform="translate(85,28)"/>
<path d="M0 0 C4.95 -0.103125 9.9 -0.20625 15 -0.3125 C16.54558594 -0.35802002 18.09117188 -0.40354004 19.68359375 -0.45043945 C32.36093121 -0.57823519 32.36093121 -0.57823519 37.71630859 3.59228516 C39.64607736 5.70849792 39.97443099 7.14905577 40 10 C40.09023437 11.07894531 40.18046875 12.15789063 40.2734375 13.26953125 C40.46285607 19.87732521 40.45411476 24.8862557 36.6796875 30.44921875 C31.99609697 34.77337094 27.26118679 35.41755611 21.125 35.1875 C18.77375 35.125625 16.4225 35.06375 14 35 C14 41.93 14 48.86 14 56 C9.38 56 4.76 56 0 56 C0 37.52 0 19.04 0 0 Z M14 10 C14 14.62 14 19.24 14 24 C15.423125 24.061875 16.84625 24.12375 18.3125 24.1875 C19.11300781 24.22230469 19.91351563 24.25710937 20.73828125 24.29296875 C23.05974283 24.18509652 23.05974283 24.18509652 24.73046875 22.66796875 C26.69770981 20.08331665 27 18.23143428 27 15 C25.19003883 11.93921761 25.19003883 11.93921761 22 10 C19.19176458 9.59068155 16.86084074 9.75755587 14 10 Z " fill="#054535" transform="translate(43,10)"/>
<path d="M0 0 C24.09 0 48.18 0 73 0 C73 15.84 73 31.68 73 48 C71.90627051 46.35940576 70.8250098 44.70911465 69.80859375 43.01953125 C65.3143847 35.78526312 59.6726669 30.20306516 52.4375 25.6875 C51.633125 25.130625 50.82875 24.57375 50 24 C50 21 50 21 51 20 C35.48017483 9.08762293 19.0062008 2.86335302 0 1 C0 0.67 0 0.34 0 0 Z " fill="#FBFCFC" transform="translate(88,0)"/>
<path d="M0 0 C22.77 0 45.54 0 69 0 C69 0.33 69 0.66 69 1 C68.030625 1.08636719 67.06125 1.17273438 66.0625 1.26171875 C45.5750794 3.31123519 26.56524745 9.9155411 12 25 C11.40574219 25.6084375 10.81148437 26.216875 10.19921875 26.84375 C6.54307128 30.83557354 4.22489403 35.09511999 2 40 C1.34 41.32 0.68 42.64 0 44 C0 29.48 0 14.96 0 0 Z " fill="#FBFCFC" transform="translate(0,0)"/>
<path d="M0 0 C-0.33 0.99 -0.66 1.98 -1 3 C3.95 3 8.9 3 14 3 C14 3.33 14 3.66 14 4 C6.74 4.33 -0.52 4.66 -8 5 C-8.66 7.31 -9.32 9.62 -10 12 C-12.65234375 13.86328125 -12.65234375 13.86328125 -15.9375 15.3125 C-28.5363614 21.57712722 -37.00035493 30.7995629 -42.1640625 43.96875 C-44.5238257 52.52564835 -43.5419595 61.90999912 -40 70 C-38.71620345 72.21408391 -37.3763606 74.32280467 -35.890625 76.40625 C-35.44976562 77.19515625 -35.44976562 77.19515625 -35 78 C-35.495 78.99 -35.495 78.99 -36 80 C-43.42352504 73.5939124 -47.89985582 66.30043253 -51 57 C-51.90808982 43.05114489 -50.44095545 32.84118705 -41 22 C-40.37480469 21.26910156 -39.74960937 20.53820312 -39.10546875 19.78515625 C-30.17092501 10.08810971 -13.57027611 -0.63860123 0 0 Z " fill="#262629" transform="translate(51,4)"/>
<path d="M0 0 C-0.33 0.66 -0.66 1.32 -1 2 C-1.99 1.505 -1.99 1.505 -3 1 C-3.33 1.99 -3.66 2.98 -4 4 C-4.69222656 3.68546875 -5.38445312 3.3709375 -6.09765625 3.046875 C-21.85391995 -3.84519292 -36.65848973 -6.2831812 -53.77539062 -5.78515625 C-54.76087891 -5.77097656 -55.74636719 -5.75679687 -56.76171875 -5.7421875 C-58.091427 -5.70907471 -58.091427 -5.70907471 -59.44799805 -5.67529297 C-62 -6 -62 -6 -64.37304688 -7.48413086 C-67.79535752 -9.45895677 -70.33423966 -9.43074567 -74.26953125 -9.51171875 C-74.95053391 -9.52966995 -75.63153656 -9.54762115 -76.33317566 -9.56611633 C-78.4928888 -9.61998631 -80.65238399 -9.65403782 -82.8125 -9.6875 C-84.28323331 -9.72069391 -85.75393793 -9.75518549 -87.22460938 -9.79101562 C-90.81619687 -9.87569716 -94.40786076 -9.94261961 -98 -10 C-98 -8.35 -98 -6.7 -98 -5 C-98.33 -5 -98.66 -5 -99 -5 C-99.04254356 -6.99954746 -99.04080783 -9.00041636 -99 -11 C-97.3149988 -12.6850012 -95.17425265 -12.20848179 -92.86328125 -12.28125 C-91.81076172 -12.31863281 -90.75824219 -12.35601562 -89.67382812 -12.39453125 C-88.0099707 -12.44673828 -88.0099707 -12.44673828 -86.3125 -12.5 C-84.14180919 -12.56931833 -81.97122661 -12.6421305 -79.80078125 -12.71875 C-78.83309814 -12.74904297 -77.86541504 -12.77933594 -76.8684082 -12.81054688 C-51.04895659 -14.51587452 -22.74488451 -15.16325634 0 0 Z " fill="#DAE1E2" transform="translate(141,20)"/>
<path d="M0 0 C-0.66 0.33 -1.32 0.66 -2 1 C-4.04968282 0.17230136 -6.06516643 -0.74042909 -8.0625 -1.6875 C-21.76697877 -7.9069325 -36.46983912 -10.18275303 -51.4375 -10.125 C-52.93506836 -10.13080078 -52.93506836 -10.13080078 -54.46289062 -10.13671875 C-58.76367108 -10.13106355 -62.9618112 -10.07925865 -67.22265625 -9.46484375 C-71.35439251 -8.9563881 -74.85315924 -9.10427172 -79 -9.4375 C-80.01900391 -9.51581055 -80.01900391 -9.51581055 -81.05859375 -9.59570312 C-82.70629674 -9.72334209 -84.35324808 -9.86062647 -86 -10 C-86.33 -11.32 -86.66 -12.64 -87 -14 C-57.71625243 -21.20092153 -24.99791259 -17.40137378 0 0 Z " fill="#134236" transform="translate(136,17)"/>
<path d="M0 0 C0.66 0 1.32 0 2 0 C2 14.85 2 29.7 2 45 C6.62 45 11.24 45 16 45 C16 38.07 16 31.14 16 24 C19.4959375 23.87625 19.4959375 23.87625 23.0625 23.75 C29.07028819 23.44948161 33.05566746 22.44953433 38 19 C38.66 19.33 39.32 19.66 40 20 C39.505 20.495 39.505 20.495 39 21 C38.76924918 22.34747084 38.58846937 23.70377565 38.4375 25.0625 C38.293125 26.361875 38.14875 27.66125 38 29 C37.34 29 36.68 29 36 29 C36 27.35 36 25.7 36 24 C34.783125 24.33 33.56625 24.66 32.3125 25 C28.92058416 25.91984158 26.69791389 26 23 26 C23 38.54 23 51.08 23 64 C22.01 64.495 22.01 64.495 21 65 C21 52.13 21 39.26 21 26 C20.01 26 19.02 26 18 26 C18 32.93 18 39.86 18 47 C14.0709375 47.0309375 14.0709375 47.0309375 10.0625 47.0625 C9.2362915 47.071604 8.41008301 47.08070801 7.55883789 47.09008789 C5.70566241 47.09723945 3.85250692 47.0502852 2 47 C0.42926468 45.42926468 0.83630693 43.84637782 0.79467773 41.66381836 C0.7647599 40.28249977 0.7647599 40.28249977 0.73423767 38.87327576 C0.71752518 37.87224319 0.70081268 36.87121063 0.68359375 35.83984375 C0.66281265 34.82024063 0.64203156 33.80063751 0.62062073 32.75013733 C0.55501148 29.47932952 0.49618766 26.20843863 0.4375 22.9375 C0.39432558 20.72590272 0.35071166 18.51431397 0.30664062 16.30273438 C0.1993186 10.86857849 0.09757377 5.43433918 0 0 Z " fill="#CBD6D6" transform="translate(41,21)"/>
<path d="M0 0 C7.12927588 -0.60417592 7.12927588 -0.60417592 11.0625 2.125 C13 5 13 5 13 8.125 C11.97754172 11.06456756 11.41692697 12.13956637 9 14 C6.73828125 14.29296875 6.73828125 14.29296875 4.3125 14.1875 C2.889375 14.125625 1.46625 14.06375 0 14 C0 9.38 0 4.76 0 0 Z " fill="#848B8D" transform="translate(57,20)"/>
<path d="M0 0 C2 1 2 1 2.625 2.625 C3.83006547 10.25708131 2.20906249 14.68640627 -2 21 C-1.21625 21.763125 -0.4325 22.52625 0.375 23.3125 C4.2440896 27.27371078 5.29192489 29.36009504 5.3125 34.8125 C5.21970836 39.62026676 4.89569698 43.00593521 2 47 C-3.28422755 52.01324152 -7.571511 52.14946025 -14.609375 52.09765625 C-15.33618469 52.0962413 -16.06299438 52.09482635 -16.81182861 52.09336853 C-19.12459494 52.08778792 -21.43726312 52.07523904 -23.75 52.0625 C-25.32161318 52.05748249 -26.89322789 52.05292002 -28.46484375 52.04882812 C-32.30993343 52.03782485 -36.1549501 52.02057361 -40 52 C-40 51.67 -40 51.34 -40 51 C-39.19892822 50.98018066 -38.39785645 50.96036133 -37.57250977 50.93994141 C-33.90220652 50.84400309 -30.23241955 50.73460437 -26.5625 50.625 C-25.30244141 50.5940625 -24.04238281 50.563125 -22.74414062 50.53125 C-10.65994184 50.45619467 -10.65994184 50.45619467 0.0625 45.6875 C3.42948231 40.98071504 2.82093684 34.46607113 2 29 C-0.01096507 24.93197324 -2.34117165 22.66995582 -6 20 C-5.195625 19.21625 -4.39125 18.4325 -3.5625 17.625 C0.27099782 13.69800223 0.11541229 11.77205362 0.0625 6.375 C0.05347656 5.18648437 0.04445312 3.99796875 0.03515625 2.7734375 C0.02355469 1.85820313 0.01195312 0.94296875 0 0 Z " fill="#EDE9ED" transform="translate(103,34)"/>
<path d="M0 0 C1.588125 -0.061875 3.17625 -0.12375 4.8125 -0.1875 C6.15248047 -0.23970703 6.15248047 -0.23970703 7.51953125 -0.29296875 C10 0 10 0 11.8359375 1.3515625 C13 3 13 3 12.8125 5.5625 C12 8 12 8 10 10 C7.6171875 10.1953125 7.6171875 10.1953125 4.875 10.125 C2.461875 10.063125 2.461875 10.063125 0 10 C0 6.7 0 3.4 0 0 Z " fill="#241F25" transform="translate(79,62)"/>
<path d="M0 0 C0.33 0 0.66 0 1 0 C1.33 1.65 1.66 3.3 2 5 C2.33 4.34 2.66 3.68 3 3 C5.97 3 8.94 3 12 3 C11.67 3.66 11.34 4.32 11 5 C11.66 5.33 12.32 5.66 13 6 C13.33 5.01 13.66 4.02 14 3 C14.99 3.33 15.98 3.66 17 4 C16.67 5.65 16.34 7.3 16 9 C9.4 9 2.8 9 -4 9 C-4 7.02 -4 5.04 -4 3 C-3.01 3 -2.02 3 -1 3 C-0.67 2.01 -0.34 1.02 0 0 Z " fill="#888689" transform="translate(55,109)"/>
<path d="M0 0 C3.5 0.25 3.5 0.25 5.5 2.25 C5.75 4.75 5.75 4.75 5.5 7.25 C3.5 9.25 3.5 9.25 1.3359375 9.4453125 C0.11777344 9.41050781 0.11777344 9.41050781 -1.125 9.375 C-1.94226563 9.35695313 -2.75953125 9.33890625 -3.6015625 9.3203125 C-4.22804688 9.29710937 -4.85453125 9.27390625 -5.5 9.25 C-5.625 5.875 -5.625 5.875 -5.5 2.25 C-3.5 0.25 -3.5 0.25 0 0 Z " fill="#262126" transform="translate(84.5,39.75)"/>
<path d="M0 0 C2.0625 0.4375 2.0625 0.4375 4 1 C4.33 2.32 4.66 3.64 5 5 C5.33 4.34 5.66 3.68 6 3 C7.65 3.33 9.3 3.66 11 4 C10.67 5.65 10.34 7.3 10 9 C6.37 9 2.74 9 -1 9 C-1.09765625 2.84765625 -1.09765625 2.84765625 -1 1 C-0.67 0.67 -0.34 0.34 0 0 Z " fill="#848285" transform="translate(74,109)"/>
<path d="M0 0 C3.00617269 3.00617269 2.59585316 5.82381598 3 10 C4.15628906 9.96519531 4.15628906 9.96519531 5.3359375 9.9296875 C6.33882812 9.91164063 7.34171875 9.89359375 8.375 9.875 C9.37273437 9.85179687 10.37046875 9.82859375 11.3984375 9.8046875 C14 10 14 10 16 12 C11.71 11.67 7.42 11.34 3 11 C2.855625 12.27875 2.71125 13.5575 2.5625 14.875 C2.29357254 17.25692894 2.07773654 18.84452691 1 21 C1.94875 21.12375 2.8975 21.2475 3.875 21.375 C7 22 7 22 9 24 C9.125 27.125 9.125 27.125 9 30 C8.67 30 8.34 30 8 30 C7.34 28.02 6.68 26.04 6 24 C3.36 23.67 0.72 23.34 -2 23 C-1.67257813 22.19304688 -1.34515625 21.38609375 -1.0078125 20.5546875 C0.20401292 16.28041953 0.22214556 12.53391372 0.125 8.125 C0.11146484 6.949375 0.11146484 6.949375 0.09765625 5.75 C0.07428063 3.83319945 0.03841653 1.91655809 0 0 Z " fill="#E3E8EA" transform="translate(82,17)"/>
</svg>
