<?xml version="1.0" encoding="UTF-8"?>
<svg version="1.1" xmlns="http://www.w3.org/2000/svg" width="306" height="49">
<path d="M0 0 C100.98 0 201.96 0 306 0 C306 16.17 306 32.34 306 49 C205.02 49 104.04 49 0 49 C0 32.83 0 16.66 0 0 Z " fill="#F6F9F9" transform="translate(0,0)"/>
<path d="M0 0 C40.26 0 80.52 0 122 0 C120.68 2.64 119.36 5.28 118 8 C109.42 8 100.84 8 92 8 C91.34 9.98 90.68 11.96 90 14 C89.01 15.98 88.02 17.96 87 20 C95.25 20 103.5 20 112 20 C110 27 110 27 109 28 C107.00035018 28.08758003 104.9976389 28.10696576 102.99609375 28.09765625 C101.78115234 28.09443359 100.56621094 28.09121094 99.31445312 28.08789062 C98.03505859 28.07951172 96.75566406 28.07113281 95.4375 28.0625 C94.15423828 28.05798828 92.87097656 28.05347656 91.54882812 28.04882812 C88.36583978 28.03699545 85.18294238 28.02051068 82 28 C81.70109863 28.92377441 81.40219727 29.84754883 81.09423828 30.79931641 C79.94239922 34.1684842 78.49460684 37.20620402 76.875 40.375 C76.33617188 41.43460938 75.79734375 42.49421875 75.2421875 43.5859375 C74.83226563 44.38257813 74.42234375 45.17921875 74 46 C71.03 46 68.06 46 65 46 C67.37904865 39.82459711 69.95316424 33.8760404 73 28 C70.0502324 28.34287897 68.40319928 28.62728014 66.19140625 30.671875 C65.38509766 31.70054688 65.38509766 31.70054688 64.5625 32.75 C58.26010562 40.32369282 51.63798155 45.30532751 41.640625 46.3515625 C35.81821977 46.49646399 31.81427246 46.57079545 27 43 C24.1546082 38.7319123 24.36512143 35.0125878 25 30 C26.07997023 27.07468934 27.39986491 24.70022796 29 22 C27.6696875 22.9590625 27.6696875 22.9590625 26.3125 23.9375 C23.24640677 25.84657692 21.46332089 26.43949662 18 27 C18.144375 27.61746094 18.28875 28.23492188 18.4375 28.87109375 C19.7197599 34.72140455 20.19308096 40.01449037 20 46 C16.7 46 13.4 46 10 46 C9.66517137 43.37518273 9.3320723 40.75016613 9 38.125 C8.90460937 37.37863281 8.80921875 36.63226563 8.7109375 35.86328125 C8 30.2265625 8 30.2265625 8 28 C3.87688825 27.25244516 0.8606085 27.28747367 -3 29 C-7.05990596 33.96053879 -9.49044175 40.15675697 -12 46 C-14.97 46 -17.94 46 -21 46 C-19.70778047 41.93648277 -18.21420451 38.08846411 -16.42578125 34.21875 C-15.92240234 33.12820312 -15.41902344 32.03765625 -14.90039062 30.9140625 C-14.37638672 29.78742187 -13.85238281 28.66078125 -13.3125 27.5 C-12.80783203 26.40429688 -12.30316406 25.30859375 -11.78320312 24.1796875 C-8.0089837 16.03004556 -4.02048171 8.04096342 0 0 Z " fill="#2E3086" transform="translate(22,0)"/>
<path d="M0 0 C53.46 0 106.92 0 162 0 C162 7.26 162 14.52 162 22 C161.67 21.01 161.34 20.02 161 19 C105.23 19.33 49.46 19.66 -8 20 C-8.33 20.66 -8.66 21.32 -9 22 C-9 21.01 -9 20.02 -9 19 C-17.58 19.33 -26.16 19.66 -35 20 C-33.54996379 15.64989137 -32.09990776 12.00891482 -30 8 C-29.23333008 8.00636475 -28.46666016 8.01272949 -27.67675781 8.01928711 C-24.2001809 8.02797592 -20.7262676 7.98333686 -17.25 7.9375 C-15.44015625 7.95393555 -15.44015625 7.95393555 -13.59375 7.97070312 C-12.43359375 7.94814453 -11.2734375 7.92558594 -10.078125 7.90234375 C-9.00981445 7.89710693 -7.94150391 7.89187012 -6.84082031 7.88647461 C-2.96336967 7.03036927 -2.96336967 7.03036927 0 0 Z " fill="#FDFEFE" transform="translate(144,0)"/>
<path d="M0 0 C2.69540315 -0.26686213 5.15847464 -0.34818073 7.8515625 -0.29296875 C8.62559418 -0.28872391 9.39962585 -0.28447906 10.19711304 -0.28010559 C12.67342677 -0.26328998 15.14893158 -0.22563395 17.625 -0.1875 C19.30207159 -0.17245682 20.97915592 -0.15876778 22.65625 -0.14648438 C26.77114581 -0.11337721 30.88543569 -0.06157637 35 0 C33.68 2.64 32.36 5.28 31 8 C22.42 8 13.84 8 5 8 C4.34 9.98 3.68 11.96 3 14 C2.01 15.98 1.02 17.96 0 20 C8.25 20 16.5 20 25 20 C23 27 23 27 22 28 C20.00035018 28.08758003 17.9976389 28.10696576 15.99609375 28.09765625 C14.78115234 28.09443359 13.56621094 28.09121094 12.31445312 28.08789062 C11.03505859 28.07951172 9.75566406 28.07113281 8.4375 28.0625 C7.15423828 28.05798828 5.87097656 28.05347656 4.54882812 28.04882812 C1.36583978 28.03699545 -1.81705762 28.02051068 -5 28 C-5.29890137 28.92377441 -5.59780273 29.84754883 -5.90576172 30.79931641 C-7.05760078 34.1684842 -8.50539316 37.20620402 -10.125 40.375 C-10.66382813 41.43460938 -11.20265625 42.49421875 -11.7578125 43.5859375 C-12.16773438 44.38257813 -12.57765625 45.17921875 -13 46 C-15.97 46 -18.94 46 -22 46 C-19.62095135 39.82459711 -17.04683576 33.8760404 -14 28 C-16.9497676 28.34287897 -18.59680072 28.62728014 -20.80859375 30.671875 C-21.34613281 31.35765625 -21.88367188 32.0434375 -22.4375 32.75 C-28.73989438 40.32369282 -35.36201845 45.30532751 -45.359375 46.3515625 C-51.18178023 46.49646399 -55.18572754 46.57079545 -60 43 C-62.20914 39.68629 -62.22481553 38.6553979 -62.125 34.8125 C-62.10695312 33.91144531 -62.08890625 33.01039062 -62.0703125 32.08203125 C-62.04710937 31.39496094 -62.02390625 30.70789063 -62 30 C-61.34 29.67 -60.68 29.34 -60 29 C-59.67 29.99 -59.34 30.98 -59 32 C-58.34 32 -57.68 32 -57 32 C-57 31.34 -57 30.68 -57 30 C-55.68 29.67 -54.36 29.34 -53 29 C-52.71125 30.11375 -52.4225 31.2275 -52.125 32.375 C-51.30758671 36.00291092 -51.30758671 36.00291092 -49 38 C-42.91300965 38.74534576 -38.15309288 37.11374145 -33 34 C-30.47141884 31.45236157 -30.47141884 31.45236157 -29 29 C-31.31 28.67 -33.62 28.34 -36 28 C-34.125 21.125 -34.125 21.125 -33 20 C-31.29436222 19.84259395 -29.58272756 19.74906608 -27.87109375 19.68359375 C-26.83662109 19.64169922 -25.80214844 19.59980469 -24.73632812 19.55664062 C-23.64771484 19.51732422 -22.55910156 19.47800781 -21.4375 19.4375 C-19.7987793 19.37272461 -19.7987793 19.37272461 -18.12695312 19.30664062 C-15.41810436 19.20017932 -12.70916008 19.09816484 -10 19 C-9.44570312 17.87980469 -8.89140625 16.75960938 -8.3203125 15.60546875 C-7.58864809 14.13275962 -6.85687139 12.66010628 -6.125 11.1875 C-5.76019531 10.44951172 -5.39539063 9.71152344 -5.01953125 8.95117188 C-4.66503906 8.23896484 -4.31054688 7.52675781 -3.9453125 6.79296875 C-3.62062988 6.1383667 -3.29594727 5.48376465 -2.96142578 4.80932617 C-2 3 -2 3 0 0 Z " fill="#2E2F88" transform="translate(109,0)"/>
<path d="M0 0 C19.6188614 -0.04669829 39.23771154 -0.08197819 58.85661697 -0.10362434 C67.96579088 -0.11394168 77.07493027 -0.12801075 86.18408203 -0.15087891 C94.12261152 -0.17079878 102.06111601 -0.18371311 109.99966979 -0.18817699 C114.20397647 -0.19078675 118.40821164 -0.19693032 122.61249542 -0.21146011 C126.56867406 -0.22502186 130.52475164 -0.2292255 134.48095131 -0.22621536 C135.93380342 -0.22676616 137.38665886 -0.23075201 138.83949089 -0.23841095 C140.8217818 -0.24834959 142.80412677 -0.24478009 144.78643799 -0.24050903 C145.89627674 -0.24235262 147.00611549 -0.24419621 148.14958572 -0.24609566 C151.0162417 0.00140226 152.51122572 0.6615545 155 2 C157.33203812 2.0777346 159.66839059 2.08967728 162 2 C161.34 3.98 160.68 5.96 160 8 C122.12397678 8.94639718 84.26140601 9.08985481 46.375 9.0625 C45.18103607 9.06164398 43.98707214 9.06078796 42.75692749 9.05990601 C27.83793699 9.04842355 12.91896789 9.02821612 -2 9 C-1.51421457 5.87709365 -1.0013988 3.00419641 0 0 Z " fill="#164898" transform="translate(138,20)"/>
<path d="M0 0 C7.26 0 14.52 0 22 0 C20.05193462 5.84419613 18.23953418 10.90221525 15.4375 16.25 C12.00739298 22.94593688 8.72340189 29.70213835 5.5 36.5 C5.05454834 37.43875977 4.60909668 38.37751953 4.15014648 39.34472656 C3.09880834 41.5625445 2.04868661 43.78092735 1 46 C4.16065782 46.10910577 6.97197045 45.9559479 10 45 C12.2206593 42.64422122 13.30174704 39.98027018 14.5 37 C15.15580128 35.52063433 15.81202879 34.04145752 16.46875 32.5625 C16.9740625 31.386875 17.479375 30.21125 18 29 C19 28 19 28 21.50390625 27.90234375 C22.51324219 27.91394531 23.52257812 27.92554687 24.5625 27.9375 C25.57441406 27.94652344 26.58632813 27.95554687 27.62890625 27.96484375 C28.80259766 27.98224609 28.80259766 27.98224609 30 28 C31.585869 31.171738 31.37866445 34.63513822 31.5625 38.125 C31.60568359 38.87910156 31.64886719 39.63320313 31.69335938 40.41015625 C31.7994832 42.27321888 31.90025001 44.13658524 32 46 C35.3 46 38.6 46 42 46 C41.34 39.73 40.68 33.46 40 27 C44 25 48 23 52 21 C51.566875 21.80050781 51.566875 21.80050781 51.125 22.6171875 C48.25050381 28.38614167 46.81645094 33.54849729 48 40 C49.88515223 42.57637471 51.19334857 43.59667428 54 45 C56.204364 45.22950319 58.41392173 45.41075933 60.625 45.5625 C61.81351563 45.64628906 63.00203125 45.73007812 64.2265625 45.81640625 C65.59941406 45.90728516 65.59941406 45.90728516 67 46 C67.33 46.99 67.66 47.98 68 49 C45.56 49 23.12 49 0 49 C0 32.83 0 16.66 0 0 Z " fill="#F7F9F9" transform="translate(0,0)"/>
<path d="M0 0 C1.65 0 3.3 0 5 0 C3.71591958 2.96168376 2.42145835 5.91871608 1.125 8.875 C0.76019531 9.71675781 0.39539063 10.55851563 0.01953125 11.42578125 C-0.33496094 12.23144531 -0.68945312 13.03710938 -1.0546875 13.8671875 C-1.37937012 14.61081543 -1.70405273 15.35444336 -2.03857422 16.12060547 C-3 18 -3 18 -5 20 C-7.33837891 20.31884766 -7.33837891 20.31884766 -10.2265625 20.4140625 C-11.2578125 20.45273437 -12.2890625 20.49140625 -13.3515625 20.53125 C-14.43179688 20.5621875 -15.51203125 20.593125 -16.625 20.625 C-17.71296875 20.66367187 -18.8009375 20.70234375 -19.921875 20.7421875 C-22.61441165 20.83666247 -25.30693757 20.92222431 -28 21 C-28.99 23.31 -29.98 25.62 -31 28 C-28.36 28 -25.72 28 -23 28 C-25.66376615 33.04713586 -28.61749417 35.9641279 -33.875 38.25 C-37.42499871 39.10199969 -40.36276495 39.34313538 -44 39 C-46.05518408 37.46100169 -46.88077396 36.54457299 -47.43359375 34.01953125 C-47.44772205 26.03704379 -44.59087533 19.74617742 -39 14 C-33.25752728 9.81179159 -28.87431454 7.8680883 -21.71875 7.9296875 C-20.20861328 7.91421875 -20.20861328 7.91421875 -18.66796875 7.8984375 C-16.55603293 7.88281282 -14.44379371 7.89062821 -12.33203125 7.921875 C-6.85694085 8.0371263 -6.85694085 8.0371263 -2.390625 5.38378906 C-1.1066995 3.26249109 -1.1066995 3.26249109 0 0 Z " fill="#F8FAFA" transform="translate(104,0)"/>
<path d="M0 0 C1.86856611 -0.00749596 3.73712223 -0.01816748 5.60565186 -0.03204346 C8.2601323 -0.04993671 10.9142833 -0.05407117 13.56881714 -0.05422974 C14.77371796 -0.06494003 14.77371796 -0.06494003 16.00296021 -0.0758667 C19.94393988 -0.05987583 22.71181435 0.18481675 26.11959839 2.17623901 C28.4516365 2.25397362 30.78798898 2.2659163 33.11959839 2.17623901 C32.45959839 4.15623901 31.79959839 6.13623901 31.11959839 8.17623901 C23.07812935 8.1995187 15.03667465 8.21723316 6.99518013 8.22805119 C3.26027349 8.23324607 -0.47460991 8.24028127 -4.20950317 8.25167847 C-7.82105866 8.26262899 -11.43259193 8.26854135 -15.04416275 8.27111626 C-16.41469802 8.27294876 -17.78523222 8.27652665 -19.1557579 8.28196907 C-26.07596519 8.30832993 -32.88627763 8.24399803 -39.7600708 7.39155579 C-42.02437734 7.16161847 -44.23078895 7.14193851 -46.50540161 7.17623901 C-50.71804672 7.23631238 -54.71302037 6.78240356 -58.88040161 6.17623901 C-58.55040161 5.51623901 -58.22040161 4.85623901 -57.88040161 4.17623901 C-55.55324161 3.80223116 -53.219223 3.46859169 -50.88040161 3.17623901 C-50.55040161 2.84623901 -50.22040161 2.51623901 -49.88040161 2.17623901 C-33.46214191 -0.31697253 -16.56753204 0.06167624 0 0 Z " fill="#2EBAEA" transform="translate(266.8804016113281,19.823760986328125)"/>
<path d="M0 0 C0.99 0 1.98 0 3 0 C3 0.66 3 1.32 3 2 C5.64 2 8.28 2 11 2 C11 2.66 11 3.32 11 4 C11.99 3.34 12.98 2.68 14 2 C16.5 1.875 16.5 1.875 19 2 C19.99 2 20.98 2 22 2 C22.66 2 23.32 2 24 2 C24.495 3.485 24.495 3.485 25 5 C25.99 4.01 26.98 3.02 28 2 C27.01 4.97 26.02 7.94 25 11 C24.34 11 23.68 11 23 11 C22.34 10.34 21.68 9.68 21 9 C20.34 10.32 19.68 11.64 19 13 C6.79 13 -5.42 13 -18 13 C-17.2817669 8.6906014 -16.69268808 5.83675965 -15 2 C-14.34 2 -13.68 2 -13 2 C-13 3.65 -13 5.3 -13 7 C-12.34 7 -11.68 7 -11 7 C-10.67 5.35 -10.34 3.7 -10 2 C-8.68 2 -7.36 2 -6 2 C-5.67 3.65 -5.34 5.3 -5 7 C-4.67386719 6.4946875 -4.34773437 5.989375 -4.01171875 5.46875 C-3.35623047 4.49421875 -3.35623047 4.49421875 -2.6875 3.5 C-2.25824219 2.8503125 -1.82898438 2.200625 -1.38671875 1.53125 C-0.92910156 1.0259375 -0.47148437 0.520625 0 0 Z " fill="#EFEEEE" transform="translate(155,36)"/>
<path d="M0 0 C0 1.65 0 3.3 0 5 C0.99 5 1.98 5 3 5 C2.875 6.8125 2.875 6.8125 2 9 C-3.03571429 12 -3.03571429 12 -6 12 C-5.7834375 12.92619141 -5.7834375 12.92619141 -5.5625 13.87109375 C-4.2802401 19.72140455 -3.80691904 25.01449037 -4 31 C-7.3 31 -10.6 31 -14 31 C-14.33482863 28.37518273 -14.6679277 25.75016613 -15 23.125 C-15.09539063 22.37863281 -15.19078125 21.63226563 -15.2890625 20.86328125 C-16 15.2265625 -16 15.2265625 -16 13 C-19.3 13 -22.6 13 -26 13 C-24.68 12.34 -23.36 11.68 -22 11 C-22.33 9.35 -22.66 7.7 -23 6 C-21.83082031 5.90203125 -20.66164063 5.8040625 -19.45703125 5.703125 C-17.90876596 5.55299018 -16.3605933 5.40189795 -14.8125 5.25 C-13.65911133 5.1571875 -13.65911133 5.1571875 -12.48242188 5.0625 C-8.00897692 4.60171597 -3.24143701 0 0 0 Z " fill="#2B2D84" transform="translate(46,15)"/>
<path d="M0 0 C54.78 0 109.56 0 166 0 C166 1.65 166 3.3 166 5 C165.34 5 164.68 5 164 5 C163.67 6.65 163.34 8.3 163 10 C142.54 10 122.08 10 101 10 C101 9.67 101 9.34 101 9 C118.16 9 135.32 9 153 9 C153.33 8.34 153.66 7.68 154 7 C154 7.66 154 8.32 154 9 C155.65 9 157.3 9 159 9 C159.144375 8.38125 159.28875 7.7625 159.4375 7.125 C160 5 160 5 161 3 C159.1128125 3.309375 159.1128125 3.309375 157.1875 3.625 C153.5985242 4.21335669 153.24926122 4.16617415 150 2 C147.18760793 1.68702883 147.18760793 1.68702883 143.94465637 1.7215271 C142.67840927 1.71036362 141.41216217 1.69920013 140.10754395 1.68769836 C138.70166045 1.68533332 137.29577663 1.68315769 135.88989258 1.68115234 C134.41163076 1.67185568 132.9333742 1.6616874 131.4551239 1.65071106 C127.43891189 1.62336733 123.42273504 1.60824875 119.40645432 1.59528303 C115.21035613 1.57967158 111.01432994 1.55287506 106.81828308 1.5272522 C98.87106696 1.48042918 90.92383735 1.44370215 82.97655362 1.41057932 C73.92945335 1.3723828 64.88242533 1.32296619 55.83538592 1.27259517 C37.22364346 1.16922293 18.61185693 1.07997976 0 1 C0 0.67 0 0.34 0 0 Z " fill="#A8BECB" transform="translate(139,19)"/>
<path d="M0 0 C17.16 0 34.32 0 52 0 C50.98462698 3.04611905 50.48895815 4.09620809 48 6 C45.71923828 6.37231445 45.71923828 6.37231445 43.0703125 6.36328125 C42.10996094 6.36263672 41.14960937 6.36199219 40.16015625 6.36132812 C39.15855469 6.34521484 38.15695313 6.32910156 37.125 6.3125 C36.13113281 6.31572266 35.13726562 6.31894531 34.11328125 6.32226562 C29.19616709 6.28606197 25.53774336 6.04682274 21 4 C22.32 3.67 23.64 3.34 25 3 C25 2.34 25 1.68 25 1 C16.68087442 3.89805604 10.15024049 7.66167876 4 14 C4.13019531 13.32453125 4.26039062 12.6490625 4.39453125 11.953125 C4.53246094 11.06109375 4.67039062 10.1690625 4.8125 9.25 C4.96332031 8.36828125 5.11414062 7.4865625 5.26953125 6.578125 C5.18058594 5.72734375 5.09164062 4.8765625 5 4 C3.35 2.68 1.7 1.36 0 0 Z " fill="#353592" transform="translate(52,0)"/>
<path d="M0 0 C2.91714801 -0.27570606 5.5886826 -0.3722561 8.5 -0.3125 C9.67755859 -0.31733398 9.67755859 -0.31733398 10.87890625 -0.32226562 C16.73296131 -0.26703869 16.73296131 -0.26703869 19 2 C19 5.70888518 18.05888422 6.93781386 15.4921875 9.6484375 C11.57670376 12.78983502 7.96124406 12.57890327 3.125 12.3125 C1.949375 12.27866211 1.949375 12.27866211 0.75 12.24414062 C-1.1675026 12.18568018 -3.0840106 12.09601283 -5 12 C-4.54738642 10.56068883 -4.08767021 9.12361001 -3.625 7.6875 C-3.24214844 6.48673828 -3.24214844 6.48673828 -2.8515625 5.26171875 C-2 3 -2 3 0 0 Z " fill="#F7F9F8" transform="translate(28,8)"/>
<path d="M0 0 C0.33 0 0.66 0 1 0 C1 1.65 1 3.3 1 5 C2.65 3.68 4.3 2.36 6 1 C6.33 2.32 6.66 3.64 7 5 C7.9075 4.67 8.815 4.34 9.75 4 C13 3 13 3 17 3 C17 3.66 17 4.32 17 5 C18.41702513 4.85769192 19.8336096 4.71099254 21.25 4.5625 C22.03890625 4.48128906 22.8278125 4.40007813 23.640625 4.31640625 C25.9987921 4.05128191 25.9987921 4.05128191 28.234375 3.40234375 C28.81703125 3.26957031 29.3996875 3.13679688 30 3 C30.495 3.495 30.495 3.495 31 4 C34.72224599 4.29386153 35.77786243 4.14809171 39 2 C39.495 2.99 39.495 2.99 40 4 C40.33 3.01 40.66 2.02 41 1 C41.66 1 42.32 1 43 1 C43 2.32 43 3.64 43 5 C43.66 4.855625 44.32 4.71125 45 4.5625 C48.65599551 3.87700084 52.30622195 3.43824485 56 3 C56 3.66 56 4.32 56 5 C57.32 5.33 58.64 5.66 60 6 C59 7 59 7 56.26023865 7.12025452 C55.03668167 7.11803391 53.81312469 7.11581329 52.55249023 7.11352539 C51.54277664 7.11374443 51.54277664 7.11374443 50.51266479 7.1139679 C48.27794216 7.11326878 46.0433019 7.10547652 43.80859375 7.09765625 C42.26302638 7.09579206 40.71745843 7.09436816 39.17189026 7.09336853 C35.09642923 7.0895434 31.02100363 7.07971317 26.94555664 7.06866455 C22.78988118 7.05845032 18.63420001 7.05387089 14.47851562 7.04882812 C6.31899413 7.03809089 -1.84049853 7.02101454 -10 7 C-9.67 6.34 -9.34 5.68 -9 5 C-7.865625 4.87625 -6.73125 4.7525 -5.5625 4.625 C-3.7990625 4.315625 -3.7990625 4.315625 -2 4 C-0.48705712 2.06402968 -0.48705712 2.06402968 0 0 Z " fill="#FBF9FA" transform="translate(202,42)"/>
<path d="M0 0 C0.66 0.33 1.32 0.66 2 1 C2.99 0.67 3.98 0.34 5 0 C5.66 0.66 6.32 1.32 7 2 C7.33 1.34 7.66 0.68 8 0 C10.97 0 13.94 0 17 0 C17 0.99 17 1.98 17 3 C16.67 2.34 16.34 1.68 16 1 C14.68 1.33 13.36 1.66 12 2 C11.67 3.65 11.34 5.3 11 7 C11.78375 6.814375 12.5675 6.62875 13.375 6.4375 C16 6 16 6 18 7 C17.34 8.32 16.68 9.64 16 11 C9.73 11 3.46 11 -3 11 C-3 6.32674845 -1.92757363 4.17640953 0 0 Z " fill="#ECEBEC" transform="translate(282,38)"/>
<path d="M0 0 C0.66 0 1.32 0 2 0 C2.33 0.99 2.66 1.98 3 3 C3.66 2.01 4.32 1.02 5 0 C7.6015625 -0.29296875 7.6015625 -0.29296875 10.625 -0.1875 C12.12933594 -0.14689453 12.12933594 -0.14689453 13.6640625 -0.10546875 C14.43492187 -0.07066406 15.20578125 -0.03585938 16 0 C16 0.33 16 0.66 16 1 C14.35 1.33 12.7 1.66 11 2 C11.99 2.33 12.98 2.66 14 3 C14 3.66 14 4.32 14 5 C12.35 5 10.7 5 9 5 C9 5.66 9 6.32 9 7 C10.32 7.33 11.64 7.66 13 8 C7.62669111 11.39366878 3.13053511 11.32712342 -3 11 C-4 8 -4 8 -3.22265625 5.95703125 C-2.83980469 5.24933594 -2.45695313 4.54164062 -2.0625 3.8125 C-1.68222656 3.09707031 -1.30195313 2.38164063 -0.91015625 1.64453125 C-0.60980469 1.10183594 -0.30945313 0.55914062 0 0 Z " fill="#F1F0F0" transform="translate(185,38)"/>
<path d="M0 0 C0.66 0.33 1.32 0.66 2 1 C1.34 2.98 0.68 4.96 0 7 C2.34058637 4.87219421 3.70700306 2.88437779 5 0 C8 0 11 0 14 0 C14.24042276 4.08718695 13.42258812 7.17679443 12 11 C10.04196493 11.05389087 8.08351091 11.09274217 6.125 11.125 C5.03445313 11.14820313 3.94390625 11.17140625 2.8203125 11.1953125 C0 11 0 11 -2 9 C-1.45652174 2.91304348 -1.45652174 2.91304348 0 0 Z " fill="#838283" transform="translate(261,38)"/>
<path d="M0 0 C4.95 0 9.9 0 15 0 C14 6 14 6 13 9 C-7.46 9 -27.92 9 -49 9 C-49 8.67 -49 8.34 -49 8 C-31.84 8 -14.68 8 3 8 C3.33 7.34 3.66 6.68 4 6 C4 6.66 4 7.32 4 8 C5.65 8 7.3 8 9 8 C9.144375 7.38125 9.28875 6.7625 9.4375 6.125 C10 4 10 4 11 2 C9.741875 2.226875 8.48375 2.45375 7.1875 2.6875 C5.04296875 3.07421875 5.04296875 3.07421875 3 3 C2.01 2.01 1.02 1.02 0 0 Z " fill="#7DD3E1" transform="translate(289,20)"/>
<path d="M0 0 C-0.69941596 3.14737182 -1.76078698 6.02588876 -3 9 C-3.66 9 -4.32 9 -5 9 C-5 7.68 -5 6.36 -5 5 C-5.66 5 -6.32 5 -7 5 C-7.33 6.32 -7.66 7.64 -8 9 C-8.66 8.67 -9.32 8.34 -10 8 C-10.99 8.495 -10.99 8.495 -12 9 C-13.66619446 9.0396713 -15.33391013 9.04384447 -17 9 C-16.25 2.25 -16.25 2.25 -14 0 C-9.06308499 -1.29300155 -4.96091134 -0.76979659 0 0 Z " fill="#ECEBEB" transform="translate(250,38)"/>
<path d="M0 0 C8.91 0 17.82 0 27 0 C27 0.33 27 0.66 27 1 C25.329375 1.309375 25.329375 1.309375 23.625 1.625 C15.91246025 3.55655969 9.22319077 8.0803838 4 14 C4.13019531 13.32453125 4.26039062 12.6490625 4.39453125 11.953125 C4.53246094 11.06109375 4.67039062 10.1690625 4.8125 9.25 C4.96332031 8.36828125 5.11414062 7.4865625 5.26953125 6.578125 C5.18058594 5.72734375 5.09164062 4.8765625 5 4 C3.35 2.68 1.7 1.36 0 0 Z " fill="#EEF3F7" transform="translate(52,0)"/>
<path d="M0 0 C1.98 0 3.96 0 6 0 C6 0.99 6 1.98 6 3 C6.680625 2.2575 6.680625 2.2575 7.375 1.5 C9 0 9 0 11 0 C11.33 1.98 11.66 3.96 12 6 C12.99 4.02 13.98 2.04 15 0 C15.66 0.33 16.32 0.66 17 1 C16.34 2.65 15.68 4.3 15 6 C15.99 6.33 16.98 6.66 18 7 C18 7.66 18 8.32 18 9 C15.03 9 12.06 9 9 9 C9 8.34 9 7.68 9 7 C7.906875 7.33 6.81375 7.66 5.6875 8 C2 9 2 9 -1 9 C0.875 3.25 0.875 3.25 2 1 C1.34 0.67 0.68 0.34 0 0 Z " fill="#2F2E2E" transform="translate(210,38)"/>
<path d="M0 0 C8.25 0 16.5 0 25 0 C23 7 23 7 22 8 C20.21928754 8.08726223 18.4351686 8.10699041 16.65234375 8.09765625 C15.57275391 8.09443359 14.49316406 8.09121094 13.38085938 8.08789062 C12.24455078 8.07951172 11.10824219 8.07113281 9.9375 8.0625 C8.79732422 8.05798828 7.65714844 8.05347656 6.48242188 8.04882812 C3.65489649 8.03699747 0.8274736 8.0205141 -2 8 C-2 7.34 -2 6.68 -2 6 C5.92 6 13.84 6 22 6 C21.67 4.35 21.34 2.7 21 1 C14.07 1 7.14 1 0 1 C0 0.67 0 0.34 0 0 Z " fill="#232378" transform="translate(109,20)"/>
<path d="M0 0 C0.66 0 1.32 0 2 0 C2.66 0.66 3.32 1.32 4 2 C4.33 1.34 4.66 0.68 5 0 C7.97 0 10.94 0 14 0 C14 0.99 14 1.98 14 3 C13.67 2.34 13.34 1.68 13 1 C11.68 1.33 10.36 1.66 9 2 C8.67 3.65 8.34 5.3 8 7 C9.65 6.67 11.3 6.34 13 6 C12.01 7.485 12.01 7.485 11 9 C10.0925 8.814375 9.185 8.62875 8.25 8.4375 C5.31685676 8.04265379 3.7355343 8.05308428 1 9 C0.67 8.01 0.34 7.02 0 6 C-0.99 6.99 -1.98 7.98 -3 9 C-2.01 6.03 -1.02 3.06 0 0 Z " fill="#909090" transform="translate(285,38)"/>
<path d="M0 0 C11.55 0 23.1 0 35 0 C33.68 2.64 32.36 5.28 31 8 C30.67 7.34 30.34 6.68 30 6 C30.66 4.68 31.32 3.36 32 2 C21.44 2 10.88 2 0 2 C0 1.34 0 0.68 0 0 Z " fill="#414294" transform="translate(109,0)"/>
<path d="M0 0 C15.18 0.33 30.36 0.66 46 1 C46 1.33 46 1.66 46 2 C32.8 2 19.6 2 6 2 C5.34 3.32 4.68 4.64 4 6 C3 7 3 7 0.4375 7.0625 C-0.7690625 7.0315625 -0.7690625 7.0315625 -2 7 C-1.34 4.69 -0.68 2.38 0 0 Z " fill="#273897" transform="translate(138,20)"/>
<path d="M0 0 C1.47786304 0.00503337 2.95572777 0.00959298 4.43359375 0.01367188 C7.99743195 0.02451282 11.56120447 0.04167221 15.125 0.0625 C15.125 0.3925 15.125 0.7225 15.125 1.0625 C14.47015625 1.08755615 13.8153125 1.1126123 13.140625 1.13842773 C10.13526764 1.25542655 7.13014515 1.37767635 4.125 1.5 C3.09503906 1.53931641 2.06507813 1.57863281 1.00390625 1.61914062 C-8.50716213 1.28040475 -8.50716213 1.28040475 -16.875 4.0625 C-19.52963121 4.51709858 -22.19689138 4.76493238 -24.875 5.0625 C-24.875 4.0725 -24.875 3.0825 -24.875 2.0625 C-26.855 2.0625 -28.835 2.0625 -30.875 2.0625 C-30.875 1.7325 -30.875 1.4025 -30.875 1.0625 C-20.55228287 0.15719546 -10.35241297 -0.0623923 0 0 Z " fill="#0A7ECB" transform="translate(232.875,19.9375)"/>
<path d="M0 0 C4.10415189 -0.02898097 8.20827753 -0.0467922 12.3125 -0.0625 C13.47974609 -0.07087891 14.64699219 -0.07925781 15.84960938 -0.08789062 C17.52700195 -0.09272461 17.52700195 -0.09272461 19.23828125 -0.09765625 C20.26993408 -0.10289307 21.30158691 -0.10812988 22.36450195 -0.11352539 C25 0 25 0 28 1 C27.34 3.97 26.68 6.94 26 10 C24.68 10.33 23.36 10.66 22 11 C21 8 21 8 24 1 C16.08 1 8.16 1 0 1 C0 0.67 0 0.34 0 0 Z " fill="#DADDE4" transform="translate(110,19)"/>
<path d="M0 0 C0.78375 0.04125 1.5675 0.0825 2.375 0.125 C3.125 1.8125 3.125 1.8125 3.375 4.125 C1.75 6.875 1.75 6.875 -0.625 9.125 C-3.375 9.4375 -3.375 9.4375 -5.625 9.125 C-4.6356383 0.22074468 -4.6356383 0.22074468 0 0 Z " fill="#282627" transform="translate(255.625,37.875)"/>
<path d="M0 0 C-0.59731544 5.37583893 -0.59731544 5.37583893 -2.25 7.9375 C-4 9 -4 9 -6.6875 8.6875 C-7.450625 8.460625 -8.21375 8.23375 -9 8 C-8.64005447 5.3364031 -8.28838998 3.41816548 -6.75 1.1875 C-4.41988723 -0.39364795 -2.75498245 -0.22337696 0 0 Z " fill="#242424" transform="translate(174,38)"/>
<path d="M0 0 C0.33 0.66 0.66 1.32 1 2 C0.22265625 4.09375 0.22265625 4.09375 -0.9375 6.5 C-2.52851428 9.62012137 -2.52851428 9.62012137 -3 13 C-1.35 13 0.3 13 2 13 C1.67 14.32 1.34 15.64 1 17 C-1.97 17 -4.94 17 -8 17 C-5.74044324 11.02659729 -3.32311275 5.45939951 0 0 Z " fill="#252B72" transform="translate(95,29)"/>
<path d="M0 0 C0.66 0 1.32 0 2 0 C2.33 0.99 2.66 1.98 3 3 C3.66 2.01 4.32 1.02 5 0 C5.99 0.33 6.98 0.66 8 1 C6.68 3.64 5.36 6.28 4 9 C3.01 9 2.02 9 1 9 C0.34 8.34 -0.32 7.68 -1 7 C-1.33 7.66 -1.66 8.32 -2 9 C-2.66 8.67 -3.32 8.34 -4 8 C-2.68 5.36 -1.36 2.72 0 0 Z " fill="#3B3A3A" transform="translate(185,38)"/>
<path d="M0 0 C2.77526522 2.56969002 2.99562206 3.9124411 3.1875 7.75 C3.125625 8.8225 3.06375 9.895 3 11 C2.67 11 2.34 11 2 11 C2 9.02 2 7.04 2 5 C0.68 5.33 -0.64 5.66 -2 6 C-2 6.66 -2 7.32 -2 8 C-2.66 8 -3.32 8 -4 8 C-4 10.64 -4 13.28 -4 16 C-4.33 16 -4.66 16 -5 16 C-5.24887295 13.89807303 -5.4734719 11.79326036 -5.6875 9.6875 C-5.81511719 8.51574219 -5.94273438 7.34398437 -6.07421875 6.13671875 C-6 3 -6 3 -4.70703125 1.08203125 C-3 0 -3 0 0 0 Z " fill="#3B3D90" transform="translate(54,24)"/>
<path d="M0 0 C2.625 -0.1875 2.625 -0.1875 5 0 C5.24042276 4.08718695 4.42258812 7.17679443 3 11 C2.34 10.67 1.68 10.34 1 10 C1.33 8.68 1.66 7.36 2 6 C-1.11785113 6.64644661 -1.11785113 6.64644661 -2 9 C-2.66 9 -3.32 9 -4 9 C-2.94124926 5.59687262 -1.99097846 2.98646769 0 0 Z " fill="#5D5C5C" transform="translate(270,38)"/>
<path d="M0 0 C1.98 0 3.96 0 6 0 C5.30058404 3.14737182 4.23921302 6.02588876 3 9 C2.34 9 1.68 9 1 9 C1 7.68 1 6.36 1 5 C0.34 5 -0.32 5 -1 5 C-1.33 6.32 -1.66 7.64 -2 9 C-2.66 8.67 -3.32 8.34 -4 8 C-2.68 5.36 -1.36 2.72 0 0 Z " fill="#1F1D1E" transform="translate(244,38)"/>
<path d="M0 0 C1.66289062 0.00676758 1.66289062 0.00676758 3.359375 0.01367188 C6.07297399 0.02536842 8.78645761 0.04175914 11.5 0.0625 C11.5 0.3925 11.5 0.7225 11.5 1.0625 C10.51257813 1.12308594 9.52515625 1.18367188 8.5078125 1.24609375 C7.22648437 1.32988281 5.94515625 1.41367187 4.625 1.5 C3.34882813 1.58121094 2.07265625 1.66242187 0.7578125 1.74609375 C-2.38300152 1.85456027 -2.38300152 1.85456027 -4.5 3.0625 C-7.2235195 2.97325148 -9.91013311 2.82896668 -12.625 2.625 C-13.75615234 2.54668945 -13.75615234 2.54668945 -14.91015625 2.46679688 C-16.7737937 2.33704996 -18.63694996 2.20042512 -20.5 2.0625 C-20.5 1.7325 -20.5 1.4025 -20.5 1.0625 C-13.64016191 0.00521913 -6.93216776 -0.05389843 0 0 Z " fill="#0B55AE" transform="translate(204.5,19.9375)"/>
<path d="M0 0 C1.98 0 3.96 0 6 0 C5.7834375 0.8353125 5.7834375 0.8353125 5.5625 1.6875 C4.97230872 4.11384195 4.476571 6.54906345 4 9 C3.34 9 2.68 9 2 9 C2 7.68 2 6.36 2 5 C1.01 5.495 1.01 5.495 0 6 C-0.33 6.99 -0.66 7.98 -1 9 C-1.66 9 -2.32 9 -3 9 C-2.01 6.03 -1.02 3.06 0 0 Z " fill="#3F3E3E" transform="translate(159,38)"/>
<path d="M0 0 C0.66 0 1.32 0 2 0 C2.66 0.66 3.32 1.32 4 2 C4.33 1.34 4.66 0.68 5 0 C5.66 0.33 6.32 0.66 7 1 C5.68 3.64 4.36 6.28 3 9 C2.34 9 1.68 9 1 9 C0.67 8.01 0.34 7.02 0 6 C-0.99 6.99 -1.98 7.98 -3 9 C-2.01 6.03 -1.02 3.06 0 0 Z " fill="#262526" transform="translate(285,38)"/>
<path d="M0 0 C0.66 0 1.32 0 2 0 C2.33 0.99 2.66 1.98 3 3 C3.99 2.01 4.98 1.02 6 0 C5.01 2.97 4.02 5.94 3 9 C2.34 9 1.68 9 1 9 C0.34 8.34 -0.32 7.68 -1 7 C-1.33 7.66 -1.66 8.32 -2 9 C-2.66 8.67 -3.32 8.34 -4 8 C-2.68 5.36 -1.36 2.72 0 0 Z " fill="#252525" transform="translate(177,38)"/>
<path d="M0 0 C2.97 0.495 2.97 0.495 6 1 C6.625 3.375 6.625 3.375 7 6 C5 8 5 8 2.375 8.125 C1.59125 8.08375 0.8075 8.0425 0 8 C0.66 7.34 1.32 6.68 2 6 C1.67 5.38125 1.34 4.7625 1 4.125 C0 2 0 2 0 0 Z " fill="#A5A7B4" transform="translate(145,0)"/>
<path d="M0 0 C0.66 0 1.32 0 2 0 C2 1.65 2 3.3 2 5 C2.66 5 3.32 5 4 5 C4.33 3.35 4.66 1.7 5 0 C5.66 0.33 6.32 0.66 7 1 C5.68 3.64 4.36 6.28 3 9 C2.34 9 1.68 9 1 9 C0.67 8.01 0.34 7.02 0 6 C-0.99 6.99 -1.98 7.98 -3 9 C-2.01 6.03 -1.02 3.06 0 0 Z " fill="#222021" transform="translate(202,38)"/>
<path d="M0 0 C3.125 -0.1875 3.125 -0.1875 6 0 C6 0.33 6 0.66 6 1 C4.35 1.33 2.7 1.66 1 2 C1.99 2.33 2.98 2.66 4 3 C4 3.66 4 4.32 4 5 C2.35 5 0.7 5 -1 5 C-1 5.66 -1 6.32 -1 7 C0.32 7.33 1.64 7.66 3 8 C2 9 2 9 -1.0625 9.0625 C-2.031875 9.041875 -3.00125 9.02125 -4 9 C-2.94124926 5.59687262 -1.99097846 2.98646769 0 0 Z " fill="#2D2D2D" transform="translate(133,38)"/>
<path d="M0 0 C1.98 0 3.96 0 6 0 C6.37254569 3.35291118 6.31050198 4.6038423 4.1875 7.3125 C2 9 2 9 -1 9 C0.875 3.25 0.875 3.25 2 1 C1.34 0.67 0.68 0.34 0 0 Z " fill="#838383" transform="translate(210,38)"/>
<path d="M0 0 C3.125 -0.1875 3.125 -0.1875 6 0 C6 0.33 6 0.66 6 1 C4.35 1.33 2.7 1.66 1 2 C1.99 2.33 2.98 2.66 4 3 C4 3.66 4 4.32 4 5 C2.35 5 0.7 5 -1 5 C-1 5.66 -1 6.32 -1 7 C0.32 7.33 1.64 7.66 3 8 C2 9 2 9 -1.0625 9.0625 C-2.031875 9.041875 -3.00125 9.02125 -4 9 C-2.94124926 5.59687262 -1.99097846 2.98646769 0 0 Z " fill="#312F2F" transform="translate(195,38)"/>
<path d="M0 0 C0.66 0 1.32 0 2 0 C2 1.65 2 3.3 2 5 C2.66 5 3.32 5 4 5 C4.33 3.35 4.66 1.7 5 0 C5.66 0.33 6.32 0.66 7 1 C5.68 3.64 4.36 6.28 3 9 C2.34 9 1.68 9 1 9 C0.67 8.01 0.34 7.02 0 6 C-0.99 6.99 -1.98 7.98 -3 9 C-2.01 6.03 -1.02 3.06 0 0 Z " fill="#212020" transform="translate(140,38)"/>
<path d="M0 0 C0.78375 0.04125 1.5675 0.0825 2.375 0.125 C2.375 1.115 2.375 2.105 2.375 3.125 C2.045 2.465 1.715 1.805 1.375 1.125 C-0.6412233 1.84063266 -0.6412233 1.84063266 -2.625 3.125 C-3.43028889 5.17500871 -3.43028889 5.17500871 -3.625 7.125 C-2.965 6.795 -2.305 6.465 -1.625 6.125 C-1.625 5.465 -1.625 4.805 -1.625 4.125 C-0.305 4.455 1.015 4.785 2.375 5.125 C1.1875 7.125 1.1875 7.125 -0.625 9.125 C-3.3125 9.375 -3.3125 9.375 -5.625 9.125 C-4.6356383 0.22074468 -4.6356383 0.22074468 0 0 Z " fill="#1A1919" transform="translate(238.625,37.875)"/>
<path d="M0 0 C0 1.98 0 3.96 0 6 C-0.66 6 -1.32 6 -2 6 C-2 4.35 -2 2.7 -2 1 C-2.66 1 -3.32 1 -4 1 C-4.33 2.65 -4.66 4.3 -5 6 C-6.98 5.34 -8.96 4.68 -11 4 C-11 2.66666667 -11 1.33333333 -11 0 C-6.98195309 -0.84098656 -3.98196457 -1.05404945 0 0 Z " fill="#D6D6D5" transform="translate(144,37)"/>
<path d="M0 0 C0.66 0.33 1.32 0.66 2 1 C1.67 3.97 1.34 6.94 1 10 C-0.32 10.33 -1.64 10.66 -3 11 C-3 6.32674845 -1.92757363 4.17640953 0 0 Z " fill="#939192" transform="translate(282,38)"/>
<path d="M0 0 C0.99 0 1.98 0 3 0 C2.39301257 4.12751449 0.96189209 7.3321148 -1 11 C-2 9 -2 9 -2 6 C-2.99 6.495 -2.99 6.495 -4 7 C-2.92598892 4.08482708 -2.22189824 2.22189824 0 0 Z " fill="#5A5958" transform="translate(155,36)"/>
<path d="M0 0 C0.99 0 1.98 0 3 0 C2.67 1.65 2.34 3.3 2 5 C0.35 5.33 -1.3 5.66 -3 6 C-1.125 1.125 -1.125 1.125 0 0 Z " fill="#E9E7E8" transform="translate(254,39)"/>
<path d="M0 0 C2.14049846 2.14049846 3.64627792 4.29255584 5 7 C3.35 7 1.7 7 0 7 C-0.66 5.68 -1.32 4.36 -2 3 C-1.34 2.01 -0.68 1.02 0 0 Z " fill="#D8DBE4" transform="translate(144,0)"/>
<path d="M0 0 C0.66 0.66 1.32 1.32 2 2 C2.33 2 2.66 2 3 2 C3 3.65 3 5.3 3 7 C2.67 6.34 2.34 5.68 2 5 C0.02 5.66 -1.96 6.32 -4 7 C-2.79618552 4.50638429 -1.54571278 2.31856917 0 0 Z " fill="#1A1A1A" transform="translate(217,40)"/>
<path d="M0 0 C0.66 0 1.32 0 2 0 C1.67 1.65 1.34 3.3 1 5 C-0.32 5.33 -1.64 5.66 -3 6 C-2.42655063 3.13275314 -2.1385485 2.1385485 0 0 Z " fill="#F6F6F5" transform="translate(170,39)"/>
<path d="M0 0 C0.33 0.66 0.66 1.32 1 2 C0.67 2.99 0.34 3.98 0 5 C1.65 4.67 3.3 4.34 5 4 C4.01 5.485 4.01 5.485 3 7 C1.35 6.67 -0.3 6.34 -2 6 C-1.125 1.125 -1.125 1.125 0 0 Z " fill="#242424" transform="translate(293,40)"/>
<path d="M0 0 C0.66 0 1.32 0 2 0 C2.33 2.97 2.66 5.94 3 9 C2.34 9 1.68 9 1 9 C0.87625 8.360625 0.7525 7.72125 0.625 7.0625 C0.315625 6.0415625 0.315625 6.0415625 0 5 C-0.66 4.67 -1.32 4.34 -2 4 C-1.34 2.68 -0.68 1.36 0 0 Z " fill="#656564" transform="translate(219,38)"/>
<path d="M0 0 C0.99 0 1.98 0 3 0 C2.67 1.65 2.34 3.3 2 5 C0.68 4.67 -0.64 4.34 -2 4 C-1.34 2.68 -0.68 1.36 0 0 Z " fill="#FDFBFC" transform="translate(269,44)"/>
<path d="M0 0 C0.99 0.33 1.98 0.66 3 1 C2.01 1.495 2.01 1.495 1 2 C0.34444881 4.52733235 0.34444881 4.52733235 0 7 C-0.99 6.67 -1.98 6.34 -3 6 C-1.125 1.125 -1.125 1.125 0 0 Z " fill="#DCDADB" transform="translate(237,39)"/>
<path d="M0 0 C0.99 0.33 1.98 0.66 3 1 C1.68 3.64 0.36 6.28 -1 9 C-2.60031344 5.79937313 -1.03173691 3.27728194 0 0 Z " fill="#232222" transform="translate(190,38)"/>
<path d="M0 0 C0.33 0 0.66 0 1 0 C1.59732819 2.76264289 2 5.16032769 2 8 C1.01 8.33 0.02 8.66 -1 9 C-0.67 6.03 -0.34 3.06 0 0 Z " fill="#201F1F" transform="translate(148,38)"/>
<path d="M0 0 C2.64 0.99 5.28 1.98 8 3 C8 3.33 8 3.66 8 4 C4.625 4.1875 4.625 4.1875 1 4 C0.34 3.01 -0.32 2.02 -1 1 C-0.67 0.67 -0.34 0.34 0 0 Z " fill="#D2D9F0" transform="translate(59,35)"/>
<path d="M0 0 C0.33 0 0.66 0 1 0 C1.144375 0.78375 1.28875 1.5675 1.4375 2.375 C1.87798925 4.96421018 1.87798925 4.96421018 3 7 C1.68 7.33 0.36 7.66 -1 8 C-2.2077558 4.37673261 -1.54311128 3.35853631 0 0 Z " fill="#D8DEE6" transform="translate(133,22)"/>
<path d="M0 0 C-0.66 1.98 -1.32 3.96 -2 6 C-2.99 5.34 -3.98 4.68 -5 4 C-5 3.34 -5 2.68 -5 2 C-2 0 -2 0 0 0 Z " fill="#E5E5E5" transform="translate(212,39)"/>
<path d="M0 0 C0.66 0 1.32 0 2 0 C2 0.66 2 1.32 2 2 C2.99 2.66 3.98 3.32 5 4 C4 5 4 5 1.4375 5.0625 C0.2309375 5.0315625 0.2309375 5.0315625 -1 5 C-0.67 3.35 -0.34 1.7 0 0 Z " fill="#303176" transform="translate(74,23)"/>
<path d="M0 0 C0.66 0.33 1.32 0.66 2 1 C1.6875 2.9375 1.6875 2.9375 1 5 C0.01 5.33 -0.98 5.66 -2 6 C-1.125 1.125 -1.125 1.125 0 0 Z " fill="#D9D7D8" transform="translate(249,41)"/>
<path d="M0 0 C0 0.99 0 1.98 0 3 C-1.65 3.66 -3.3 4.32 -5 5 C-4.625 3.0625 -4.625 3.0625 -4 1 C-2 0 -2 0 0 0 Z " fill="#E8E8E9" transform="translate(298,39)"/>
<path d="M0 0 C1.32 0.33 2.64 0.66 4 1 C2.68 2.32 1.36 3.64 0 5 C0 3.35 0 1.7 0 0 Z " fill="#2A2829" transform="translate(237,42)"/>
<path d="M0 0 C1 3 1 3 0 6 C-0.66 6 -1.32 6 -2 6 C-1.125 1.125 -1.125 1.125 0 0 Z " fill="#D5D4D4" transform="translate(206,37)"/>
<path d="M0 0 C0.66 0.33 1.32 0.66 2 1 C0.68 2.65 -0.64 4.3 -2 6 C-2.33 5.01 -2.66 4.02 -3 3 C-2.01 2.01 -1.02 1.02 0 0 Z " fill="#C4CCEA" transform="translate(50,21)"/>
<path d="M0 0 C0.99 0 1.98 0 3 0 C2.67 0.99 2.34 1.98 2 3 C1.01 3 0.02 3 -1 3 C-0.67 2.01 -0.34 1.02 0 0 Z " fill="#C5C3C3" transform="translate(245,39)"/>
<path d="M0 0 C0.99 0.33 1.98 0.66 3 1 C2.34 1.66 1.68 2.32 1 3 C0.01 3 -0.98 3 -2 3 C-2 2.34 -2 1.68 -2 1 C-1.34 0.67 -0.68 0.34 0 0 Z " fill="#E3E3EE" transform="translate(42,26)"/>
<path d="M0 0 C0.99 0 1.98 0 3 0 C2.34 1.32 1.68 2.64 1 4 C0.34 4 -0.32 4 -1 4 C-0.67 2.68 -0.34 1.36 0 0 Z " fill="#3C3E8B" transform="translate(102,13)"/>
<path d="M0 0 C0.99 0.99 1.98 1.98 3 3 C2.67 3.66 2.34 4.32 2 5 C1.01 4.34 0.02 3.68 -1 3 C-0.67 2.01 -0.34 1.02 0 0 Z " fill="#ECF0F4" transform="translate(142,4)"/>
</svg>
