<?xml version="1.0" encoding="UTF-8"?>
<svg version="1.1" xmlns="http://www.w3.org/2000/svg" width="318" height="159">
<path d="M0 0 C104.94 0 209.88 0 318 0 C318 52.47 318 104.94 318 159 C213.06 159 108.12 159 0 159 C0 106.53 0 54.06 0 0 Z " fill="#FEFEFE" transform="translate(0,0)"/>
<path d="M0 0 C1.43655854 -0.08131463 2.8744483 -0.13933559 4.3125 -0.1875 C5.51326172 -0.23970703 5.51326172 -0.23970703 6.73828125 -0.29296875 C9 0 9 0 10.79296875 1.38671875 C12 3 12 3 12 5 C12.61875 4.175 13.2375 3.35 13.875 2.5 C15.80907007 0.50986993 16.76250807 0.03081956 19.55859375 -0.33203125 C22.0555153 -0.31432259 24.51289435 -0.21731991 27 0 C26.59007812 0.45890625 26.18015625 0.9178125 25.7578125 1.390625 C25.21898437 2.00421875 24.68015625 2.6178125 24.125 3.25 C23.59132812 3.85328125 23.05765625 4.4565625 22.5078125 5.078125 C21.0202513 6.97418746 19.99677564 8.81290005 19 11 C19.5775 11.63808594 20.155 12.27617188 20.75 12.93359375 C21.4925 13.75988281 22.235 14.58617188 23 15.4375 C23.7425 16.26121094 24.485 17.08492187 25.25 17.93359375 C27 20 27 20 27 21 C18.22421525 21.76681614 18.22421525 21.76681614 15.22265625 19.88671875 C13.875 18.5 13.875 18.5 12 16 C11.61497314 16.84123413 11.61497314 16.84123413 11.22216797 17.69946289 C9.84627523 20.28936246 8.2303789 22.48147836 6.4453125 24.80859375 C5.74792969 25.72060547 5.05054688 26.63261719 4.33203125 27.57226562 C3.60371094 28.51779297 2.87539062 29.46332031 2.125 30.4375 C1.40441406 31.37916016 0.68382812 32.32082031 -0.05859375 33.29101562 C-2.03221129 35.86616853 -4.00831964 38.43879059 -6 41 C-6.66306152 41.9168457 -7.32612305 42.83369141 -8.00927734 43.77832031 C-10 46 -10 46 -13.671875 46.48828125 C-15.0321116 46.4552658 -16.39192338 46.39593571 -17.75 46.3125 C-18.44738281 46.28994141 -19.14476563 46.26738281 -19.86328125 46.24414062 C-21.57644935 46.18547048 -23.28850623 46.09579256 -25 46 C-20.75072398 40.97753767 -16.38128081 36.10508985 -11.875 31.3125 C-11.22845459 30.62349609 -10.58190918 29.93449219 -9.91577148 29.22460938 C-4.06943193 23.02179445 1.92250051 16.97564196 8 11 C7.59007812 10.54109375 7.18015625 10.0821875 6.7578125 9.609375 C6.21898437 8.99578125 5.68015625 8.3821875 5.125 7.75 C4.32449219 6.84507813 4.32449219 6.84507813 3.5078125 5.921875 C2.0202513 4.02581254 0.99677564 2.18709995 0 0 Z " fill="#0A3474" transform="translate(145,60)"/>
<path d="M0 0 C4.99503071 0.4913145 6.31841769 1.88091769 9.8125 5.375 C11.41049033 8.57098065 11.18023555 11.89822756 10.8125 15.375 C9.0536217 19.5407644 6.94260412 21.55007027 2.8125 23.375 C-2.37394068 23.78177966 -2.37394068 23.78177966 -5.1875 22.375 C-5.5175 25.015 -5.8475 27.655 -6.1875 30.375 C-8.8275 30.375 -11.4675 30.375 -14.1875 30.375 C-14.1875 20.805 -14.1875 11.235 -14.1875 1.375 C-10.8875 1.375 -7.5875 1.375 -4.1875 1.375 C-3.1875 0.375 -3.1875 0.375 0 0 Z " fill="#0B3475" transform="translate(76.1875,58.625)"/>
<path d="M0 0 C2.7103893 1.71147432 4.18540529 3.52224856 5.96484375 6.19140625 C6.72627038 12.82669545 6.72627038 12.82669545 4.94921875 16.01171875 C2.7979684 18.69430201 1.24949367 20.09652294 -2.03515625 21.19140625 C-13.34720692 22.18712788 -13.34720692 22.18712788 -17.72265625 19.31640625 C-20.88346315 16.41188099 -21.28156918 14.62559284 -21.53515625 10.44140625 C-21.46747147 6.54953117 -21.04969222 4.37120245 -18.28515625 1.56640625 C-13.05661194 -2.18195953 -5.90542328 -2.34630061 0 0 Z " fill="#093273" transform="translate(277.03515625,84.80859375)"/>
<path d="M0 0 C0.71607422 -0.02449219 1.43214844 -0.04898438 2.16992188 -0.07421875 C5.42795665 -0.09233572 7.69297978 0.15763516 10.51953125 1.8203125 C12.82759821 5.6417702 12.73704996 9.23517951 12.8125 13.625 C12.84214844 14.46546875 12.87179688 15.3059375 12.90234375 16.171875 C12.97281636 18.2390715 13.01994939 20.30704033 13.0625 22.375 C8.72916667 22.375 4.39583333 22.375 0.0625 22.375 C-1.16146484 22.42720703 -1.16146484 22.42720703 -2.41015625 22.48046875 C-3.26480469 22.50753906 -4.11945313 22.53460938 -5 22.5625 C-6.28583984 22.61470703 -6.28583984 22.61470703 -7.59765625 22.66796875 C-9.9375 22.375 -9.9375 22.375 -11.72265625 21.08203125 C-13.74401498 18.24172976 -13.29724012 15.73257447 -12.9375 12.375 C-11.3594701 9.74495016 -10.21910312 9.44703801 -7.25 8.6875 C-3.44384145 8.32842844 0.24047661 8.30910304 4.0625 8.375 C3.7325 7.715 3.4025 7.055 3.0625 6.375 C1.06295254 6.33245644 -0.93791636 6.33419217 -2.9375 6.375 C-3.2675 6.705 -3.5975 7.035 -3.9375 7.375 C-6.60808851 7.51615161 -9.26182238 7.41747107 -11.9375 7.375 C-11.625 5 -11.625 5 -10.9375 2.375 C-7.22932221 -0.09711853 -4.2949099 0.00769008 0 0 Z " fill="#0C3575" transform="translate(195.9375,83.625)"/>
<path d="M0 0 C1.216875 0.00386719 2.43375 0.00773437 3.6875 0.01171875 C6.75108988 0.28989849 8.48542359 0.60186268 11 2.3125 C12.11823815 4.54897631 12.19396061 5.96141529 12.31640625 8.4453125 C12.35830078 9.25097656 12.40019531 10.05664062 12.44335938 10.88671875 C12.48267578 11.72847656 12.52199219 12.57023437 12.5625 13.4375 C12.60568359 14.28699219 12.64886719 15.13648437 12.69335938 16.01171875 C12.79954236 18.11178223 12.90028497 20.21211948 13 22.3125 C11.73542969 22.29509766 11.73542969 22.29509766 10.4453125 22.27734375 C9.34960938 22.26832031 8.25390625 22.25929688 7.125 22.25 C6.03445312 22.23839844 4.94390625 22.22679688 3.8203125 22.21484375 C1.04822454 22.11505697 1.04822454 22.11505697 -1 23.3125 C-8.11699779 23.88645143 -8.11699779 23.88645143 -11.5 21.6875 C-13.45562482 18.59109404 -13.60024477 16.91396865 -13 13.3125 C-11.390625 11.140625 -11.390625 11.140625 -9 9.3125 C-5.765625 8.921875 -5.765625 8.921875 -2.25 9.0625 C-1.07953125 9.09859375 0.0909375 9.1346875 1.296875 9.171875 C2.18890625 9.21828125 3.0809375 9.2646875 4 9.3125 C4 8.3225 4 7.3325 4 6.3125 C-0.14093698 6.10279441 -0.14093698 6.10279441 -4 7.3125 C-6.6723621 7.44665472 -9.32250488 7.35568541 -12 7.3125 C-11.64819159 4.76188904 -11.22729332 3.54089669 -9.390625 1.6953125 C-6.14991034 -0.17921853 -3.72201345 -0.05125654 0 0 Z " fill="#0C3475" transform="translate(129,58.6875)"/>
<path d="M0 0 C1.11246094 -0.00773437 2.22492188 -0.01546875 3.37109375 -0.0234375 C6.8650625 0.41277402 8.76676983 1.26799897 11.5625 3.375 C12.375 5.5625 12.375 5.5625 12.5625 7.375 C7.03572267 7.56892201 2.80635089 7.1229503 -2.4375 5.375 C-2.4375 6.365 -2.4375 7.355 -2.4375 8.375 C-1.68984375 8.41238281 -0.9421875 8.44976562 -0.171875 8.48828125 C1.30539063 8.58689453 1.30539063 8.58689453 2.8125 8.6875 C3.78703125 8.74550781 4.7615625 8.80351563 5.765625 8.86328125 C8.81591611 9.42136524 10.26961276 10.33869776 12.5625 12.375 C12.07534605 18.82978988 12.07534605 18.82978988 9.953125 21.0859375 C6.71203251 22.83358541 4.22698356 22.73796429 0.5625 22.6875 C-0.654375 22.68363281 -1.87125 22.67976563 -3.125 22.67578125 C-6.18487809 22.39793855 -7.95494556 22.14050595 -10.4375 20.375 C-11.1875 17.75 -11.1875 17.75 -11.4375 15.375 C-5.28515625 15.27734375 -5.28515625 15.27734375 -3.4375 15.375 C-3.1075 15.705 -2.7775 16.035 -2.4375 16.375 C-0.43791636 16.41580783 1.56295254 16.41754356 3.5625 16.375 C0.72665222 14.87595918 -2.06811686 13.77756559 -5.125 12.8125 C-9.32745215 11.48504785 -9.32745215 11.48504785 -10.4375 10.375 C-10.75 7 -10.75 7 -10.4375 3.375 C-7.27485976 0.04429675 -4.45534102 -0.0309041 0 0 Z " fill="#0C3475" transform="translate(168.4375,83.625)"/>
<path d="M0 0 C2.76676409 1.38593913 3.94107161 2.59791688 6 5 C6 5.66 6 6.32 6 7 C-3.41002278 7.18451025 -3.41002278 7.18451025 -8 6 C-8 6.66 -8 7.32 -8 8 C-7.24074219 8.12117188 -6.48148438 8.24234375 -5.69921875 8.3671875 C-4.20841797 8.61855469 -4.20841797 8.61855469 -2.6875 8.875 C-1.70136719 9.03742188 -0.71523438 9.19984375 0.30078125 9.3671875 C3 10 3 10 6 12 C6.5 14.875 6.5 14.875 6 18 C2.04127426 21.95872574 -1.37876407 23.14976469 -6.875 23.25 C-11.03660642 23.19532196 -13.84050641 22.9556553 -17 20 C-17.8125 17.3125 -17.8125 17.3125 -18 15 C-11.9453125 14.8046875 -11.9453125 14.8046875 -10 15 C-9.34 15.66 -8.68 16.32 -8 17 C-5.41645782 17.16687448 -5.41645782 17.16687448 -3 17 C-2.67 16.34 -2.34 15.68 -2 15 C-2.91523437 14.80664062 -3.83046875 14.61328125 -4.7734375 14.4140625 C-5.96195313 14.15367188 -7.15046875 13.89328125 -8.375 13.625 C-10.15003906 13.24214844 -10.15003906 13.24214844 -11.9609375 12.8515625 C-15 12 -15 12 -17 10 C-17.4375 7.125 -17.4375 7.125 -17 4 C-12.94120096 -1.50837012 -6.20704347 -0.99681265 0 0 Z " fill="#0E3575" transform="translate(53,59)"/>
<path d="M0 0 C2.80928282 1.00294979 3.83423191 1.83423191 6 4 C6.33 5.32 6.66 6.64 7 8 C4.03 8 1.06 8 -2 8 C-2 7.34 -2 6.68 -2 6 C-4.91652174 5.83318891 -4.91652174 5.83318891 -8 6 C-10.31563087 7.88500271 -10.31563087 7.88500271 -10.25 11 C-10.31563087 14.11499729 -10.31563087 14.11499729 -8 16 C-5.5 16.33333333 -5.5 16.33333333 -3 16 C-2.34 15.34 -1.68 14.68 -1 14 C1.68839385 13.73008094 4.29141936 13.91262643 7 14 C5.71869292 17.95069684 4.61309482 19.90536529 1 22 C-4.74529535 22.83064511 -11.87371583 23.57427901 -16.8125 20 C-19.73148415 15.99682173 -20 13.94958438 -20 9 C-17.70488786 -1.09849343 -8.59505627 -1.07842613 0 0 Z " fill="#0C3474" transform="translate(247,84)"/>
<path d="M0 0 C0.99 0 1.98 0 3 0 C3 2.64 3 5.28 3 8 C1.35 8.66 -0.3 9.32 -2 10 C-2.33 13.96 -2.66 17.92 -3 22 C-5.64 22 -8.28 22 -11 22 C-11 15.07 -11 8.14 -11 1 C-7.66666667 1 -4.33333333 1 -1 1 C-0.67 0.67 -0.34 0.34 0 0 Z " fill="#053072" transform="translate(223,84)"/>
<path d="M0 0 C4.66666667 0 9.33333333 0 14 0 C14 2.31 14 4.62 14 7 C12.35 7.66 10.7 8.32 9 9 C8.67 12.96 8.34 16.92 8 21 C5.36 21 2.72 21 0 21 C0 14.07 0 7.14 0 0 Z " fill="#052E71" transform="translate(101,60)"/>
<path d="M0 0 C2.64 0 5.28 0 8 0 C8 6.93 8 13.86 8 21 C5.36 21 2.72 21 0 21 C0 14.07 0 7.14 0 0 Z " fill="#032C70" transform="translate(89,60)"/>
<path d="M0 0 C1.90845703 0.04060547 1.90845703 0.04060547 3.85546875 0.08203125 C5.31919922 0.13423828 5.31919922 0.13423828 6.8125 0.1875 C7.1425 1.1775 7.4725 2.1675 7.8125 3.1875 C4.5125 3.5175 1.2125 3.8475 -2.1875 4.1875 C-1.8575 5.1775 -1.5275 6.1675 -1.1875 7.1875 C0.4625 7.1875 2.1125 7.1875 3.8125 7.1875 C4.1425 8.8375 4.4725 10.4875 4.8125 12.1875 C2.35867866 13.41441067 0.61265897 13.38925931 -2.125 13.4375 C-3.00027344 13.46328125 -3.87554687 13.4890625 -4.77734375 13.515625 C-7.1875 13.1875 -7.1875 13.1875 -8.98046875 11.890625 C-10.99277353 9.05125645 -10.54661632 6.53925235 -10.1875 3.1875 C-7.6871963 -0.78570989 -4.33560025 -0.11932845 0 0 Z " fill="#083173" transform="translate(193.1875,92.8125)"/>
<path d="M0 0 C2.9375 0.875 2.9375 0.875 4.9375 3.875 C4.75 6.9375 4.75 6.9375 3.9375 9.875 C0.9375 11.875 0.9375 11.875 -1.625 11.625 C-4.0625 10.875 -4.0625 10.875 -6.0625 8.875 C-6.39552312 5.7445827 -6.53921956 3.69601702 -4.9375 0.9375 C-3.0625 -0.125 -3.0625 -0.125 0 0 Z " fill="#E9EBF1" transform="translate(270.0625,89.125)"/>
<path d="M0 0 C0.33 0 0.66 0 1 0 C1 9.57 1 19.14 1 29 C0.67 29 0.34 29 0 29 C-0.495 22.565 -0.495 22.565 -1 16 C-1.33 16 -1.66 16 -2 16 C-2.33 14.35 -2.66 12.7 -3 11 C-7.32564205 9.41744803 -11.428721 8.54855348 -16 8 C-16 6.68 -16 5.36 -16 4 C-15.071875 4.2165625 -15.071875 4.2165625 -14.125 4.4375 C-9.77462983 5.22056663 -5.39978093 5.59846659 -1 6 C-0.67 4.02 -0.34 2.04 0 0 Z " fill="#D3D9E4" transform="translate(61,60)"/>
<path d="M0 0 C2.875 -0.1875 2.875 -0.1875 6 0 C8 3 8 3 7.6875 5.625 C7 8 7 8 6 9 C3.5625 9.1875 3.5625 9.1875 1 9 C0.34 8.34 -0.32 7.68 -1 7 C-0.625 3.375 -0.625 3.375 0 0 Z " fill="#F1F3F6" transform="translate(71,66)"/>
<path d="M0 0 C0 0.99 0 1.98 0 3 C-0.66 3.66 -1.32 4.32 -2 5 C1.63 5.33 5.26 5.66 9 6 C8.67 6.66 8.34 7.32 8 8 C3.05 8 -1.9 8 -7 8 C-1.125 1.125 -1.125 1.125 0 0 Z " fill="#00296F" transform="translate(127,98)"/>
<path d="M0 0 C0 0.99 0 1.98 0 3 C-5.45769811 3.11138159 -10.61509359 2.91657981 -16 2 C-16 1.67 -16 1.34 -16 1 C-5.62642369 -1.48063781 -5.62642369 -1.48063781 0 0 Z " fill="#C7CDDB" transform="translate(133,65)"/>
<path d="M0 0 C1.4540625 0.0309375 1.4540625 0.0309375 2.9375 0.0625 C3.2675 1.0525 3.5975 2.0425 3.9375 3.0625 C2.04257254 3.25894384 0.14649097 3.44427288 -1.75 3.625 C-3.33361328 3.78162109 -3.33361328 3.78162109 -4.94921875 3.94140625 C-7.87676086 4.05527552 -10.23381144 3.77098415 -13.0625 3.0625 C-12.7325 2.4025 -12.4025 1.7425 -12.0625 1.0625 C-10.763125 1.083125 -9.46375 1.10375 -8.125 1.125 C-6.77084367 1.14649454 -5.41493917 1.13398199 -4.0625 1.0625 C-3.0625 0.0625 -3.0625 0.0625 0 0 Z " fill="#E1E5EC" transform="translate(196.0625,88.9375)"/>
<path d="M0 0 C-0.33 1.32 -0.66 2.64 -1 4 C-3.31 4.33 -5.62 4.66 -8 5 C-8 3.68 -8 2.36 -8 1 C-5.29120665 -0.35439668 -2.99066732 -0.06501451 0 0 Z " fill="#DCE0E9" transform="translate(133,71)"/>
<path d="M0 0 C-0.625 1.9375 -0.625 1.9375 -2 4 C-5.125 4.75 -5.125 4.75 -8 5 C-8.33 3.68 -8.66 2.36 -9 1 C-6.04335481 -0.4783226 -3.25770263 -0.06032783 0 0 Z " fill="#E2E5EC" transform="translate(200,96)"/>
<path d="M0 0 C0.99 0.33 1.98 0.66 3 1 C2.67 3.97 2.34 6.94 2 10 C-0.64 10 -3.28 10 -6 10 C-5.67 9.34 -5.34 8.68 -5 8 C-3.35 8 -1.7 8 0 8 C0 5.36 0 2.72 0 0 Z " fill="#1D427C" transform="translate(68,79)"/>
<path d="M0 0 C2.64 0 5.28 0 8 0 C8 1.32 8 2.64 8 4 C5.36 4 2.72 4 0 4 C0 2.68 0 1.36 0 0 Z " fill="#02236B" transform="translate(89,53)"/>
<path d="M0 0 C0.639375 0.144375 1.27875 0.28875 1.9375 0.4375 C5.93844788 1.17236798 9.95504896 1.58581111 14 2 C14 2.33 14 2.66 14 3 C9.38 3.33 4.76 3.66 0 4 C0 2.68 0 1.36 0 0 Z " fill="#D7DBE6" transform="translate(45,64)"/>
<path d="M0 0 C2.64 0.66 5.28 1.32 8 2 C7.67 2.99 7.34 3.98 7 5 C4.625 5.125 4.625 5.125 2 5 C1.34 4.34 0.68 3.68 0 3 C0 2.01 0 1.02 0 0 Z " fill="#D8DDE6" transform="translate(43,72)"/>
<path d="M0 0 C-0.33 0.66 -0.66 1.32 -1 2 C-6.53846154 2.36923077 -6.53846154 2.36923077 -8.875 0.5 C-9.24625 0.005 -9.6175 -0.49 -10 -1 C-6.06329512 -2.31223496 -3.87511856 -1.24296256 0 0 Z " fill="#EBEDF2" transform="translate(173,99)"/>
<path d="M0 0 C1.98 0 3.96 0 6 0 C6.66 1.32 7.32 2.64 8 4 C5.36 3.67 2.72 3.34 0 3 C0 2.01 0 1.02 0 0 Z " fill="#E0E4EC" transform="translate(166,89)"/>
<path d="M0 0 C0.99 0.33 1.98 0.66 3 1 C1.7934375 2.051875 1.7934375 2.051875 0.5625 3.125 C-2.23433811 6.26291593 -2.71308751 7.88758763 -3 12 C-3.66 12 -4.32 12 -5 12 C-4.50769231 4.61538462 -4.50769231 4.61538462 -1.9375 1.5 C-1.298125 1.005 -0.65875 0.51 0 0 Z " fill="#092C71" transform="translate(232,85)"/>
<path d="M0 0 C2.97 0 5.94 0 9 0 C9 0.99 9 1.98 9 3 C6.03 3 3.06 3 0 3 C0 2.01 0 1.02 0 0 Z " fill="#02256D" transform="translate(124,68)"/>
<path d="M0 0 C1.33998047 0.06960937 1.33998047 0.06960937 2.70703125 0.140625 C3.60808594 0.17671875 4.50914062 0.2128125 5.4375 0.25 C6.46810547 0.31960937 6.46810547 0.31960937 7.51953125 0.390625 C7.18953125 1.050625 6.85953125 1.710625 6.51953125 2.390625 C4.87984375 2.2978125 4.87984375 2.2978125 3.20703125 2.203125 C-0.40172958 2.03464586 -0.40172958 2.03464586 -2.41796875 3.890625 C-2.76859375 4.385625 -3.11921875 4.880625 -3.48046875 5.390625 C-4.14046875 5.060625 -4.80046875 4.730625 -5.48046875 4.390625 C-3.17521711 0.50003419 -3.17521711 0.50003419 0 0 Z " fill="#11286F" transform="translate(164.48046875,59.609375)"/>
<path d="M0 0 C0.33 0 0.66 0 1 0 C1.2226746 1.43534841 1.42761906 2.87345525 1.625 4.3125 C1.74101562 5.11300781 1.85703125 5.91351563 1.9765625 6.73828125 C2 9 2 9 0 12 C0 11.01 0 10.02 0 9 C-1.32 8.67 -2.64 8.34 -4 8 C-2.68 8 -1.36 8 0 8 C0 5.36 0 2.72 0 0 Z " fill="#B3BBCE" transform="translate(226,84)"/>
</svg>
