<?xml version="1.0" encoding="UTF-8"?>
<svg version="1.1" xmlns="http://www.w3.org/2000/svg" width="320" height="157">
<path d="M0 0 C47.85 0 95.7 0 145 0 C144.67 1.65 144.34 3.3 144 5 C141.52161318 5.4835135 139.04240222 5.96187201 136.5625 6.4375 C135.53092773 6.63956055 135.53092773 6.63956055 134.47851562 6.84570312 C126.19394404 8.42555166 118.05774449 9.18054229 109.625 9.1875 C108.8515625 9.19974609 108.078125 9.21199219 107.28125 9.22460938 C102.9561841 9.23531498 98.97180855 8.86674767 94.73046875 8.00390625 C88.368876 6.75486454 82.15393264 6.69886752 75.6875 6.75 C74.48834961 6.75386719 73.28919922 6.75773437 72.05371094 6.76171875 C65.05188135 6.8303081 58.51760205 7.34455984 51.62890625 8.54296875 C38.27042412 10.22536101 24.78540771 9.46339563 11.640625 6.734375 C7.09497922 5.81744216 2.61845813 5.3665443 -2 5 C-1.34 3.35 -0.68 1.7 0 0 Z " fill="#000000" transform="translate(53,10)"/>
<path d="M0 0 C7.46606067 0.38253668 14.65389391 1.23369278 22 2.5625 C33.38638423 4.53560464 43.58428127 4.11309069 55 2.5 C70.59648522 0.32197521 85.16400718 0.31825943 100.67675781 2.99145508 C112.58454983 4.92063066 124.39637228 3.54192725 136.203125 1.40234375 C139.17082456 0.97542608 142.00586532 0.9335621 145 1 C144.52734375 2.89453125 144.52734375 2.89453125 143 5 C140.11065103 5.78033512 137.50673935 6.29867743 134.5625 6.6875 C133.74716797 6.80778564 132.93183594 6.92807129 132.09179688 7.05200195 C126.07938973 7.91679208 120.06788035 8.67493498 114 9 C113.2678125 9.05285156 112.535625 9.10570312 111.78125 9.16015625 C106.03185941 9.38658773 100.63912299 8.47811736 95 7.5 C80.32239255 5.03483922 66.63254203 5.72383272 51.93676758 7.93212891 C38.29283162 9.89943208 25.50706841 8.95947292 12.0625 6.5 C10.68575076 6.25795205 9.30879743 6.01706199 7.93164062 5.77734375 C4.6189197 5.19616464 1.30869117 4.60362343 -2 4 C-1.34 2.68 -0.68 1.36 0 0 Z " fill="#000000" transform="translate(50,18)"/>
<path d="M0 0 C0.33 0.66 0.66 1.32 1 2 C-1 5 -1 5 -4.69140625 5.94921875 C-6.31193761 6.21536751 -7.936115 6.45984043 -9.5625 6.6875 C-10.43640381 6.81342529 -11.31030762 6.93935059 -12.21069336 7.0690918 C-19.4927363 8.01049901 -26.7243188 8.28884087 -34.0625 8.3125 C-35.5940271 8.32059692 -35.5940271 8.32059692 -37.15649414 8.32885742 C-43.07282584 8.27355561 -48.55323737 7.6098326 -54.34887695 6.45629883 C-58.59127711 5.72611687 -62.76634531 5.66160736 -67.0625 5.6875 C-67.98571045 5.68878906 -68.9089209 5.69007812 -69.86010742 5.69140625 C-78.67151339 5.80860842 -87.35076333 6.77734511 -96.08032227 7.93237305 C-108.09440429 9.51304988 -118.6680035 8.45637485 -130.5625 6.5 C-132.0630479 6.2584729 -133.56369837 6.01758218 -135.06445312 5.77734375 C-138.71084756 5.19223008 -142.3557774 4.59850952 -146 4 C-145.67 3.01 -145.34 2.02 -145 1 C-137.65102935 0.59670283 -130.83494438 1.29754794 -123.625 2.5625 C-110.37828145 4.78586684 -97.1654842 4.09780985 -83.9375 1.9375 C-78.04039397 0.99254205 -72.27201939 0.77985784 -66.3125 0.75 C-65.45712646 0.740896 -64.60175293 0.73179199 -63.72045898 0.72241211 C-59.22630302 0.74353977 -55.04599487 1.11082294 -50.63671875 1.99609375 C-44.56965314 3.18952728 -38.67055206 3.34217057 -32.5 3.3125 C-30.81608154 3.31056641 -30.81608154 3.31056641 -29.09814453 3.30859375 C-19.19292926 3.19592245 -9.69393493 1.96214587 0 0 Z " fill="#000000" transform="translate(189,29)"/>
<path d="M0 0 C5.74511564 -0.22678088 10.93122583 0.42331799 16.5769043 1.47412109 C31.44110868 4.23035196 44.92224867 4.3718251 59.8125 1.9375 C66.11774697 0.94154056 72.3177361 0.77898815 78.6875 0.75 C80.11316284 0.73634399 80.11316284 0.73634399 81.56762695 0.72241211 C86.33477171 0.74264161 90.79013591 1.06419348 95.46875 2 C101.28238088 3.15703415 106.89807772 3.30353283 112.8125 3.25 C113.85841309 3.24613281 114.90432617 3.24226563 115.98193359 3.23828125 C122.85600663 3.16167805 129.42607774 2.67766515 136.1953125 1.4375 C139.17134329 0.97327236 141.99284991 0.92861365 145 1 C144.52449439 2.48034764 144.04448784 3.95925021 143.5625 5.4375 C143.29566406 6.26121094 143.02882812 7.08492187 142.75390625 7.93359375 C142 10 142 10 141 11 C138.04470496 11.16029688 135.11017543 11.25957328 132.15234375 11.31640625 C131.2659169 11.33718735 130.37949005 11.35796844 129.46620178 11.37937927 C126.623383 11.444974 123.78046883 11.50380552 120.9375 11.5625 C119.01496394 11.6056758 117.09243766 11.64928978 115.16992188 11.69335938 C110.44671332 11.80066543 105.72340847 11.90190451 101 12 C100.50185791 13.21562622 100.50185791 13.21562622 99.99365234 14.45581055 C98.73223813 17.53015219 97.46824961 20.60341104 96.20263672 23.67602539 C95.66062409 24.99332394 95.11957163 26.31101806 94.57958984 27.62915039 C93.79271354 29.54945095 93.00211765 31.46818799 92.2109375 33.38671875 C91.73962402 34.53358154 91.26831055 35.68044434 90.78271484 36.86206055 C88.30027284 42.62416813 85.62921529 48.30336687 83 54 C63.53 54 44.06 54 24 54 C27.3 46.08 30.6 38.16 34 30 C36.64 23.4 39.28 16.8 42 10 C26.82 10 11.64 10 -4 10 C-2.68 6.7 -1.36 3.4 0 0 Z " fill="#000000" transform="translate(41,38)"/>
<path d="M0 0 C1.36755322 1.89937948 1.76225168 3.24841591 2.125 5.5625 C1.39272749 8.36869116 0.24498479 10.87453651 -0.875 13.5625 C-5.825 13.5625 -10.775 13.5625 -15.875 13.5625 C-15.545 10.2625 -15.215 6.9625 -14.875 3.5625 C-18.56688021 3.26018461 -18.56688021 3.26018461 -21.875 4.5625 C-24.46076708 8.31007486 -26.15635887 12.35964124 -27.875 16.5625 C-28.21789062 17.36558594 -28.56078125 18.16867188 -28.9140625 18.99609375 C-30.30054399 22.42342417 -30.875 24.81935066 -30.875 28.5625 C-25.93605439 28.32873573 -25.93605439 28.32873573 -22 25.6875 C-20.75512574 23.47687553 -20.75512574 23.47687553 -19.875 20.5625 C-14.595 20.5625 -9.315 20.5625 -3.875 20.5625 C-7.55860839 31.61332516 -7.55860839 31.61332516 -13.45703125 34.6875 C-17.94295315 36.82873936 -22.01639868 37.28723736 -26.9375 37.4375 C-27.70126953 37.48390625 -28.46503906 37.5303125 -29.25195312 37.578125 C-35.2140508 37.84333379 -40.68631535 37.52670417 -45.3125 33.375 C-47.22607746 29.93056057 -47.43138562 27.37827942 -46.875 23.5625 C-45.75288963 19.90518402 -44.28067289 16.44038603 -42.75 12.9375 C-42.37101563 12.009375 -41.99203125 11.08125 -41.6015625 10.125 C-39.17665733 4.48305398 -37.08755174 0.90474496 -31.875 -2.4375 C-21.97151674 -6.00456008 -8.62447989 -6.61210125 0 0 Z " fill="#000000" transform="translate(230.875,55.4375)"/>
<path d="M0 0 C1.16595703 -0.02416992 1.16595703 -0.02416992 2.35546875 -0.04882812 C7.67739775 -0.05330033 11.41763751 0.78674806 16.125 3.3125 C18.12515988 7.31281977 17.60598128 11.66678641 16.38720703 15.83691406 C15.3777993 18.56397962 14.30319599 21.25220094 13.1875 23.9375 C12.44401237 25.76090661 11.70557691 27.58638287 10.97265625 29.4140625 C10.4777771 30.61023193 10.4777771 30.61023193 9.97290039 31.83056641 C8.86912004 34.84067405 8.86912004 34.84067405 8.125 40.3125 C3.175 40.3125 -1.775 40.3125 -6.875 40.3125 C-7.205 39.3225 -7.535 38.3325 -7.875 37.3125 C-8.4525 37.786875 -9.03 38.26125 -9.625 38.75 C-14.15430471 41.8953505 -19.5235532 41.94099462 -24.875 41.3125 C-28.4375 39.875 -28.4375 39.875 -30.875 37.3125 C-31.82768487 33.05717425 -31.37244292 29.49065429 -29.6875 25.5 C-24.46103944 19.19220278 -18.69634352 17.37673486 -10.80664062 16.57226562 C-9.38261401 16.43970647 -7.9581109 16.31217864 -6.53320312 16.18945312 C-2.45036002 15.76604559 -2.45036002 15.76604559 1.11328125 13.87109375 C2.30649034 12.34260149 2.30649034 12.34260149 2.125 10.3125 C-0.68264728 9.53823891 -0.68264728 9.53823891 -3.875 9.3125 C-4.74125 10.03953125 -4.74125 10.03953125 -5.625 10.78125 C-8.82530788 12.95923731 -11.30247676 12.6061812 -15.125 12.5 C-16.38828125 12.47292969 -17.6515625 12.44585937 -18.953125 12.41796875 C-19.91734375 12.38316406 -20.8815625 12.34835938 -21.875 12.3125 C-19.93564424 6.82531806 -16.92537982 3.91269925 -11.73046875 1.1875 C-7.78675476 -0.0209705 -4.10179202 -0.01683823 0 0 Z M-9.4375 24.1875 C-10.61505859 24.43113281 -10.61505859 24.43113281 -11.81640625 24.6796875 C-14.07178401 25.19720173 -14.07178401 25.19720173 -15.875 27.3125 C-15.55458603 29.91530568 -15.55458603 29.91530568 -14.875 32.3125 C-10.4807696 32.7433069 -8.54640255 32.83794547 -5 30.0625 C-3.11388646 27.62164718 -2.20905533 26.31899796 -1.875 23.3125 C-4.59966698 23.3125 -6.78913592 23.62030506 -9.4375 24.1875 Z " fill="#000000" transform="translate(166.875,51.6875)"/>
<path d="M0 0 C6.19389774 -0.23293291 10.22180497 1.09499236 15.53515625 4.3515625 C17.33847321 7.42780909 16.98981842 10.72912596 16.59765625 14.1640625 C15.63748557 17.51926566 14.31325922 20.65994407 12.91015625 23.8515625 C12.57048828 24.67978516 12.23082031 25.50800781 11.88085938 26.36132812 C9.20486228 32.60865591 6.46136842 36.6265218 0.31640625 39.92578125 C-3.86220743 41.31718938 -7.53174427 41.78500671 -11.90234375 41.9765625 C-12.98322266 42.05293945 -12.98322266 42.05293945 -14.0859375 42.13085938 C-19.83002087 42.43727974 -25.05708937 41.9538619 -29.77734375 38.3515625 C-31.72363469 35.73155547 -32.13894269 34.42309262 -32.40234375 31.1640625 C-31.6141194 28.44397193 -30.77109518 25.96123251 -29.71484375 23.3515625 C-29.43519775 22.64032227 -29.15555176 21.92908203 -28.86743164 21.19628906 C-28.06378116 19.17755979 -27.23911862 17.16925437 -26.40234375 15.1640625 C-26.03367188 14.27847656 -25.665 13.39289063 -25.28515625 12.48046875 C-22.93000878 7.33223317 -20.12436662 4.64173206 -15.21484375 1.9765625 C-10.2251267 0.53508869 -5.15904488 0.35232502 0 0 Z M-7.37109375 8.65234375 C-10.1031424 12.03062698 -11.5549488 15.58750781 -13.15234375 19.6015625 C-13.62607422 20.72788086 -13.62607422 20.72788086 -14.109375 21.87695312 C-15.66888769 25.7149746 -16.95527048 28.94393058 -16.40234375 33.1640625 C-15.25491545 34.54261759 -15.25491545 34.54261759 -12.15234375 34.2265625 C-8.05814717 33.07434008 -8.05814717 33.07434008 -5.77734375 29.9140625 C-0.21619654 20.05485733 -0.21619654 20.05485733 1.23046875 9.26953125 C1.02164063 8.57472656 0.8128125 7.87992188 0.59765625 7.1640625 C-3.68319894 6.73840592 -3.68319894 6.73840592 -7.37109375 8.65234375 Z " fill="#000000" transform="translate(263.40234375,50.8359375)"/>
</svg>
