<?xml version="1.0" standalone="no"?>
<!DOCTYPE svg PUBLIC "-//W3C//DTD SVG 20010904//EN"
 "http://www.w3.org/TR/2001/REC-SVG-20010904/DTD/svg10.dtd">
<svg version="1.0" xmlns="http://www.w3.org/2000/svg"
 width="225.000000pt" height="225.000000pt" viewBox="0 0 225.000000 225.000000"
 preserveAspectRatio="xMidYMid meet">

<g transform="translate(0.000000,225.000000) scale(0.100000,-0.100000)"
fill="#000000" stroke="none">
<path d="M330 1330 l0 -430 303 2 302 3 0 305 0 304 -55 0 -55 0 -3 -247 -2
-247 -65 0 -65 0 -2 247 -3 247 -55 1 -55 0 -3 -248 -2 -248 -63 3 -62 3 -3
308 -2 307 740 0 740 0 0 60 0 60 -795 0 -795 0 0 -430z"/>
<path d="M1069 1509 c-5 -3 -8 -130 -7 -305 l3 -299 183 -3 182 -2 0 59 0 60
-122 3 -123 3 -3 63 -3 62 126 0 125 0 -2 181 -3 181 -173 2 c-96 0 -178 -2
-183 -5z m241 -174 l0 -65 -65 0 -65 0 0 65 0 65 65 0 65 0 0 -65z"/>
<path d="M1560 1207 l0 -308 120 3 120 3 0 -62 0 -63 -735 0 -735 0 0 -60 0
-60 795 0 795 0 0 428 0 427 -180 0 -180 0 0 -308z m240 3 l0 -190 -60 0 -60
0 0 190 0 190 60 0 60 0 0 -190z"/>
<path d="M1845 620 c-3 -5 -12 -7 -20 -3 -10 3 -15 -2 -15 -16 0 -12 -4 -21
-10 -21 -5 0 -10 4 -10 9 0 17 -40 20 -49 3 -15 -31 11 -81 57 -108 23 -14 42
-20 42 -15 0 6 9 11 20 11 10 0 28 10 39 22 21 21 21 21 1 35 -11 8 -25 11
-30 8 -16 -10 -12 7 7 27 9 11 11 18 5 18 -7 0 -12 9 -12 20 0 21 -15 27 -25
10z"/>
<path d="M330 535 l0 -75 30 0 c20 0 30 5 30 15 0 10 10 15 29 15 39 0 61 24
61 64 0 46 -15 56 -87 56 l-63 0 0 -75z m90 25 c11 -7 12 -12 3 -21 -16 -16
-44 -4 -37 16 7 17 13 18 34 5z"/>
<path d="M510 568 c-6 -24 -15 -58 -20 -75 -8 -32 -7 -33 20 -33 16 0 32 5 35
10 3 6 15 10 26 10 10 0 19 -4 19 -10 0 -5 14 -10 30 -10 35 0 35 1 14 85
l-16 65 -49 0 -48 0 -11 -42z m70 -40 c0 -11 -5 -15 -14 -12 -8 3 -11 15 -8
30 3 19 7 22 13 12 5 -7 9 -21 9 -30z"/>
<path d="M670 535 l0 -75 29 0 c27 0 29 3 26 30 -2 17 0 30 4 30 5 0 11 -13
15 -30 8 -45 40 -40 53 8 l10 37 2 -37 c1 -33 4 -38 26 -38 24 0 25 2 25 75
l0 75 -35 0 c-31 0 -36 -3 -42 -30 -8 -44 -21 -46 -29 -5 -6 33 -9 35 -45 35
l-39 0 0 -75z"/>
<path d="M890 535 l0 -75 70 0 c56 0 70 3 70 15 0 11 -11 15 -40 15 -22 0 -40
5 -40 10 0 6 18 10 40 10 29 0 40 4 40 15 0 11 -11 15 -40 15 -22 0 -40 5 -40
10 0 6 18 10 40 10 36 0 40 3 40 25 0 24 -2 25 -70 25 l-70 0 0 -75z"/>
<path d="M1050 535 l0 -75 29 0 c26 0 30 4 33 33 l3 32 20 -32 c14 -25 26 -33
47 -33 l28 0 0 75 0 75 -30 0 c-27 0 -30 -3 -31 -32 l0 -33 -16 33 c-14 26
-22 32 -50 32 l-33 0 0 -75z"/>
<path d="M1247 592 c-32 -35 -10 -82 39 -82 13 0 24 -5 24 -11 0 -7 -14 -10
-35 -7 -28 3 -35 1 -35 -14 0 -22 38 -33 85 -24 26 5 36 13 41 31 10 42 1 60
-34 63 -17 2 -32 8 -32 14 0 6 15 8 35 6 31 -4 35 -1 35 19 0 21 -4 23 -53 23
-40 0 -58 -5 -70 -18z"/>
<path d="M1400 535 l0 -75 31 0 c26 0 29 3 24 20 -3 11 -3 20 2 20 4 0 14 -9
21 -20 8 -13 23 -20 42 -20 36 0 36 3 9 41 l-20 29 24 34 23 35 22 -45 c12
-24 22 -56 22 -70 0 -22 4 -25 33 -22 19 2 31 8 29 16 -1 7 6 29 17 50 10 20
22 47 25 60 7 19 4 22 -22 22 -20 0 -32 -7 -39 -22 l-10 -23 -7 23 c-7 20 -14
22 -72 22 -59 0 -65 -2 -76 -25 -6 -14 -14 -25 -18 -25 -4 0 -6 11 -5 25 3 22
-1 25 -26 25 l-29 0 0 -75z"/>
<path d="M1775 469 c-4 -6 -5 -12 -2 -15 2 -3 7 2 10 11 7 17 1 20 -8 4z"/>
</g>
</svg>
